<svg id="Layer_1" data-name="Layer 1" xmlns="http://www.w3.org/2000/svg" xmlns:xlink="http://www.w3.org/1999/xlink" viewBox="0 0 1440 915"><defs><style>.cls-1{fill:none;}.cls-2{opacity:0.32;}.cls-3{clip-path:url(#clip-path);}.cls-4{fill:#ddd;}</style><clipPath id="clip-path"><rect class="cls-1" x="-0.96" y="-918.73" width="1442" height="1896" transform="translate(1440.08 58.54) rotate(180)"/></clipPath></defs><g class="cls-2"><g class="cls-3"><path class="cls-4" d="M322.05,951.4c-10.8-2.32-20.79-9.54-27.14-18.54-5.06-7.17-10.54-22.23-1.84-28.62a3.36,3.36,0,0,1,4.61,1.21c1.66,3.87.9,7.72,1.54,11.79a30.61,30.61,0,0,0,5.52,12.62c5.27,7.49,13.24,12.41,18.68,19.76.68.92-.44,2-1.37,1.78Z"/><path class="cls-4" d="M340,915.09c8.24,1.91,17.36,3.33,25.82,2.11a36.59,36.59,0,0,0,12-4c3.27-1.75,7.19-4.67,11-4.57a2.83,2.83,0,0,1,2.8,2.8C391.38,921.71,375,926,367.1,927c-10.67,1.35-21.57-1.23-28.3-9.92a1.19,1.19,0,0,1,1.15-2Z"/><path class="cls-4" d="M80.45,1215.3c10.54-8.2,23.33-13.82,34.58-21.07,12.1-7.8,23.85-16.18,35.14-25.1a501.21,501.21,0,0,0,61.33-57.72c39.79-44.08,71.77-94.49,99-147.12,15.89-30.72,30-62.3,43.4-94.16,2.39-5.69,10.36-2.47,7.87,3.32-24.49,57-52.35,112.95-86.91,164.54-32,47.76-69.66,92.08-114.45,128.34a427.79,427.79,0,0,1-37.82,27.48q-10.26,6.6-20.88,12.57c-6.67,3.74-13.35,7.74-20.75,9.76-.45.12-.9-.52-.49-.84Z"/><path class="cls-4" d="M1313.47,949.33c3.37-8,8.49-15.06,11.1-23.38a39.56,39.56,0,0,0,.72-21c-3.32-14.15-13.39-25.54-25.87-32.56a82.28,82.28,0,0,0-26.16-9c.29-.78.59-1.57.89-2.35a102.42,102.42,0,0,1,19.17,14.13c4.33,4.05,8.53,8.76,10.17,14.6a16.75,16.75,0,0,1,.61,4c.06,1.74-.39,3.43-.37,5.16,0,3.36,3.65,6,5.52,8.5a46.36,46.36,0,0,1,7.8,16.71,44.41,44.41,0,0,1,.38,20.85c-.4,1.68-3.33,1-3-.7,2.49-12.17.55-24.59-6.84-34.79-1.72-2.37-4.07-4.39-5.48-7-1.61-3-.35-5.93-.55-9.07-.37-5.93-4.4-11-8.47-15a99.82,99.82,0,0,0-20.5-15.28c-1.11-.63-.34-2.56.89-2.35,16.23,2.88,32.48,9.68,43.4,22.45,9,10.55,14.25,25.39,11.13,39.22a57,57,0,0,1-5.76,14.37,108.59,108.59,0,0,1-7.91,13,.51.51,0,0,1-.89-.49Z"/><path class="cls-4" d="M1372.35,876.51c3-2,3.05-6.13,3.32-9.36a67.34,67.34,0,0,0,.15-10.34,55.48,55.48,0,0,0-4.7-19.47,44.66,44.66,0,0,0-12.43-16.25,40.55,40.55,0,0,0-19.28-8.31c-3.94-.68-8-1.26-11.63-3-3.8-1.85-6.82-4.7-11-5.7l1.48-1.56c1.86,6.13,6.67,10.33,12,13.54s12,5,17,9.11,6.06,9.67,6.58,15.63a56.06,56.06,0,0,0,1.19,9,27.14,27.14,0,0,0,4,8.55,42,42,0,0,0,7.12,8c1.28,1.11,2.65,2.1,3.94,3.19l2.06,1.71a10.77,10.77,0,0,1,.92.75c.45.48,1.18,0,0,.3l-1.4.86.05,1.46,1.41.53-.18,0a1.37,1.37,0,0,1-1.56-1.45c.14-3.07,6.08-1.08,3.56,2.6a2.6,2.6,0,0,1-2.37,1.07c-1.7-.24-2.7-1.23-3.91-2.35s-2.62-2.48-3.84-3.83c-2.13-2.35-4.35-4.64-6.33-7.12a33.22,33.22,0,0,1-7.51-17.07c-.69-6.23.2-13.5-4.35-18.51-2.49-2.74-6-4.39-9.25-6-2.82-1.36-5.63-2.76-8.32-4.38-5.86-3.54-11-8.28-13-15-.28-.95.82-1.46,1.56-1.27,3.75.92,6.45,3.88,9.72,5.75,4.08,2.35,8.82,2.89,13.37,3.69a41,41,0,0,1,19.5,8.83c11,9.16,16.53,23,17.23,37.05a66.05,66.05,0,0,1-.4,11.68c-.43,3.25-1,6.78-4.06,8.6-.55.33-1.13-.61-.59-1Z"/><path class="cls-4" d="M1376.75,874.59c12.89-18.76,39.26-46.5,64.31-32a22.85,22.85,0,0,1,11,14.18c.35,1.4-1.16,2.17-2.3,1.89-6-1.5-12.49-3.17-18.56-1.33a14.37,14.37,0,0,0-6.73,4.15c-1.84,2.14-2.09,4.8-3.38,7.21-2.66,5-7.92,3.27-12.38,2.64-5.64-.8-11,2.81-16.28,4.32a51.26,51.26,0,0,1-9.59,1.77c-3.45.3-6.87.07-10.32.13-3.21,0-2.59-5.59,1.08-4.65,5.62,1.43,12.35.45,17.89-.92s10.77-4.7,16.53-4.27c2.32.17,4.59,1.08,6.93,1,3.34,0,3.54-3.35,4.59-5.83,2-4.77,6.56-7.8,11.43-9.1,6.62-1.77,13.55,0,20,1.64l-2.3,1.88c-2.46-10-13.37-15.62-23.09-15.58-12.28,0-23.17,7.44-31.92,15.38a119,119,0,0,0-16.11,18,.48.48,0,0,1-.77-.56Z"/><path class="cls-4" d="M1394.81,807.76c-.2-12.61-7.22-24.14-16.51-32.28-5.28-4.63-11.5-8.58-18.56-9.61s-13.51,2.06-20.39,2.29c-1.67.05-1.51-2.4-.09-2.76a21.19,21.19,0,0,1,16.65,2.86c5.6,3.63,7.93,9.32,10,15.37a28.38,28.38,0,0,0,4.22,8.67c2.49,3.13,5.49,3.8,9.2,4.71a11.74,11.74,0,0,1,7,4.58c.85,1.11,1.65,2.24,2.59,3.28a3.7,3.7,0,0,0,2.9,1.26c3.32.21,2.82,5.33-.48,5.13-6.21-.39-6.51-8.87-11.84-10.85-3.07-1.14-6.21-1.34-8.85-3.48a19,19,0,0,1-5.06-6.85c-2.81-5.89-3.47-13-8.46-17.61a18.7,18.7,0,0,0-17.45-4.33l-.45-2.74c5.73-.26,11.22-2.33,17-2.37,5.92,0,11.46,2.41,16.31,5.65,8.54,5.71,16,13.69,20.08,23.18a39.37,39.37,0,0,1,3.33,16c0,.74-1.13.61-1.14-.11Z"/><path class="cls-4" d="M1396,811.22c1.88-5.71,5.64-11,9.6-15.5a59.94,59.94,0,0,1,13.58-11.42c4.79-2.92,10.54-5.75,16.25-5.86,6.66-.12,12.06,4.33,15.88,9.38.74,1,0,2.8-1.35,2.52a17.22,17.22,0,0,0-15.38,4.49c-3.33,3.27-4.74,9-9.58,10.57-2.64.84-5-.52-7.65-.52a20.64,20.64,0,0,0-7,1.64c-3.72,1.39-9.84,4.67-13.56,2a1.07,1.07,0,0,1,.2-1.83c2.28-.83,4.77-.71,7.12-1.46s4.5-1.74,6.79-2.51a20.87,20.87,0,0,1,6.72-1.25c2.57,0,5.29,1.69,7.6,0,2-1.45,3.13-4,4.48-6a19.47,19.47,0,0,1,5.4-5.34,20.14,20.14,0,0,1,15.1-3l-1.35,2.52c-3.65-4.93-8.77-9.14-15.26-8.43-5.35.59-10.62,3.25-15.21,5.94a55.81,55.81,0,0,0-13,10.61c-3.72,4.09-6.44,8.68-9.28,13.39a.06.06,0,0,1-.1-.06Z"/><path class="cls-4" d="M1395.25,776.79c1.57-6.7,5.68-12.53,7-19.3a16.2,16.2,0,0,0-.41-8.68c-1.16-3.1-3.66-5.21-6.2-7.2a47.53,47.53,0,0,1-11.6-13.22c-3-4.89-6.22-10-6.75-15.83l1,.36c-2.84,2.16-5.81,4.41-6.22,8.19-.33,3,1.24,6.16,2.34,8.9a81.76,81.76,0,0,0,4.19,8.82c1.43,2.59,3.4,5,4.49,7.79s.22,5.59.79,8.45a28.52,28.52,0,0,0,3.07,8.12,25.8,25.8,0,0,0,5.49,6.77c1.73,1.52,5.17,2.64,4.88,5.37a1.75,1.75,0,0,1-1,1.44c-1.28.44-3.59-.6-2.36-2.2a1,1,0,0,1,1.49,0l.12.14-1-.39c-.32,1.3-.75,1.57-1.31.8l-.76-.76c-.57-.56-1.14-1.13-1.69-1.72a38.71,38.71,0,0,1-2.75-3.25,39.83,39.83,0,0,1-4.21-7.08,25.27,25.27,0,0,1-2.54-8.89c-.09-1.53.31-3.1,0-4.61a14.84,14.84,0,0,0-2.35-4.83,69.11,69.11,0,0,1-8.14-17.67c-.71-2.61-1.09-5.54.12-8.06,1.35-2.84,4-4.63,6.64-6.22a.6.6,0,0,1,1,.52c-.06,3.51,1.59,6.68,3.3,9.66s3.33,5.69,5.17,8.41a38.64,38.64,0,0,0,6.44,7.53c2.24,2,4.78,3.55,6.84,5.7,9.52,9.95-1.15,23.09-3.68,33.44-.2.83-1.43.35-1.24-.47Z"/><path class="cls-4" d="M1318.74,938.61a72.08,72.08,0,0,0-.35-22.52c-1.28-7.53-4.15-14.39-6.87-21.47-.07-.16.16-.33.28-.17,4.28,6.14,6.44,13.81,7.69,21.14a69.37,69.37,0,0,1-.07,23.09c-.07.43-.75.37-.68-.07Z"/><path class="cls-4" d="M1376.59,874.24c-2.08-1.32-3-3.52-3.59-5.82-.85-3.27-1.5-6.57-2.42-9.82a200,200,0,0,0-7.22-20.31.13.13,0,0,1,.23-.1,93.46,93.46,0,0,1,7.18,17.56q1.41,4.69,2.46,9.47c.66,3,1,6.56,3.78,8.44.38.27,0,.83-.42.58Z"/><path class="cls-4" d="M1379,874.7a109.66,109.66,0,0,1,16-12.09c2.58-1.66,5.26-3.18,8-4.63s5.8-3.35,9-3.76a.26.26,0,0,1,.21.46c-2.31,2-5.28,3.06-8,4.43-2.89,1.46-5.71,3-8.52,4.65-5.79,3.33-11.21,7.2-16.67,11a.06.06,0,0,1-.07-.09Z"/><path class="cls-4" d="M1394.52,807.54c-2.24-4.6-4.53-8.95-8-12.81a43,43,0,0,0-5.58-5.21c-2-1.53-4.18-2.72-6.07-4.32a.3.3,0,0,1,.28-.53c4.74,1.41,9,5.76,12.18,9.41A36.37,36.37,0,0,1,1395,807.4c.08.28-.35.38-.47.14Z"/><path class="cls-4" d="M1397.29,809.67c1-2,3.23-3.74,4.92-5.23a58.22,58.22,0,0,1,6.94-5.28c4.45-2.9,9.35-5.78,14.7-6.44a.22.22,0,0,1,.13.42c-4.64,2.71-9.71,4.52-14.3,7.34a76.15,76.15,0,0,0-6.57,4.56c-1.91,1.47-3.68,3.51-5.78,4.67,0,0,0,0,0,0Z"/><path class="cls-4" d="M1393.24,752.1c8.89,40.26,2.9,83.21-15.63,120a176.78,176.78,0,0,1-16,26c-6.77,9.12-14.54,17.4-22.3,25.68s-15.82,16.92-22.54,26.36a141.72,141.72,0,0,0-15.6,28.38,143.52,143.52,0,0,0-9.4,35.14,179.19,179.19,0,0,0-1.37,18.07,151.41,151.41,0,0,0,.09,18.45.88.88,0,0,1-1.74.29,133,133,0,0,1-2-16.16,114,114,0,0,1,.62-16,147.36,147.36,0,0,1,6.91-31.61,145,145,0,0,1,13.46-29A170,170,0,0,1,1328.45,931c7.92-8.57,16.27-16.74,23.91-25.56A175.71,175.71,0,0,0,1370.74,880a183.48,183.48,0,0,0,22.1-127.87c0-.26.34-.32.4-.07Z"/><path class="cls-4" d="M1263.52,898.45c-3-3.73-5.18-8.36-7.37-12.61q-3.6-7-6.8-14.13c-2.08-4.65-3.94-9.4-5.69-14.19-1.62-4.4-3.75-9.18-4-13.91,0-.46.6-.46.78-.15,2.56,4.14,3.68,9.3,5.35,13.85s3.57,9.28,5.47,13.88,3.82,8.91,5.9,13.29c2.17,4.56,4.9,9,6.6,13.8,0,.15-.13.31-.25.17Z"/><path class="cls-4" d="M1247.12,876a78.37,78.37,0,0,0-21.48-11.27,67.91,67.91,0,0,0-11.84-2.71q-2.85-.37-5.73-.51c-1.8-.08-3.86.31-5.4-.77a.71.71,0,0,1-.07-1.11c1.45-1.1,3.3-.82,5-.73q3.19.16,6.36.64a65.72,65.72,0,0,1,12.37,3.11,58.22,58.22,0,0,1,21.16,12.9c.24.24-.12.65-.4.45Z"/><path class="cls-4" d="M1211.84,836.2c-3.16-2.19-5.84-5.24-8.51-8-2.93-3-5.76-6.14-8.48-9.36s-5.18-6.32-7.61-9.59c-1.26-1.69-4.55-5.1-2.24-7.14a.4.4,0,0,1,.65.22c.5,3.35,3.74,6.57,5.75,9.18s4.29,5.44,6.55,8.07,4.56,5.22,6.94,7.74,5.42,5.13,7.72,8c.4.51-.21,1.27-.77.87Z"/><path class="cls-4" d="M1185.19,819.08a101.22,101.22,0,0,0-18.09-.19,86.25,86.25,0,0,0-8.61,1.25c-2.86.58-5.78,1.81-8.7,1.87-2.18,0-2.27-2.91-.74-3.83,2.53-1.53,6.13-1.76,9-2.14a61.49,61.49,0,0,1,9.2-.53,55,55,0,0,1,18,3.1.24.24,0,0,1-.1.47Z"/><path class="cls-4" d="M1251.64,869.59A152.62,152.62,0,0,0,1245,828.4a136.23,136.23,0,0,0-18.63-37.62A134,134,0,0,0,1211.21,773l2.23-1.09c6.12,26.75,12.38,53.91,24.86,78.55a148.29,148.29,0,0,0,12.21,20.08c1,1.37-1,3.12-2,1.75-16.46-22.66-25.31-49.51-32.07-76.4-2-7.81-3.76-15.65-5.55-23.49a1.3,1.3,0,0,1,2.23-1.1,137,137,0,0,1,38.54,74.54,115.48,115.48,0,0,1,1.62,23.92c0,1.09-1.63.91-1.66-.13Z"/><path class="cls-4" d="M1231.43,864.44c-17.71-20.86-48-13.62-70.45-6.79-8.43,2.56-16.93,5.28-25.69,6.47.07-1.07.15-2.14.23-3.22,22.88,9.32,47.69,17,72.39,10.68,7.54-1.92,14.56-4.94,21.77-7.76,2-.78,3.47,2.28,1.48,3-12.57,4.38-25.79,8.63-39.18,9.17-12.41.5-24.77-2-36.64-5.46-7-2-13.95-4.31-20.93-6.45a1.69,1.69,0,0,1,.24-3.22c16-3.46,31.38-9.62,47.53-12.43,11.65-2,24.4-1.19,35.25,3.79a34.7,34.7,0,0,1,14.43,11.86c.2.29-.18.66-.43.38Z"/><path class="cls-4" d="M1173.45,819a43.47,43.47,0,0,0-7.53-3.78,29.68,29.68,0,0,0-8-1.39c-6.17-.25-12.52,1.71-18.16,4-11.86,4.92-22.79,12.19-35.46,15l.27-3.74c11.61,5.3,26,5.71,38.53,3.94,10.54-1.49,24.48-4.52,29.79-15,.64-1.25,2.56,0,1.84,1.25-6,10.49-19,13.92-30.16,15.62a94,94,0,0,1-20.32.92c-6.93-.45-13.67-1.87-20.47-3a2,2,0,0,1-.22-3.84c13.64-2.92,25.15-11.42,38.46-15.33a42.88,42.88,0,0,1,17.91-1.48c4.88.66,10.69,2.38,14,6.25a.34.34,0,0,1-.44.51Z"/><path class="cls-4" d="M1199.91,818.47c-1.45-2.56-1.94-5.44-2.87-8.24a72.79,72.79,0,0,0-3.44-8.51A80.88,80.88,0,0,0,1155,763.45a72,72,0,0,0-20-5.8l1.27-1.89a246.35,246.35,0,0,0,28,36.32,219.62,219.62,0,0,0,16.73,16,62.16,62.16,0,0,0,8.75,6.58,26.57,26.57,0,0,0,5,2.3,8.27,8.27,0,0,1,4,2.44,1.24,1.24,0,0,1-.69,2,4.66,4.66,0,0,1-3.8-.08,29.38,29.38,0,0,1-3.61-2.08,71.61,71.61,0,0,1-6.91-5.39c-4.59-3.85-9.06-7.88-13.38-12a245.87,245.87,0,0,1-24.82-27.87,198.85,198.85,0,0,1-11.63-17,1.31,1.31,0,0,1,1.27-1.88c25,4.08,47.55,20.9,58.89,43.54a75.58,75.58,0,0,1,4.13,9.93c1.07,3.19,2.33,6.55,1.91,9.93a.1.1,0,0,1-.18,0Z"/><path class="cls-4" d="M1147.24,806.49c-7.29-8.27-17.51-12.55-28.46-12.83-13.35-.35-26,4.36-38.22,9.32-6.91,2.81-13.8,5.66-20.93,7.88l.18-2.37a140.27,140.27,0,0,0,43.58,5,146,146,0,0,0,21.74-2.76c7.28-1.49,14.78-3.44,21.31-7.05,2.38-1.31,4,3,1.21,3.58-7.43,1.56-14.69,3.85-22.17,5.32a147.51,147.51,0,0,1-21.87,2.61,151,151,0,0,1-44.62-4.37c-1.31-.34-.85-2,.18-2.37,23.86-7.57,50.19-24.76,75.66-13.12A30.45,30.45,0,0,1,1147.92,806c.26.4-.38.8-.68.46Z"/><path class="cls-4" d="M1275.56,923.11c-4-6.15-7.36-12.64-11.11-18.91s-7.51-12.29-11.49-18.28a247.67,247.67,0,0,0-26.76-34c-18.43-19.37-41.17-34.9-67.07-42.26a111,111,0,0,0-21.16-3.86,123.5,123.5,0,0,0-22.09.5c-2.39.23-3.18-3.33-.72-3.74,12.83-2.16,26.44-.73,39,2.26a135.67,135.67,0,0,1,37,15.06c24.8,14.49,44.53,36,60.53,59.63q6.83,10.08,12.84,20.67c4.17,7.35,8.43,14.77,11.69,22.58a.36.36,0,0,1-.65.31Z"/><path class="cls-4" d="M1303.62,1117.18a256.93,256.93,0,0,1-28.49-13.56c-9.23-5-18.27-10.38-27-16.23A371.92,371.92,0,0,1,1124.5,948.2q-8-15.72-14.43-32.16-3.16-8.1-5.93-16.34c-1.9-5.67-3.61-11.2-4.22-17.17-.1-.93,1.37-1.5,1.81-.59,4.46,9.36,7,19.57,10.71,29.27s7.75,19.18,12.25,28.49a374.92,374.92,0,0,0,118.53,141.23c9.49,6.82,19.29,13.24,29.37,19.17s20.73,11.26,31.29,16.57c.33.17.08.64-.26.51Z"/><path class="cls-4" d="M1113.82,926.17c-1.17-2.83-4.26-4.3-6.82-5.66a67.43,67.43,0,0,0-7.85-3.53,66,66,0,0,0-8.73-2.63c-2.64-.6-5.68-.6-8.09-1.87a.31.31,0,0,1,0-.56c2.88-.83,6.29.25,9.12.93a62.87,62.87,0,0,1,9.47,3,52.27,52.27,0,0,1,9.09,4.65,9.21,9.21,0,0,1,4.13,5.52.19.19,0,0,1-.36.12Z"/><path class="cls-4" d="M1098.22,915c-2.49-4.1-4.8-8-8.71-10.93a15.94,15.94,0,0,0-13.7-3.12c-4.27,1.09-8.16,3.47-12.29,5a42.87,42.87,0,0,1-14.27,2.51l.94-2.7c6.85,6.12,14.16,13.06,23.38,15.2a23.1,23.1,0,0,0,10.59,0,18.26,18.26,0,0,0,9.06-5.59c1.6-1.66,3.92.57,2.61,2.37-4.71,6.47-14.42,7.76-21.74,6.42-10.32-1.89-18.55-9.18-26-16.11a1.57,1.57,0,0,1,1-2.7,40.56,40.56,0,0,0,15.9-3.11c4.43-1.79,8.94-3.77,13.8-4,9.32-.39,18,7.61,20.65,16.18a.67.67,0,0,1-1.19.57Z"/><path class="cls-4" d="M1108.36,902.91c.88-3.64,1.86-7.22,2.94-10.8a55.78,55.78,0,0,0,2.27-8.78c.8-6.36-3.38-11.36-7.67-15.52s-9.4-7.1-14.2-10.65c-4-2.94-7.21-6.53-8.09-11.53l3.51.73c-1.23,2.44-.92,5.12-.55,7.74s.84,5.5,1.25,8.25c.83,5.43,1.51,10.92,2.61,16.3a39.61,39.61,0,0,0,5.13,13.77,23.48,23.48,0,0,0,4.93,5.54,16.82,16.82,0,0,0,2.87,1.87,13.08,13.08,0,0,0,1.79.81l.56.13c.55.17.61.2.18.12l-.85,1,.07-.26A1.14,1.14,0,0,1,1107,901c1.37,1.47-.17,3.51-2,3.33-2.63-.26-5.5-2.42-7.44-4.08-4.74-4-7.69-9.74-9.43-15.62-1.93-6.5-2.69-13.34-3.71-20-.55-3.64-1.18-7.28-1.65-10.93-.4-3.09-.39-6.12,1-9,.89-1.78,3.21-1,3.51.73.93,5.31,6.11,8.59,10.27,11.33a65.27,65.27,0,0,1,14.3,12c3.61,4.25,6.14,9.53,5,15.21a45.17,45.17,0,0,1-3.31,8.9c-1.49,3.44-3,6.81-4.74,10.17-.12.24-.53.11-.46-.16Z"/><path class="cls-4" d="M1139.63,935a19.36,19.36,0,0,1-15.82-18c-.73-10.81,5.52-20.15,12.12-28.13a1.5,1.5,0,0,1,2.34.2c5.29,7.12,9.64,14.51,11,23.41.94,6,.91,18.42-7.44,19.26a1,1,0,0,1-.38-2c7.32-2.45,6.38-13.26,5-19.2A44.76,44.76,0,0,0,1136,891l2.1-.1c-5.6,7.19-11.91,15.17-12.2,24.73a19.37,19.37,0,0,0,13.77,19,.17.17,0,0,1-.07.33Z"/><path class="cls-4" d="M734.74,789.08c-1.59,4.25-4.11,8.13-6.11,12.2a77.77,77.77,0,0,0-5.4,13.8c-2.46,9-2.67,19.1,1.67,27.54,2.05,4,5.39,8,9.92,9.15,4.26,1.1,8-1.09,10-4.87,3.78-7.38,2.13-17.14.64-24.89a93.51,93.51,0,0,0-4.27-15.2c-1-2.59-2.07-5.14-3.28-7.63-1-2.14-2.5-4.12-2.72-6.54a.64.64,0,0,1,1-.55c2,1.42,2.85,3.71,3.89,5.85,1.16,2.4,2.21,4.84,3.17,7.33a92.55,92.55,0,0,1,4.68,16.57c1.53,8.25,3.27,18.85-1.17,26.55s-13.64,6.75-19.29.88c-6.7-6.95-8.18-17.74-7-26.95a59.88,59.88,0,0,1,5-16.79c2.51-5.64,5.36-11.69,9.26-16.5,0,0,.12,0,.1.05Z"/><path class="cls-4" d="M748.82,745.7c-8.57-3.45-17.25-5.49-26.55-4.67-9.1.8-19.12,4.12-25.9,10.47-3.31,3.1-7,8.36-4.39,13,2.34,4.09,7.89,4.61,12,3.51,5.16-1.39,9.83-4.75,14.39-7.43q7.23-4.24,14.5-8.43l7.51-4.31c1.76-1,4.3-3.16,6.49-2.62a1.86,1.86,0,0,1,1.53,2.33c-.44,2.18-3.4,3.24-5.12,4.19-9.9,5.44-19.77,11-29.78,16.18-6.82,3.56-16,6.59-22.32.29-6.11-6.12-1.21-14.53,4.36-18.92,14.36-11.31,37.74-14.2,53.55-4.2.32.2.12.79-.26.64Z"/><path class="cls-4" d="M754.4,748.89A94.92,94.92,0,0,1,776.48,766c5.37,5.53,13,13.19,11.86,21.67-1.09,8.11-10.56,11-17.58,10-7.57-1-14.34-5.75-18.75-11.86-6.24-8.63-8.18-19.47-10-29.73-.49-2.79,3.81-4,4.26-1.17,1.58,9.67,3.18,19.89,8.77,28.19,4.78,7.09,13.74,13,22.58,11,5.45-1.2,9-5.26,7.53-11-1.25-5-4.91-9.23-8.18-13.05a129.83,129.83,0,0,0-23-20.59c-.41-.3,0-1,.41-.7Z"/><path class="cls-4" d="M941.24,826.94c-24.51-23.37-43.36-52.29-55.84-83.72-1.79-4.48-3.38-9-4.83-13.65-.72-2.29-1.48-4.6-2-6.94-.48-2-1.2-4.19-.67-6.26a.66.66,0,0,1,1.09-.29c2.39,2.58,2.91,7.23,3.89,10.52,1.16,3.91,2.44,7.77,3.78,11.61a227.54,227.54,0,0,0,9.82,23.95A235,235,0,0,0,923,804.92a248.36,248.36,0,0,0,18.86,21.37.46.46,0,0,1-.65.65Z"/><path class="cls-4" d="M877.28,714c1-7.91,1.74-15.63-.06-23.5a43.42,43.42,0,0,0-11.06-20.78c-2.86-2.9-6.56-5.48-10.77-5.68-3.86-.18-7.92,1.91-9,5.83-1.2,4.48,2.27,9.25,4.53,12.84a121.42,121.42,0,0,0,7.57,10.74A128.19,128.19,0,0,0,879,714c1.94,1.55-.82,4.31-2.75,2.74a129.71,129.71,0,0,1-21.47-22.21,121.3,121.3,0,0,1-8.8-13.29c-2.19-3.88-4.17-8.5-2.59-13,2.74-7.77,13-8.46,19.23-5,7.69,4.31,12.92,13.06,15.73,21.17,3.2,9.27,4.19,20.72-.35,29.71-.16.32-.76.19-.72-.19Z"/><path class="cls-4" d="M891.25,745.1c-1.74-16.13,9.08-35.06,26-37.43,3.45-.49,8-.42,11,1.58,3.38,2.23,3,6.57,2.38,10.08-1.59,8.4-7.68,15.5-14.16,20.71a57.78,57.78,0,0,1-12.62,7.79c-2.1.93-4.23,1.76-6.41,2.48a39.38,39.38,0,0,1-3.85,1.11,10,10,0,0,1-3.73-.24c-1.43-.19-2.35-2.14-.81-3a23,23,0,0,1,2.74-1.63c1.08-.41,2.34-.54,3.46-.86a49,49,0,0,0,6.09-2.17,53.58,53.58,0,0,0,11.67-6.95,42.3,42.3,0,0,0,9.36-9.85,25.25,25.25,0,0,0,3-6.14c.54-1.69,1.65-4.92.83-6.65-1.57-3.28-9.55-1.71-12.1-1a25.31,25.31,0,0,0-10.94,6.91c-6.74,7.15-8.33,16.38-11.61,25.24a.19.19,0,0,1-.38,0Z"/><path class="cls-4" d="M812.16,734.19a0,0,0,1,1,0,0s0,0,0,0Z"/><path class="cls-4" d="M802.31,736.09c-1.82-9.2-4.73-18-10.59-25.42a48,48,0,0,0-23.66-16.2,47,47,0,0,0-14.66-2.09c-2.17,0-6.22-.18-7.36,2.08-.94,1.85.09,4.45,1,6.11,4.42,7.9,13,13.13,20.89,17,10.87,5.32,22.44,8.71,33.75,12.88,2.31.85,1.43,4.39-1,3.75a188.39,188.39,0,0,1-18.93-6.46c-5.35-2-10.7-4.14-15.85-6.65-8.7-4.25-18.92-10.68-22.89-20-1.61-3.78-1.73-8.73,2.43-10.89,2.1-1.1,4.78-1.07,7.08-1.11a52.78,52.78,0,0,1,8.52.53,50.21,50.21,0,0,1,29,14.57c8,8.31,13.86,20.06,13.57,31.75,0,.68-1.1.89-1.25.17Z"/><path class="cls-4" d="M845.91,752.18a1.84,1.84,0,0,1,2.45.94.77.77,0,0,1-.46,1.11,107.67,107.67,0,0,0-26,8.56c-6.59,3.22-14.23,7.89-16.19,15.51-1.48,5.77,3,15,10,12.78,3.88-1.2,7.27-4.75,10.07-7.57a62.22,62.22,0,0,0,7.76-9.6,63.51,63.51,0,0,0,6.06-11.69c1.46-3.74,1.65-8.7,5.19-11.05a1.14,1.14,0,0,1,1.55.41c2.45,3.85-.43,9.06-2,12.84a68,68,0,0,1-7,12.73,70,70,0,0,1-9.44,11c-3.45,3.24-7.52,6.95-12.33,7.78-7.93,1.37-13.89-6.19-14.6-13.4-.87-8.74,6.08-15.67,13-19.81a70.53,70.53,0,0,1,15.59-6.76,77.79,77.79,0,0,1,9-2.19c1.4-.25,2.8-.47,4.2-.65.65-.07,1.28-.14,1.93-.18l1,0c1.23.12,1.29-.06.18-.56-.07,0-.09-.08,0-.11Z"/><path class="cls-4" d="M906.55,793.57c-11-1.87-21.56-2.71-32.53,0-8.58,2.12-18.69,7.75-17.56,18.11s13.55,9,20.54,6a69.59,69.59,0,0,0,22.56-15.49c1.53-1.57,3-3.22,4.37-4.89,1-1.21,2.35-3.43,4.28-2.91,3.51.94-.48,5.57-1.57,6.86a70.85,70.85,0,0,1-20.86,16.51c-6.72,3.55-15.08,7-22.81,5.23-7.33-1.71-10.87-8.82-9.37-15.9,1.95-9.18,11.54-13.71,19.87-15.58,10.66-2.39,22.93-2.56,33.32,1.17a.44.44,0,0,1-.24.85Z"/><path class="cls-4" d="M953.45,840.11c-2-5.47-4.49-10.68-6.07-16.34a95.9,95.9,0,0,1-3.29-16.42c-1-10.16.11-22.09,6.33-30.57,2.58-3.52,6.39-6.25,10.93-6.11s8.38,2.87,11.09,6.23c6.65,8.23,7,20.1,4.44,29.94a65.4,65.4,0,0,1-7.42,17c-1.63,2.74-3.4,5.41-5.22,8-1.5,2.18-3,5.38-5.83,5.78a1.11,1.11,0,0,1-1.34-.76c-.36-1.84.28-3,1.32-4.56,1.46-2.1,3-4.18,4.35-6.32a87.39,87.39,0,0,0,7-12.48c3.87-8.69,5.64-19,2.35-28.12-1.44-4-4.21-8.22-8.38-9.81-4.39-1.68-8.15,1.11-10.46,4.68-5.11,7.89-6.17,17.91-5.58,27.08A102.9,102.9,0,0,0,950.27,824c1.22,5.31,2.19,10.76,3.7,16,.1.34-.4.46-.52.14Z"/><path class="cls-4" d="M968.42,865.11c-6.08-4.64-12.25-8.6-19.67-10.74-6.91-2-14.89-3-21.94-1.11-6,1.57-14,6.61-11.1,14,3.45,8.66,14.43,7.56,21.69,5.82,4.89-1.16,9.75-2.43,14.62-3.64l7.42-1.83c2.39-.59,5-1.61,7.43-1.36a1.67,1.67,0,0,1,.84,3.08c-2.13,1.33-4.8,1.55-7.22,2.08L952,873.23c-5.37,1.18-10.75,2.51-16.17,3.41-7.8,1.28-17.67.62-21.83-7.31-3.33-6.34.48-12.7,6.2-15.87,6.85-3.8,15.19-3.79,22.72-2.52,9.52,1.61,19.62,6.13,26.15,13.39.36.39-.13,1.15-.6.78Z"/><path class="cls-4" d="M992.41,901c-2.06-16.61,8.63-32.8,23.72-39.47,5.75-2.54,19.12-6.32,18.86,4.25-.11,4.33-3,8.27-5.44,11.64a76.06,76.06,0,0,1-21,19.91,74,74,0,0,1-7.11,4,15,15,0,0,1-3.3,1.48,7.48,7.48,0,0,1-3.19-.51.76.76,0,0,1-.45-1.1c.95-1.48,1.36-2.38,3-3.18s3.35-1.63,5-2.54a71.38,71.38,0,0,0,25-23.28c1.39-2.15,5.46-8.49.56-9.06-3.37-.39-7.65,1.34-10.64,2.73a41.07,41.07,0,0,0-15.77,12.91,46.37,46.37,0,0,0-8.7,22.22.23.23,0,0,1-.46,0Z"/><path class="cls-4" d="M929.6,927.36c-3.24-1.25-6-3.86-9.12-5.49a59.14,59.14,0,0,0-11.41-4.54,55,55,0,0,0-23.36-1.43c-3.71.6-8.12,1.38-11.35,3.42-3.46,2.18-3.35,6.28-1.33,9.44,4.89,7.66,15.72,4.81,23,3.32l15.63-3.22c5.37-1.1,10.75-2.47,16.2-3.1,2.25-.25,2.57,3.25.52,3.86-5.75,1.69-11.81,2.56-17.68,3.74-5.52,1.1-11,2.24-16.56,3.32-8.31,1.62-18.77,2.73-24.19-5.31-2-3-3-6.89-1.75-10.34,1.42-4,5.34-5.81,9.14-6.94a57.42,57.42,0,0,1,41.1,3.73c3.9,2,9.51,4.84,11.78,8.72.22.39-.16,1-.63.82Z"/><path class="cls-4" d="M979.8,937.36c.73-8-.25-16.29-4.18-23.38a34.32,34.32,0,0,0-17.57-15.24c-2.57-1-8.95-3.51-11.35-1.37-2.56,2.29.45,7.74,1.6,10A54.41,54.41,0,0,0,961.07,924a53.85,53.85,0,0,0,9.94,6.94c3.57,1.94,7.53,2.9,11.09,4.77a1.27,1.27,0,0,1-.64,2.36c-4-.28-8.15-2.44-11.64-4.3a58,58,0,0,1-10.32-7.06A56,56,0,0,1,944.28,906c-1.26-3-2.41-6.8-.55-9.77,2-3.25,6.2-2.66,9.42-2a36.18,36.18,0,0,1,21.67,13.57c6.24,8.35,8.84,19.64,5.51,29.63-.09.28-.56.25-.53-.07Z"/><path class="cls-4" d="M906.94,729a44.6,44.6,0,0,1-13.31,18.17c-1.6,1.27-3.87-1-2.26-2.26a62.45,62.45,0,0,0,8.1-7,73.51,73.51,0,0,0,6.62-9.23c.27-.42,1-.16.85.35Z"/><path class="cls-4" d="M868.66,691.25c2.46,3.81,4.8,7.58,7,11.6,1.73,3.22,4.6,6.84,4.78,10.56a.35.35,0,0,1-.52.3c-3.09-2.35-4.51-7-6.25-10.32-2-3.93-3.75-7.88-5.45-11.93-.13-.29.33-.45.49-.21Z"/><path class="cls-4" d="M782.06,712.84c2.06.46,3.73,2,5.32,3.36a72,72,0,0,1,5.79,5.4,67.85,67.85,0,0,1,4.45,5.13c1.16,1.5,3.22,3.22,2.7,5.24a.46.46,0,0,1-.54.31c-1.81-.29-2.5-2.3-3.53-3.68-1.52-2-3.13-4-4.85-5.9q-2.35-2.58-4.95-4.92c-1.6-1.44-3.58-2.7-4.67-4.58a.25.25,0,0,1,.28-.36Z"/><path class="cls-4" d="M724.74,748.11a24.85,24.85,0,0,1,11.57-3.74c3.17-.27,9-.44,11.15,2.26a.49.49,0,0,1-.22.8,7.76,7.76,0,0,1-4-.29,33.9,33.9,0,0,0-6.51-.65,39.54,39.54,0,0,0-11.85,2,.24.24,0,0,1-.18-.43Z"/><path class="cls-4" d="M761.29,769.43c-7-5.83-12.6-13-18.7-19.67-1.21-1.33.83-3.32,2-2,5.82,7,12.17,13.68,17,21.44.1.16-.11.3-.24.19Z"/><path class="cls-4" d="M733.65,820.82c2-4.94.14-10.57-1.17-15.43-1.15-4.26-3.11-10-1-14.18a1.93,1.93,0,0,1,3.58,1c-.15,2.51-.85,4.9-.62,7.45.25,2.85,1.06,5.63,1.54,8.44a28.05,28.05,0,0,1,.48,7A9.76,9.76,0,0,1,734,821c-.13.17-.48.08-.38-.17Z"/><path class="cls-4" d="M841.3,756.85c-6,2.51-10.09,6.66-13.34,12.19-1.16,2-4.35.06-3.05-1.78A30.7,30.7,0,0,1,841.06,756c.56-.17.74.64.24.85Z"/><path class="cls-4" d="M888.08,798.62c2.86-2.2,6.88-3.51,10.2-4.92,3.14-1.33,6.3-2.73,9.55-3.78,1.66-.53,3.79-.89,5.24.39a2,2,0,0,1,.14,3.08.54.54,0,0,1-.92-.38c-.1-1.86-9.48,2-10.5,2.35-4.22,1.37-9.13,3.52-13.58,3.77-.29,0-.32-.36-.13-.51Z"/><path class="cls-4" d="M959,808.17c-.66,4.8-2,9.47-2.47,14.31-.23,2.3-.36,4.63-.47,6.94-.1,2.15.19,4.4-.4,6.48a1.91,1.91,0,0,1-3.65,0c-1.32-4.26.14-10.12,1.1-14.38,1-4.7,2.39-9.63,5-13.72a.48.48,0,0,1,.88.37Z"/><path class="cls-4" d="M946,861.49a31.12,31.12,0,0,1,13.29-1.74c2.53.21,8.92.24,9.69,3.32a.67.67,0,0,1-.17.65c-1.13.92-1.82.72-3.25.4a53.06,53.06,0,0,0-6.76-1.3,61.61,61.61,0,0,0-12.59.21c-.93.11-1-1.27-.21-1.54Z"/><path class="cls-4" d="M1011.2,882.41c-2.68,2.43-5.73,4.4-8.23,7-2.67,2.84-4.36,6.24-6.4,9.51-.85,1.36-3.38.48-2.72-1.14,1.54-3.78,4.33-6.87,7.29-9.6s6.08-5.17,9.94-6c.11,0,.21.11.12.19Z"/><path class="cls-4" d="M1046,1031.89c-13.4-33.47-26.07-67.22-41.46-99.85-14.91-31.62-32-62.54-53.16-90.43-19-25-41.58-47.72-67.35-65.79-25.27-17.73-53.74-31-84.12-36.93-8.75-1.71-18-3.27-26.91-1.59A35.14,35.14,0,0,0,754.81,747c-9.7,9.61-14.61,23.22-18.22,36.09a96,96,0,0,1-3.21,9.62c-.49,1.24-2.71,1.24-2.56-.35.65-7.1,2.68-13.85,5.06-20.56a88.31,88.31,0,0,1,9-19c8.12-12.42,20.3-20.08,35.35-20.32,8.66-.13,17.38,1.55,25.79,3.43a201.39,201.39,0,0,1,22.75,6.49A229.66,229.66,0,0,1,872,762.86c27.48,16.67,51.76,38.51,72.32,63.15,22.79,27.31,41.22,58.11,56.59,90.12,16,33.22,29.55,67.77,41.81,102.51,1.52,4.3,3,8.62,4.53,12.93.27.75-.9,1-1.18.32Z"/><path class="cls-4" d="M1384.22,526.6c-6.61,6.08-13.44,11.88-19.84,18.21A261.35,261.35,0,0,0,1346,565a288.39,288.39,0,0,0-30.69,45.74,300.18,300.18,0,0,0-21.74,51,305.1,305.1,0,0,0-12.14,54.79q-1.79,14-2.24,28.15c-.14,4.74-.15,9.49-.1,14.24s0,9.37.25,14c.12,2.39,0,4.79-.11,7.18a.52.52,0,1,1-1,.09c-2-9.4-2.29-19.05-2.2-28.65s.63-18.91,1.61-28.3a306.13,306.13,0,0,1,32.38-108,278.87,278.87,0,0,1,30.23-46.62c11.41-14.17,24.18-27.45,38.32-38.46,1.78-1.38,3.64-2.63,5.52-3.85.16-.11.32.12.18.26Z"/><path class="cls-4" d="M1347.24,561.79c-1.32,2.24-3.73,3.3-5.84,4.55s-4.19,2.41-6.37,3.45a44.91,44.91,0,0,1-14.2,4.09c-10,1.14-20-.91-29.64-3.91-5.53-1.72-11-3.77-16.36-5.9-.77-.3-.54-1.38.05-1.69a83.11,83.11,0,0,1,56.39-8.06,81.86,81.86,0,0,1,15.93,5.24c1.68.75.5,3.55-1.18,2.75a78,78,0,0,0-55.74-4.49,75.66,75.66,0,0,0-14.79,6.29l0-1.7c11.94,4.52,24.2,9.19,36.92,9.79a45.63,45.63,0,0,0,18.3-2.7,63,63,0,0,0,8.23-3.89c2.55-1.42,5.21-3.84,8.16-4a.12.12,0,0,1,.09.18Z"/><path class="cls-4" d="M1337.38,578c-.58,6.44-.69,12.59.74,18.95a44.59,44.59,0,0,0,7.1,16.22c6.36,8.87,15.39,15.06,25.74,16.52l-1.14,2c-6.35-9-9.81-19.76-14.49-29.79-4.2-9-10-18.16-18.83-22.36-1.38-.65-.39-3,1-2.26,19.58,10.2,22.28,35.8,34.23,53a1.24,1.24,0,0,1-1.13,2,39,39,0,0,1-22.36-11.85,45.67,45.67,0,0,1-11.78-25.35,44.77,44.77,0,0,1,.66-17,.15.15,0,1,1,.29.05Z"/><path class="cls-4" d="M1316.62,605.39c-1.88,2.2-4.43,3.63-6.79,5.18s-4.51,3-6.8,4.44a46,46,0,0,1-13.89,6.26c-10.46,2.46-21.28.52-31.67-1.72a.91.91,0,0,1-.34-1.57,78.33,78.33,0,0,1,59.53-16.84c1.81.24,1.34,3.32-.48,3-20.69-3.43-41.31,2.21-58.09,15.26l-.34-1.58c10.12,2.3,20.82,4.15,31,1.77a46.24,46.24,0,0,0,14.12-6.44c2.21-1.4,4.4-2.85,6.6-4.28s4.41-3.07,6.91-3.82c.18,0,.37.17.22.33Z"/><path class="cls-4" d="M1309.93,621.23c.55,2.67.5,5.46.94,8.17a68.89,68.89,0,0,0,1.8,7.77,62.85,62.85,0,0,0,6.06,14.29,57.93,57.93,0,0,0,9.29,12.13,64.42,64.42,0,0,0,12.42,9.16l-1.26,1.26a58.25,58.25,0,0,1-5.28-14.9c-1-5.49-.15-11.31-3-16.23-4.92-8.4-10.8-16.86-19-21.63-1.31-.76-.34-3,1-2.24,8.08,4.9,14,13.92,19,22.08a17.92,17.92,0,0,1,2.66,6.48c.5,2.93.34,5.95.75,8.9a42.42,42.42,0,0,0,5.65,16.61,1,1,0,0,1-1.15,1.49c-7.25-3.14-13.79-9.49-18.64-16a60.09,60.09,0,0,1-10.57-23,56.66,56.66,0,0,1-1-7.1,24.39,24.39,0,0,1,.08-7.29.2.2,0,0,1,.39,0Z"/><path class="cls-4" d="M1295.72,648.13a62.17,62.17,0,0,1-21.66,24.25,48,48,0,0,1-32.8,7.11,1,1,0,0,1-.69-1.43c3.61-8.09,10-14.84,16.82-19.77a51.19,51.19,0,0,1,23.37-9.33,47,47,0,0,1,14.44.39c1.72.31,1.27,3.2-.46,2.87-15.84-3-32.76,2.95-44.09,15a60.11,60.11,0,0,0-8.39,11.75l-.69-1.42c11,2.79,23-.43,32.48-6.58,8.88-5.77,15.43-14,21.21-23.12.17-.27.6,0,.46.32Z"/><path class="cls-4" d="M1290.81,673a27.42,27.42,0,0,0,3.56,16.07,98.77,98.77,0,0,0,8.5,12.87c5.76,7.42,14.16,12.14,23.11,12.59-.22.77-.44,1.54-.65,2.31-7.1-7.63-9.06-18.3-13.16-27.75-2.09-4.8-4.9-9.43-9.14-12.31a15.75,15.75,0,0,0-6.07-2.55c-2.09-.36-4.16.46-6.15-.27-.37-.13-.38-.64-.2-.91,1.25-1.94,3.81-1.78,5.82-1.57a16.49,16.49,0,0,1,6.33,2.09,26.07,26.07,0,0,1,9.93,10.89c5.17,9.83,6.53,22.13,14.18,30.38.64.69.52,2.36-.65,2.3a33.62,33.62,0,0,1-25-13.52c-6.13-8-14.41-19.86-10.78-30.75.08-.25.41-.1.39.13Z"/><path class="cls-4" d="M1279.68,705.4a40.62,40.62,0,0,1-16.24,20.8,36,36,0,0,1-11.62,4.9c-5.77,1.29-11.72,1.06-17.59.83-1.24,0-1.49-1.95-.19-2.13,2.54-.34,4.37-2.29,6-4.26s3.17-3.94,4.81-5.86a78.19,78.19,0,0,1,10.53-10.53,39.31,39.31,0,0,1,12.57-6.95,30.72,30.72,0,0,1,6.77-1.38,24.23,24.23,0,0,1,3.3,0c.47,0,1,.05,1.42.1l1.1.14c.43-.06.44,0,0,.15l-.15,1-.06-.28.58.52-.2,0a.73.73,0,0,1-.39-1.14l.13-.15a.71.71,0,0,1,.72-.28,1.46,1.46,0,0,1-.39,2.85,34.91,34.91,0,0,1-3.64-.4,24.7,24.7,0,0,0-3.85.15c-5.63.66-11,3.31-15.53,6.76a76.42,76.42,0,0,0-12.25,12.14c-3.11,3.72-6.23,9.05-11.28,9.66,0-.7,0-1.41.07-2.11,5.52.31,11.11.61,16.57-.38a34,34,0,0,0,11.91-4.67,39.79,39.79,0,0,0,16-19.81c.23-.62,1.08-.18.87.44Z"/><path class="cls-4" d="M1280,733.61c1.48,4.42,3,8.35,5.94,11.94a36.55,36.55,0,0,0,10.33,8.67c8.7,4.93,18.6,6.36,28.17,7.75l-.6,2.07c-7.68-4.75-10.27-14.76-17.11-20.52-7.15-6-16.9-8.2-25.66-9.3-1.53-.19-1.12-2.92.41-2.56,8.77,2.11,17.82,3.5,25.39,9.23,3.64,2.75,6.29,6.41,8.76,10.34s5,8.33,9.06,10.83c1,.61.59,2.24-.59,2.06-10.12-1.48-20.69-3-29.75-8.6a36.29,36.29,0,0,1-10.08-9c-2.64-3.49-5.13-8.07-5.45-12.63a.61.61,0,0,1,1.18-.28Z"/><path class="cls-4" d="M1274.92,751c-2.5,7.08-8,12.11-14.37,15-8,3.72-17.11,3.83-25.76,3.44a.86.86,0,0,1-.68-1.37c5.55-6.37,11.64-12.78,18.51-17.49a24.17,24.17,0,0,1,10.74-4.23,32.53,32.53,0,0,1,5.92-.15c1.94.11,4.46,0,6.16,1.08a.92.92,0,0,1-.26,1.7c-1.74.29-3.56-.51-5.31-.71a27.11,27.11,0,0,0-6-.05,23.19,23.19,0,0,0-11.15,4.57,115.66,115.66,0,0,0-17.37,16.36l-.47-1.36c8.24.47,16.8.42,24.53-2.91a26.88,26.88,0,0,0,14.56-14.42c.27-.7,1.24-.2,1,.5Z"/><path class="cls-4" d="M1279.83,762.09c6,7.83,8.39,18.38,7.11,28.29-1.45,11.2-8.13,20.26-15,28.28a1.11,1.11,0,0,1-1.93-.36c-2.44-10.39-5.58-20.92-4.94-31.72a38.67,38.67,0,0,1,2.75-12.49c1.54-3.7,3.92-7.68,7.29-9.68.85-.51,2,.57,1.27,1.47-2.58,3-4.93,5.75-6.48,9.55a36.77,36.77,0,0,0-2.49,12.15c-.46,10.23,2.63,20.31,4.78,30.19l-2-.68c6.58-7.4,13-16.2,14.62-26.6a41.73,41.73,0,0,0-5.61-27.89.42.42,0,0,1,.67-.51Z"/><path class="cls-4" d="M1273.86,750.06c-5.74,3.56-12.11,6.18-18.14,9.13-3.08,1.51-6.19,3-9.24,4.53-2.67,1.36-5.48,3.33-8.52,3.47a.68.68,0,0,1-.13-1.34,30.2,30.2,0,0,0,9.28-3.21q4.35-2.08,8.68-4.21c5.93-2.87,11.84-6.23,18-8.48.06,0,.12.08.06.11Z"/><path class="cls-4" d="M1281.13,734.81c1.52.12,3.17,1.69,4.44,2.57,1.73,1.2,3.41,2.49,5.07,3.79,3.33,2.6,6.59,5.31,9.95,7.86a75.38,75.38,0,0,0,10.19,6.64,45.6,45.6,0,0,0,5.39,2.43c1,.37,2,.71,3,1a3.89,3.89,0,0,1,2.22,1,.28.28,0,0,1-.07.45c-1.39.71-3.63-.44-5-.93a40.07,40.07,0,0,1-5.28-2.35,72.21,72.21,0,0,1-9.94-6.5c-3.42-2.61-6.7-5.41-10-8.14-1.72-1.4-3.45-2.77-5.22-4.09-.79-.61-1.6-1.2-2.41-1.78a7,7,0,0,1-2.32-1.89s0,0,0,0Z"/><path class="cls-4" d="M1278.66,703.62c-.74,1.64-2.64,2.88-3.9,4.07-1.58,1.49-3.16,3-4.78,4.39a93.28,93.28,0,0,1-10.39,8,54.84,54.84,0,0,1-10.62,5.49,41.31,41.31,0,0,1-5.73,1.69c-1.79.39-4.06,1.06-5.86.51a.24.24,0,0,1,0-.44c1.59-.69,3.54-.58,5.24-.93a41.5,41.5,0,0,0,6.06-1.75,53.94,53.94,0,0,0,11.21-5.8,95.35,95.35,0,0,0,9.68-7.48q2.33-2,4.61-4.09c1.32-1.21,2.79-3.19,4.45-3.79a.06.06,0,0,1,.07.09Z"/><path class="cls-4" d="M1278.58,772c1.62,7.14.79,14.69-.6,21.75-.72,3.67-1.65,7.29-2.68,10.87a99.39,99.39,0,0,1-3.51,10.93.38.38,0,0,1-.72-.25c.8-3.33,2-6.55,3-9.82,1.11-3.71,2.12-7.47,2.91-11.28a89.12,89.12,0,0,0,1.56-22.19s0,0,0,0Z"/><path class="cls-4" d="M1290.65,673.63a42.79,42.79,0,0,1,3.57,4.91c1.28,1.84,2.52,3.7,3.76,5.56,2.56,3.8,5.13,7.6,7.66,11.43,3.85,5.83,8.14,12.53,14.92,14.44a.85.85,0,0,1,.61.94,1.06,1.06,0,0,1-.06.19.72.72,0,0,1-.8.45c-6.62-1.92-11-7.93-14.8-13.7-2.59-4-5.12-8-7.67-12-1.33-2.08-2.68-4.14-4-6.24a47.07,47.07,0,0,1-3.46-5.85c-.06-.14.13-.29.24-.18Z"/><path class="cls-4" d="M1290.23,654.11a173.12,173.12,0,0,1-22.48,12.82q-5.77,2.85-11.66,5.43c-2.06.89-4.12,1.76-6.2,2.61a39.44,39.44,0,0,1-5.86,2.19c-.68.16-.79-.92-.26-1.2a55.44,55.44,0,0,1,6-2.35q3-1.17,5.94-2.42,5.92-2.49,11.72-5.26c7.73-3.69,15.21-7.92,22.8-11.91,0,0,.09.06,0,.09Z"/><path class="cls-4" d="M1315.5,604c-9,3.08-18,6.16-27,9.07a96.7,96.7,0,0,1-12.69,3.33,50,50,0,0,1-6.68.75,19.75,19.75,0,0,1-6.81-.5c-.33-.11-.39-.69,0-.72,2.22-.11,4.47.27,6.7.19a48.36,48.36,0,0,0,6.68-.71A100,100,0,0,0,1289,611.9c8.76-2.81,17.49-5.74,26.25-8.53.37-.12.59.48.22.61Z"/><path class="cls-4" d="M1311.2,621.05a5.38,5.38,0,0,1,1.32,2.07c.56,1.15,1.14,2.3,1.72,3.45,1.06,2.06,2.15,4.11,3.23,6.17,2.16,4.1,4.37,8.18,6.58,12.25,4.39,8.1,8.74,16.23,13.58,24,.52.85-.67,1.76-1.18.91-4.81-8-9-16.36-13.43-24.55-2.21-4.09-4.42-8.16-6.57-12.28q-1.48-2.85-2.91-5.75c-.86-1.75-2.58-4.16-2.62-6.15a.17.17,0,0,1,.28-.15Z"/><path class="cls-4" d="M1345.12,562.3a24.48,24.48,0,0,1-7.82,1.85,56.12,56.12,0,0,1-8.6.41c-5.75-.17-11.4-.61-17.14-.17-10.69.82-21.58,2.93-32.22.15-1-.27-.72-2,.28-1.71,10.6,3.17,21.41,1.17,32.13.47,5.55-.37,11,.08,16.54.32a62.6,62.6,0,0,0,8.33-.2c2.84-.27,5.65-1,8.49-1.15,0,0,0,0,0,0Z"/><path class="cls-4" d="M1338.28,580.28c.53,2.56.7,5,1.77,7.44a46.6,46.6,0,0,0,3.63,6.39,105.16,105.16,0,0,1,7.1,13.09c2.08,4.58,4.13,9.27,7.31,13.13a23.84,23.84,0,0,0,4.86,4.51,17.21,17.21,0,0,0,2.56,1.4,9.91,9.91,0,0,1,2.81,1.27.79.79,0,0,1-.39,1.35c-1.74.41-4-1.24-5.45-2.24a24.48,24.48,0,0,1-4.85-4.64c-3.21-4-5.42-8.76-7.54-13.48-1.23-2.77-2.45-5.55-3.9-8.19-1.33-2.42-2.88-4.67-4.29-7-2.07-3.47-5.24-8.8-3.77-13,0-.08.13,0,.15,0Z"/><path class="cls-4" d="M1421.25,643.06c1.92-.27.31-11.65.13-13.11a80.3,80.3,0,0,0-2.59-12.66,77.45,77.45,0,0,0-4.65-12.1c-.93-1.94-2-3.84-3-5.7-.88-1.5-2.14-2.87-1.58-4.68a.57.57,0,0,1,.58-.36c2.19.26,3.1,2.81,4,4.52a75.63,75.63,0,0,1,3.34,6.83,81.89,81.89,0,0,1,4.81,15.15,78.58,78.58,0,0,1,1.72,15.37c0,1.08.27,8.82-2.84,7.07a.19.19,0,0,1,.08-.33Z"/><path class="cls-4" d="M1409.85,577.32a35,35,0,0,1,5.51,21.56c-.19,3-.52,6.85-3.39,8.57-3.24,1.95-6.48-.43-8.27-3.17-4.25-6.53-6.92-14.48-8.52-22-.41-1.92-.74-3.86-1-5.8a26.62,26.62,0,0,1-.5-6.47c.57-4.24,5.06-3.5,7.77-1.94a16,16,0,0,1,7,9.49,25.75,25.75,0,0,1,1,6.81c.06,2.25.26,4.85-.58,7a2.28,2.28,0,0,1-4.34-.45c-.41-1.75,0-3.62,0-5.41a24.67,24.67,0,0,0-.51-5.68,11.84,11.84,0,0,0-5.75-8.16c-.83-.47-.47-.22-.21.65a16.5,16.5,0,0,1,.26,2.73c.2,1.69.45,3.38.76,5a70.15,70.15,0,0,0,2.93,10.83,72.63,72.63,0,0,0,4.28,9.68c.55,1,2,4.08,3.55,3.48,1.29-.48,1.54-3.2,1.73-4.34a45.62,45.62,0,0,0-2.23-22c-.1-.3.31-.62.51-.31Z"/><path class="cls-4" d="M1433.91,614.14a50.44,50.44,0,0,0,13.8-3.89A40.87,40.87,0,0,0,1454,607c1.76-1.14,3.08-2.67,5.29-2.63a1.07,1.07,0,0,1,1,1.17c-.42,2.41-2.68,3.47-4.62,4.65a37,37,0,0,1-6.92,3.24,32.21,32.21,0,0,1-14.79,1.18c-.23,0-.26-.4,0-.43Z"/><path class="cls-4" d="M1433.79,698.34c-6.09-1.94-11.28-6.67-15.44-11.38a60.47,60.47,0,0,1-6-8c-1.68-2.67-3.51-5.5-4.21-8.6a1.4,1.4,0,0,1,.5-1.31,1,1,0,0,1,.64-.28,1.41,1.41,0,0,1,1.31.5c1.72,2.52,2.83,5.43,4.43,8.05a59.65,59.65,0,0,0,5.67,7.75c4.06,4.74,9,8.47,13.37,12.87.19.19-.07.46-.29.39Z"/><path class="cls-4" d="M1401.19,644.16a49.33,49.33,0,0,1,7.13,10.84c1.79,3.38,4.27,7.38,4,11.37-.22,2.7-2.11,5.44-4.89,6-3.77.74-5.88-2.89-7.46-5.67a43.83,43.83,0,0,1-4.32-11c-.76-3.07-2-7.66-1-10.75,1.09-3.26,5.17-3.44,7.43-1.34,1.37,1.28,1.86,3.11,2.4,4.84l2.16,7a2.47,2.47,0,1,1-4.72,1.4c-.73-2.8-1.36-5.64-2.2-8.4-.26-.86-1.18-3.38-1.67-1.38a10.73,10.73,0,0,0,.3,3.55,40.41,40.41,0,0,0,4.66,14.23c1,1.92,3.43,6,5.46,2.66,1.44-2.36-.35-5.64-1.25-7.88-2-5.11-4.79-10-6.61-15.15a.37.37,0,0,1,.62-.38Z"/><path class="cls-4" d="M1423.55,708.25s0,0,0,0,0,0,0,0Z"/><path class="cls-4" d="M1464.83,727.56c-19.84-7.28-33.16-25.7-38.8-45.51-6.89-24.14-1.73-49.4,8.6-71.78a189.77,189.77,0,0,1,10.77-19.89c4.07-6.6,8.49-13,14.06-18.4.42-.41,1.19.16.93.69-5.82,11.68-13.73,22.19-19.71,33.81s-10.77,24-13.07,37c-3.74,21-.39,43.36,11.49,61.32A60.88,60.88,0,0,0,1465,727a.3.3,0,0,1-.21.56Z"/><path class="cls-4" d="M1429.74,691.84c-4-10.7.3-22.84,7.76-31,8.77-9.51,21.3-14.21,33.51-17.5,2.3-.62,2.87,3,.59,3.65-11.12,3-22.71,6.58-31.44,14.46-8.23,7.43-13.06,19.1-9.72,30,.14.46-.52.78-.7.31Z"/><path class="cls-4" d="M1162.91,586.15a57.77,57.77,0,0,1,22.18-8.45,60.43,60.43,0,0,1,11.48-.67,50.61,50.61,0,0,1,5.76.58c1.79.27,3.73.5,5.1,1.8a.46.46,0,0,1-.2.77,10.39,10.39,0,0,1-4.6-.24c-2-.36-4-.58-6.05-.74a58.88,58.88,0,0,0-33.41,7.39.26.26,0,0,1-.26-.44Z"/><path class="cls-4" d="M1191.49,558.22A50.07,50.07,0,0,0,1195,544a72.66,72.66,0,0,0-.41-14.14c-.62-5.32-1.71-10.57-2.64-15.84-.45-2.52-.88-5.05-1.25-7.58s-.91-5-.41-7.39c.14-.66,1-.52,1.22,0,1,2.56,1,5.51,1.42,8.21s.89,5.28,1.36,7.92c.93,5.17,1.81,10.37,2.29,15.61.84,9.14.46,19.63-4.37,27.73-.21.35-.84.13-.69-.28Z"/><path class="cls-4" d="M1188.74,578.83c4.56,1.31,7.65,5.27,10.89,8.47a27.35,27.35,0,0,0,13.54,7.33c11,2.43,22-.53,32.63-3.13a93.32,93.32,0,0,1,19.91-3.13c-.11.79-.21,1.58-.32,2.37a70.14,70.14,0,0,1-29.22-11.5c-2.05-1.41-4-2.93-5.92-4.53a31.64,31.64,0,0,0-6.57-4.76,24.93,24.93,0,0,0-8.45-1.82,45.37,45.37,0,0,0-9-.1c-5.7.61-11.06,3.26-13.69,8.55-1.14,2.28-4.31.28-3.36-2,4.72-11.12,19.06-11,29-9.47a22.72,22.72,0,0,1,8.12,2.59,46.41,46.41,0,0,1,6.56,5.14,68.1,68.1,0,0,0,14.51,9.53,70.59,70.59,0,0,0,18.58,6c1.36.24,1,2.38-.32,2.37-12.24-.06-23.82,4.61-35.87,6.1-9.69,1.21-20.43.38-28.31-6-4.58-3.71-7.73-8.75-12.92-11.75a.17.17,0,0,1,.13-.31Z"/><path class="cls-4" d="M1195.32,522.74c4.91-12.73,11.2-26.6,4.75-40-5.35-11.14-15.9-21.56-14.23-34.87l3.28.88c-7,10.81-12.14,23.61-10,36.68,1.09,6.57,3.7,12.77,6.54,18.76,2.56,5.41,4.94,11.74,9.92,15.39,1.85,1.36,0,4.49-1.81,3.1-4-3-6.39-7.46-8.54-11.86a149.3,149.3,0,0,1-6.79-15.38,48.13,48.13,0,0,1-.54-31.85,72.44,72.44,0,0,1,8.17-16.61c.85-1.32,3.52-1,3.28.88-1.77,13.86,10.65,23.91,14.2,36.39,3.73,13.14-1.75,27.12-7.71,38.73-.14.28-.64.08-.53-.23Z"/><path class="cls-4" d="M1209.41,516.13c1.09-4.36,4.71-8.34,7.86-11.45a54.67,54.67,0,0,1,11.51-8.73,88.61,88.61,0,0,1,15-6.53c2.73-.92,5.51-1.72,8.3-2.48,2.32-.63,5.43-2,7.82-1.11a1,1,0,0,1,.44,1.65c-1.57,1.79-4.51,2-6.69,2.64-2.57.69-5.14,1.43-7.68,2.24a94.28,94.28,0,0,0-15.12,6A63.17,63.17,0,0,0,1219,506a51.85,51.85,0,0,0-4.94,4.78c-1.59,1.77-2.9,3.73-4.56,5.39a.07.07,0,0,1-.12-.07Z"/><path class="cls-4" d="M1221,505s0,0,0,0,0,0,0,0Z"/><path class="cls-4" d="M1204.48,531.66c1-2.56,3.48-4.27,5.74-5.72a29.8,29.8,0,0,1,8.46-3.69,28.35,28.35,0,0,1,9-.81c2.32.16,6.82.28,8.07,2.6a.74.74,0,0,1-.42,1.06c-1.21.44-2.39-.08-3.57-.4a26.46,26.46,0,0,0-4.34-.76,30,30,0,0,0-8.13.49,28.39,28.39,0,0,0-7.74,2.71c-2.49,1.32-4.49,3.33-7,4.58a0,0,0,0,1-.07-.06Z"/><path class="cls-4" d="M1217.22,524.93a29.45,29.45,0,0,1,7.29,2.64,61.69,61.69,0,0,0,7.7,3.78,24.36,24.36,0,0,0,16.71-.06c4.56-1.67,8.6-4.49,12.84-6.79a30.32,30.32,0,0,1,13.32-4l-.39,2.94c-10-3.66-19.52-8.29-30.28-9a37.51,37.51,0,0,0-14.91,1.85,28.63,28.63,0,0,0-6.75,3.49c-1.86,1.29-3.38,3.34-5.67,3.72-.45.07-1-.2-1-.76.23-2.43,2.14-3.73,4-5.13a32.07,32.07,0,0,1,6.76-3.85,38.77,38.77,0,0,1,16.3-2.73c11.33.42,22.62,4.69,32.71,9.64a1.51,1.51,0,0,1-.75,2.8c-4.95-.47-9.68,2.09-13.85,4.45-4.35,2.47-8.67,5.25-13.55,6.54a26.53,26.53,0,0,1-16.4-1c-5.18-2.06-9.24-5.91-14.17-8.35a.14.14,0,0,1,.1-.25Z"/><path class="cls-4" d="M1229.81,498.16a49,49,0,0,0,13.08,4.4,39.48,39.48,0,0,0,14.09-.36,36.87,36.87,0,0,0,12.86-5.35c3.88-2.59,7-6.07,10.36-9.26,3.53-3.36,7.43-6.4,12.29-7.46.1.76.21,1.52.31,2.29-11.73.08-23.32-7.62-35-3.67-5.58,1.89-10.88,5.42-15.78,8.65a61.21,61.21,0,0,0-6.92,5.19,77.2,77.2,0,0,0-6.16,6.5c-1,1.12-2.79-.31-2.06-1.59,2.95-5.13,8.33-9.05,13.17-12.27,5-3.33,10.42-6.77,16.1-8.88,12.51-4.63,24.18,3.53,36.63,3.74,1.26,0,1.65,2,.31,2.29-9.63,1.86-15.09,11.52-23.07,16.4a39.28,39.28,0,0,1-26.4,5.11c-4.9-.79-10-2.44-14-5.55-.11-.09,0-.24.15-.18Z"/><path class="cls-4" d="M1236.79,463.29c6.57-2,13.08-4.28,19.45-6.84,5.83-2.34,12.36-4.69,16.77-9.35,8.19-8.65,7.46-21.84,7.94-32.86.31-6.89,1.14-13.79,4.31-20l1.28,1.27c-9.69,7.05-19.59,13.87-29,21.23-8.5,6.63-15.11,14.83-17.67,25.48a41.16,41.16,0,0,0-.36,17.57c.28,1.41-1.9,2-2.17.6a43.75,43.75,0,0,1,5.27-30.19c5.88-9.92,15.88-16.37,25-23l18.06-13.25c.8-.59,1.65.52,1.27,1.27-5.89,11.61-3.08,25.13-5.33,37.53-1,5.3-2.81,10.54-6.3,14.72-4,4.75-9.76,7.14-15.36,9.37a196.17,196.17,0,0,1-22.79,7.55.55.55,0,0,1-.3-1Z"/><path class="cls-4" d="M1220.38,489.31c-.32-4.43-.31-8.87-.72-13.3a102.84,102.84,0,0,0-2.17-13.63c-.25-1.09,1.45-1.56,1.68-.46,1.8,8.81,3,18.5,1.38,27.42,0,.1-.17.07-.17,0Z"/><path class="cls-4" d="M1220.69,474.43a20.49,20.49,0,0,1,1.14-4.28c.51-1.23,1-2.47,1.52-3.69a84.41,84.41,0,0,0,3.18-7.92c.86-2.81,1.27-5.84.13-8.63a13.39,13.39,0,0,0-4.17-5.18c-6.14-5-17.33-8.87-15.73-18.78l1.74,1c-3.11,3-3.73,7.37-3.69,11.48a64.68,64.68,0,0,0,1.6,13.79,66.46,66.46,0,0,0,4.39,13.11,59.22,59.22,0,0,0,3.29,6.26c1.1,1.81,2.56,3.94,4.88,4.1,1.39.1,1.4,2.28,0,2.19-4.72-.33-7-5.43-9-9.11a67.46,67.46,0,0,1-5.71-15.3,59.38,59.38,0,0,1-1.82-15.87c.17-4.45,1.22-8.95,4.55-12.12a1.05,1.05,0,0,1,1.74,1c-.85,5.27,4,9.37,7.92,11.94,3.57,2.31,7.5,4.43,10.1,7.91,2.9,3.87,2.84,8.54,1.37,13-.84,2.52-2,4.94-3.05,7.36-.56,1.25-1.14,2.5-1.72,3.75a21.65,21.65,0,0,1-2.51,4.07.1.1,0,0,1-.19-.08Z"/><path class="cls-4" d="M1148.28,587.76c7.08.59,13.49-3.92,17.15-9.72a37.61,37.61,0,0,0,4.24-10c1-3.51,1.44-7.1,2.71-10.51a.24.24,0,0,1,.47.06,40.5,40.5,0,0,1-2.06,11.72,33.5,33.5,0,0,1-5.1,10.78c-4.12,5.43-10.52,9.29-17.5,8.34-.4-.06-.31-.74.09-.71Z"/><path class="cls-4" d="M1168.34,575c3-4.12,8.26-5.64,11.35-9.71,3.46-4.56,3.88-10.71,3-16.19a59.29,59.29,0,0,0-2.29-9,82.05,82.05,0,0,0-3-8.36,18.93,18.93,0,0,0-4.48-6.57c-1.79-1.6-3.93-2.73-5.19-4.85-2.89-4.87-.51-10.82-1.79-16h2.4c-2.54,6.23-5.87,12.14-8.24,18.44-1.22,3.21-2,6.6-1.41,10,.53,2.85,1.77,5.5,2.43,8.32a13.12,13.12,0,0,1-.37,7.89c-1.17,3-3.06,5.44-2.85,8.79.4,6.31,5.67,10.78,10.11,14.6,1.68,1.45-.77,3.9-2.43,2.44-4.61-4-9.48-8.49-10.64-14.8a13.88,13.88,0,0,1,1.36-8.88,22.33,22.33,0,0,0,2-4.71,10.63,10.63,0,0,0-.23-4.82c-.74-3-2-5.91-2.45-9a20.45,20.45,0,0,1,1.31-9.66c1.15-3.21,2.7-6.27,4.16-9.35,1.61-3.42,3.16-6.87,4.93-10.21a1.25,1.25,0,0,1,2.27.29,28.3,28.3,0,0,1,.31,7.69c-.13,2.53-.36,5.34.89,7.66s4.13,3.63,6,5.63a22.86,22.86,0,0,1,4,6.57,73.78,73.78,0,0,1,5.25,17.67c.78,5.21.37,10.69-2.3,15.34-3.11,5.43-9.09,7.41-13.74,11.17-.24.2-.71-.06-.48-.37Z"/><path class="cls-4" d="M1193,577.43a21.09,21.09,0,0,1,2.81,2.2,39.47,39.47,0,0,0,3.77,2.61,41.73,41.73,0,0,0,7.81,3.72,40.39,40.39,0,0,0,16.65,2c6.26-.5,12.4-1.83,18.68-2.11a82.19,82.19,0,0,1,9.8.16c1.63.12,3.25.29,4.87.51a10.47,10.47,0,0,1,3.64.8c.24.12.21.58-.08.62a17.88,17.88,0,0,1-4.6-.41c-1.74-.21-3.48-.35-5.23-.45a89,89,0,0,0-9.8,0c-6.59.37-13.09,1.88-19.7,2.06a40.15,40.15,0,0,1-16.13-2.94,38.44,38.44,0,0,1-6.83-3.61c-2-1.32-4.62-3-5.85-5a.14.14,0,0,1,.19-.19Z"/><path class="cls-4" d="M1196,577.29c8.76-4,18.59-2.75,27.56-.14,4.88,1.41,9.63,3.22,14.45,4.82,2.52.84,5,1.62,7.62,2.27,1.28.32,2.57.61,3.87.85a11.86,11.86,0,0,1,3.35.78.55.55,0,0,1-.13,1c-2,.43-4.55-.47-6.52-1-2.36-.58-4.68-1.28-7-2-4.73-1.56-9.39-3.38-14.14-4.91-9.31-3-19.53-4.86-29-1.59,0,0-.06-.05,0-.06Z"/><path class="cls-4" d="M1170.5,570.57c6.66-9,8.17-20.13,3.38-30.32-4.36-9.3-12.37-18.41-9.76-29.42.16-.68,1.22-.39,1.05.29-2.92,12.11,7.5,21.84,11,32.58,2.91,9,1,19.9-5.53,26.95,0,.05-.15,0-.1-.08Z"/><path class="cls-4" d="M1170.09,570.67c-2.84-2.92-4-7.61-4.64-11.49a112.09,112.09,0,0,1-1.18-13.57l-.84-15.87c-.27-5-1.15-10.68.36-15.49a.33.33,0,0,1,.64.08c.14,2.56-.11,5.12-.08,7.69,0,2.34.17,4.68.29,7q.39,7.58.79,15.15c.23,4.45.34,8.94.86,13.37a39.57,39.57,0,0,0,1.31,6.55,54.08,54.08,0,0,0,2.75,6.35c.08.16-.12.35-.26.21Z"/><path class="cls-4" d="M1192.79,520c-1.64-4.9-1.47-10.49-1.44-15.62,0-5.48.27-11-.11-16.44-.77-11-4.34-21.34-7.62-31.75-.43-1.34,1.68-1.92,2.1-.58,3.2,10.16,6.19,20.61,6.88,31.29.35,5.47,0,11-.15,16.43s.25,11.09.47,16.66c0,.07-.11.08-.13,0Z"/><path class="cls-4" d="M1191.73,507c-1.7-4.22-3.56-8.36-4.94-12.7a95.63,95.63,0,0,1-3.26-13.46,104.22,104.22,0,0,1-1.32-13c-.08-2.25-.12-4.51-.06-6.76,0-1.72-.24-3.95,1-5.31a.37.37,0,0,1,.57.07c1,1.57.35,3.82.26,5.58-.12,2.13-.17,4.28-.14,6.42a100.24,100.24,0,0,0,1.16,13.61c1.36,8.82,4.14,17,7,25.44.06.17-.2.23-.26.07Z"/><path class="cls-4" d="M1219.58,475.38a22.53,22.53,0,0,1-2.5-10.82c0-4.4,1-9.21-1.08-13.32a43.37,43.37,0,0,0-3.3-4.87,46.14,46.14,0,0,1-3.08-5.2,44,44,0,0,1-4-11.29c-.22-1.13,1.47-1.62,1.74-.48a50.34,50.34,0,0,0,4.19,11.73c1.75,3.38,4.33,6.34,5.77,9.87s1.08,7.48.84,11.28a38.58,38.58,0,0,0,1.68,13,.15.15,0,0,1-.28.12Z"/><path class="cls-4" d="M1218.39,469.17a124.27,124.27,0,0,1-10.12-18.45,53.42,53.42,0,0,1-3.18-9.93c-.62-3-1.54-6.76-.61-9.7a.41.41,0,0,1,.79,0,22.86,22.86,0,0,1,.51,4.53,44.83,44.83,0,0,0,.88,5.39,65.23,65.23,0,0,0,2.9,9.35,183.6,183.6,0,0,0,9,18.69.12.12,0,0,1-.2.12Z"/><path class="cls-4" d="M1239,458c5.59-3.89,11.94-6.62,17.66-10.34s10.42-8.48,13-15c4.36-11.05,3.9-25.05,13.9-33.13.6-.48,1.45.36.85.84-8.27,6.63-9.33,17.8-12,27.33a35.32,35.32,0,0,1-6.18,13,40.6,40.6,0,0,1-11.06,9,126.3,126.3,0,0,1-16.1,8.41c-.09,0-.14-.11-.06-.16Z"/><path class="cls-4" d="M1238.05,457.52a52.24,52.24,0,0,1,4-8.44q2.14-4.08,4.5-8.06a182.11,182.11,0,0,1,10.39-15.6,169.6,169.6,0,0,1,11.68-14.1q3.14-3.39,6.44-6.6c2.12-2.06,4.4-4.83,7-6.22.42-.22,1,.26.7.7-1.63,2.3-4.25,4.1-6.28,6.07q-3.32,3.21-6.45,6.6c-4.28,4.62-8.37,9.42-12.17,14.44a181.19,181.19,0,0,0-10.36,15.27q-2.39,3.94-4.57,8c-1.45,2.69-2.64,5.58-4.31,8.14a.29.29,0,0,1-.53-.22Z"/><path class="cls-4" d="M1230.88,499.39a8.49,8.49,0,0,1,3.06-1l3.8-.85c2.53-.57,5.08-1.07,7.62-1.6,4.83-1,9.7-1.89,14.47-3.14a73.39,73.39,0,0,0,13.88-5.33q3.29-1.62,6.57-3.29c1.93-1,4-2.37,6.13-2.84.21-.05.43.24.23.4-1.76,1.44-4.18,2.34-6.18,3.41-2.15,1.16-4.3,2.33-6.5,3.4a73.83,73.83,0,0,1-13.52,5.19c-4.88,1.29-9.86,2.19-14.8,3.2-2.54.52-5.08,1.06-7.64,1.55l-4.18.78a7.4,7.4,0,0,1-2.91.27c-.09,0-.09-.14,0-.19Z"/><path class="cls-4" d="M1234.07,493.53c3.18-3.21,7.75-5.48,11.78-7.42a71.43,71.43,0,0,1,13.14-4.77,72.32,72.32,0,0,1,27.79-1.63c.54.07.31.89-.22.82a71.25,71.25,0,0,0-27.62,1.73A74.05,74.05,0,0,0,1246,487c-2,.95-4,2-5.86,3.13s-3.83,2.6-5.87,3.69a.18.18,0,0,1-.22-.29Z"/><path class="cls-4" d="M1222.42,523.86c8.1,1.93,16.43,1.35,24.55-.11,7.88-1.42,15.68-3.31,23.49-5,.82-.18,1.17,1.07.35,1.25-15.68,3.5-32.52,8.79-48.59,4.64a.38.38,0,0,1,.2-.73Z"/><path class="cls-4" d="M1222.52,521.59c3.45-1.51,7.56-2.05,11.27-2.56a81.42,81.42,0,0,1,12.09-.71c4.18,0,8.37.34,12.55.58l6.28.37a18.2,18.2,0,0,1,6,.93c.24.1.29.46,0,.53-3.63.94-7.91,0-11.6-.32-4.18-.32-8.36-.69-12.55-.85a82.76,82.76,0,0,0-12,.36c-4,.44-7.93,1.61-11.94,2.15a.26.26,0,0,1-.13-.48Z"/><path class="cls-4" d="M1129.24,584.15c13,6.63,28.11,5.16,40.28-2.58s20.11-20.47,25.74-33.4c6.68-15.36,10.3-31.82,16.59-47.33a165.17,165.17,0,0,1,21-37.18c9.65-12.82,21-25,34.78-33.39.78-.47,1.71.66,1,1.29-11.16,9.79-22.15,19.7-31.36,31.4a161.68,161.68,0,0,0-22.58,38.67c-11.41,27.89-15.6,62.93-42.53,81.2-12.25,8.31-30.94,11.7-43.68,2.55a.71.71,0,0,1,.72-1.23Z"/><path class="cls-4" d="M1497.35,353.65c-8.83,1.26-17.82.93-26.69.25-8.6-.66-17.51-1.19-25.66-4.26a47,47,0,0,1-29.42-34.9,49.51,49.51,0,0,1,2-25.31c.84-2.41,4-1.22,4,1,.21,12.83,7.69,25.35,19.42,30.93,3,1.41,6.51,1.87,9.19,3.79s3.56,5.32,4.93,8.22c1.84,3.87,5.41,3.92,9.17,4.5a68.34,68.34,0,0,1,10.38,2.44,73.6,73.6,0,0,1,21.52,10.93c2.31,1.75-.46,5.46-2.6,3.61a56.73,56.73,0,0,0-19.4-11.46,60.47,60.47,0,0,0-11.5-2.63c-3.23-.42-6.58-.85-8.82-3.48s-2.48-7.45-5.67-9.37c-1.43-.87-3.23-1.09-4.81-1.58a33.85,33.85,0,0,1-4.77-1.9,38.11,38.11,0,0,1-14.81-12.95,36.72,36.72,0,0,1-6.36-21.5l4,1a43.07,43.07,0,0,0,5.69,41.21,44.6,44.6,0,0,0,18.12,14.18c7.52,3.16,15.89,4,23.92,5a208.72,208.72,0,0,0,28.16,1.59c.47,0,.47.74,0,.8Z"/><path class="cls-4" d="M1420.34,382.81c-3.61.17-5.72,3.75-7.6,6.4a69.15,69.15,0,0,0-5.35,8.85,55.72,55.72,0,0,0-5.78,19.18,44.67,44.67,0,0,0,2.52,20.3,40.39,40.39,0,0,0,12.44,16.91c3.06,2.58,6.26,5.13,8.5,8.5s3.51,7.5,6.63,10.49l-2.06.61c1.49-6.23-.53-12.29-3.52-17.75-3.06-5.61-7.87-10.4-10.06-16.46-2.13-5.89-.35-11.4,2.22-16.81a56.34,56.34,0,0,0,3.55-8.41,27.18,27.18,0,0,0,.84-9.42,41.66,41.66,0,0,0-2.1-10.48c-.55-1.61-1.23-3.15-1.8-4.75-.3-.84-.6-1.67-.91-2.51-.12-.34-.32-.75-.41-1.11-.15-.65-1-.64.19-.24l1.64,0,.69-1.28-.94-1.18.17.08a1.36,1.36,0,0,1,.61,2c-1.68,2.58-5.79-2.14-1.76-4.05a2.62,2.62,0,0,1,2.59.28c1.34,1.07,1.71,2.43,2.18,4,.52,1.74,1,3.46,1.38,5.24.65,3.11,1.41,6.2,1.87,9.35a33.15,33.15,0,0,1-2.15,18.52c-2.55,5.73-7,11.55-5.6,18.17.77,3.62,2.93,6.81,5,9.83,1.75,2.6,3.47,5.23,5,8,3.27,6,5.32,12.71,3.63,19.53-.23,1-1.44.84-2,.31-2.77-2.69-3.6-6.61-5.48-9.88-2.33-4.08-6.15-6.94-9.67-9.94a41.06,41.06,0,0,1-12.38-17.47c-4.85-13.46-2.64-28.18,3.86-40.68a65.61,65.61,0,0,1,6.26-9.88c2-2.59,4.31-5.33,7.84-5.37.64,0,.67,1.1,0,1.13Z"/><path class="cls-4" d="M1415.57,382.25c-20.6,9.67-57.37,20.29-71.64-4.92a22.84,22.84,0,0,1-2.29-17.78c.41-1.38,2.1-1.28,2.93-.46,4.39,4.3,9.18,9.05,15.36,10.52a14.39,14.39,0,0,0,7.89-.18c2.67-.92,4.23-3.09,6.56-4.51,4.81-2.95,8.49,1.18,12,4,4.47,3.53,10.93,3.13,16.23,4.5a51.29,51.29,0,0,1,9.18,3.31c3.12,1.49,6,3.41,9,5.11,2.8,1.58-.58,6.13-3.28,3.46-4.12-4.07-10.42-6.63-15.9-8.24s-11.67-1.39-16.43-4.68c-1.91-1.32-3.41-3.24-5.44-4.39-2.92-1.64-4.76,1.1-6.91,2.71-4.14,3.1-9.6,3.42-14.46,2.08-6.61-1.82-11.7-6.86-16.44-11.53l2.93-.46c-2.94,9.89,3.65,20.24,12.05,25.12,10.62,6.16,23.76,5.28,35.32,2.85a118.59,118.59,0,0,0,23-7.37.48.48,0,0,1,.38.88Z"/><path class="cls-4" d="M1366.22,430.79c-6.2,11-6,24.48-2.06,36.2,2.21,6.66,5.59,13.22,11.16,17.67s12.7,5,18.75,8.33c1.47.8.09,2.83-1.31,2.43a21.24,21.24,0,0,1-12.93-10.89c-3-5.95-2.13-12-.88-18.32a28.36,28.36,0,0,0,.74-9.62c-.56-4-2.81-6-5.56-8.71a11.73,11.73,0,0,1-3.73-7.5c-.18-1.38-.3-2.77-.58-4.14a3.7,3.7,0,0,0-1.87-2.55c-2.75-1.85.26-6,3-4.18,5.16,3.48,1.13,10.94,4.74,15.35,2.06,2.53,4.67,4.29,5.88,7.47a19.15,19.15,0,0,1,.9,8.47c-.55,6.5-3.56,12.94-1.6,19.47a18.72,18.72,0,0,0,12.87,12.55l-1,2.6c-5.08-2.68-10.86-3.66-15.85-6.53s-8.67-7.88-11.21-13.12c-4.49-9.25-6.86-19.87-5.63-30.15a39.39,39.39,0,0,1,5.23-15.5c.37-.63,1.27,0,.92.67Z"/><path class="cls-4" d="M1366.92,427.18c-4.51,4-10.45,6.67-16.12,8.53a59.77,59.77,0,0,1-17.49,3c-5.6.11-12-.35-17-3.15-5.81-3.25-8.22-9.83-9-16.12-.14-1.21,1.39-2.43,2.44-1.49a17.2,17.2,0,0,0,15.54,3.89c4.53-1.13,8.66-5.4,13.61-4.27,2.7.61,4.07,3,6.34,4.31a20.15,20.15,0,0,0,6.83,2.09c3.91.69,10.85,1,12.72,5.11a1.08,1.08,0,0,1-1.1,1.49c-2.39-.44-4.47-1.8-6.89-2.34s-4.76-.77-7.12-1.27a20.65,20.65,0,0,1-6.43-2.32c-2.2-1.32-3.71-4.12-6.56-3.83-2.43.25-4.71,1.85-6.87,2.87a19.42,19.42,0,0,1-7.36,1.87,20.14,20.14,0,0,1-14.52-5.08l2.44-1.49c.66,6.09,2.94,12.32,8.91,15,4.91,2.19,10.8,2.55,16.12,2.55a55.88,55.88,0,0,0,16.63-2.56c5.27-1.65,9.94-4.24,14.77-6.86.06,0,.1.06.06.09Z"/><path class="cls-4" d="M1350.19,457.29c-4.74,5-11.23,7.95-15.76,13.14a16.23,16.23,0,0,0-4,7.7c-.57,3.26.52,6.35,1.71,9.34a47.69,47.69,0,0,1,3.32,17.28c.1,5.72.31,11.77-2.17,17.07-.21-.26-.42-.53-.64-.79,3.55-.43,7.25-.88,9.51-3.93,1.79-2.41,2-5.94,2.48-8.86a81.18,81.18,0,0,0,.84-9.73c.07-2.95-.39-6.06.06-9s2.63-4.95,3.59-7.7a28.63,28.63,0,0,0,1.45-8.56,25.75,25.75,0,0,0-1.32-8.62c-.72-2.18-3.12-4.89-1.49-7.09a1.76,1.76,0,0,1,1.62-.73c1.33.28,2.8,2.34.93,3.09a1,1,0,0,1-1.3-.72l0-.18.69.86c.93-1,1.44-1,1.53,0,.1.35.19.69.28,1,.2.78.41,1.56.58,2.34a39.94,39.94,0,0,1,.74,4.19,40.62,40.62,0,0,1,0,8.25,25.45,25.45,0,0,1-2.3,8.95c-.7,1.36-1.83,2.52-2.36,4a15,15,0,0,0-.41,5.35,69.72,69.72,0,0,1-1.9,19.37c-.71,2.61-1.87,5.33-4.17,6.89-2.61,1.77-5.84,2-8.88,2a.6.6,0,0,1-.57-.93c1.83-3,2-6.58,2-10,0-3.28,0-6.58-.22-9.86a38.57,38.57,0,0,0-1.75-9.76c-1-2.81-2.33-5.47-3-8.37-3.19-13.4,12.66-19.34,20.07-27,.59-.62,1.41.42.83,1Z"/><path class="cls-4" d="M1485.44,352.59a107.18,107.18,0,0,1-25.62-6.72c-7.72-3-16.34-6.77-19.94-14.76-.07-.14.15-.28.23-.14,4.66,7.49,13.09,11.34,21,14.48a143.21,143.21,0,0,0,24.36,7c.1,0,.09.18,0,.17Z"/><path class="cls-4" d="M1415.54,382.63c1.12,2.19.81,4.55.16,6.83-.93,3.25-2,6.43-2.88,9.7a202.24,202.24,0,0,0-4,21.18.13.13,0,0,1-.25,0,94,94,0,0,1,2.68-18.79q1.15-4.75,2.66-9.42c.95-2.93,2.42-6.17,1-9.19-.19-.42.45-.69.66-.28Z"/><path class="cls-4" d="M1413.7,381a110.43,110.43,0,0,1-20,2.34c-3.06.12-6.14.08-9.2,0-3.21-.12-6.7-.05-9.69-1.32a.27.27,0,0,1,.05-.51c3-.54,6.1,0,9.11.21,3.24.2,6.47.26,9.71.29,6.67.05,13.3-.55,20-1.09a.06.06,0,0,1,0,.11Z"/><path class="cls-4" d="M1366.36,431.13c-.39,5.1-.62,10,.4,15.08a44.2,44.2,0,0,0,2.18,7.31c.92,2.31,2.24,4.46,3.06,6.8a.3.3,0,0,1-.51.31c-3.37-3.61-4.89-9.53-5.75-14.27a36.6,36.6,0,0,1,.14-15.35c.08-.28.5-.15.48.12Z"/><path class="cls-4" d="M1365.05,427.89c-1.93,1.21-4.68,1.59-6.89,2a58.68,58.68,0,0,1-8.66,1.05c-5.3.26-11,.26-15.94-1.87a.22.22,0,0,1,.1-.43c5.37,0,10.66,1,16,.89a76.34,76.34,0,0,0,8-.62c2.39-.3,5-1.16,7.34-1.1,0,0,0,0,0,.05Z"/><path class="cls-4" d="M1339.45,479.62c12.68-39.24,39.54-73.28,74.1-95.63a177.86,177.86,0,0,1,26.94-14.34c10.45-4.45,21.35-7.67,32.22-10.89,11.09-3.28,22.21-6.61,32.77-11.36a141.51,141.51,0,0,0,27.81-16.61,143.57,143.57,0,0,0,25.86-25.57,179.7,179.7,0,0,0,10.32-14.91,151,151,0,0,0,9.24-16c.48-1,2.07-.45,1.65.62a132.58,132.58,0,0,1-6.47,14.94,114.74,114.74,0,0,1-8.62,13.5,148.13,148.13,0,0,1-21.94,23.79,144.67,144.67,0,0,1-26.28,18.22A168.86,168.86,0,0,1,1485.77,358c-11.17,3.39-22.5,6.23-33.55,10a175.68,175.68,0,0,0-28.71,12.65,183.45,183.45,0,0,0-83.68,99.18c-.09.25-.46.1-.38-.14Z"/><path class="cls-4" d="M1010,760.41c-4.6-3.8-8.55-8.47-13.44-12a62.11,62.11,0,0,0-16.26-8.33l1.64-2c2.87,6.33,6.23,11.57,11.27,16a80.47,80.47,0,0,0,7.44,5.77q2,1.38,4.07,2.7l1.69,1.08c.41.26.81.51,1.23.75-.16.48-.16.53,0,.13l.76.77-.28.11a.4.4,0,0,1-.56-.42,1.32,1.32,0,0,1,.42-.91,1.46,1.46,0,0,1,2.19.19l.2.28a2.16,2.16,0,0,1,.07,2.34c-1.73,3.45-5.85.09-7.79-1.14a96.58,96.58,0,0,1-10.31-7.34c-5.71-4.76-11.64-11.34-12.87-19.43a1.38,1.38,0,0,1,1.74-1.62,64.78,64.78,0,0,1,16.7,8.91c4.79,3.55,9.94,7.88,12.79,13.44.23.46-.34,1-.71.66Z"/><path class="cls-4" d="M1015.29,755.18c.32-4,1.53-8,2.35-11.95.9-4.29,1.67-8.6,2.24-13a134.89,134.89,0,0,0,1-26.18l2.42.93c-5.46,3.92-5.14,13.5-5.79,19.76q-.65,6.33-1.18,12.67c-.29,3.49.08,7.86-1.48,11a1.13,1.13,0,0,1-2-.17c-.66-2-.35-3.8-.19-5.9.2-2.5.42-5,.64-7.49q.66-7.2,1.48-14.39c.74-6.56,1.16-14.44,7-18.18,1.1-.7,2.09.49,2.11,1.6a156.72,156.72,0,0,1-1.57,27.12c-1.21,7.9-2.66,17.42-6.82,24.19,0,.06-.11,0-.1,0Z"/><path class="cls-4" d="M1002.2,713.55c-.61-1.62-.19-3.2-.09-4.95.13-2.15.17-4.29.21-6.44a127.69,127.69,0,0,0-.47-14.11,119.22,119.22,0,0,0-1.88-12.66q-.65-3.14-1.45-6.21a21.39,21.39,0,0,0-1.29-4.16,13.88,13.88,0,0,1-1.21-2.3l3.77-.78a128.64,128.64,0,0,0-.17,21.32c.25,3.27.63,6.54,1.15,9.77s1.44,5.54-.14,8.39a.67.67,0,0,1-1,.2c-2.57-1.7-2.65-4.6-3.13-7.69q-.84-5.4-1.19-10.87a124.11,124.11,0,0,1,.51-21.46c.21-2,3.09-2.93,3.76-.78.5,1.62.39,3.07.84,4.7q1,3.57,1.74,7.22a113.56,113.56,0,0,1,2,14.26,118.64,118.64,0,0,1,.26,13.73c-.1,2.5-.36,5-.68,7.48-.24,1.84-.21,3.87-1.3,5.36a.16.16,0,0,1-.29,0Z"/><path class="cls-4" d="M1000.56,709.29c-12.81,4.06-27.36,3-40.19.23-1.42-.3-2.28-2.76-.54-3.47a44.73,44.73,0,0,1,36.5.51c2,.94,4.26,1.83,4.61,4.54a6.24,6.24,0,0,1-2.38,5.56c-4.16,3-7.72-2.13-6.12-6.47a2.55,2.55,0,0,1,2.49-1.75,4.67,4.67,0,0,1,2.34.35c.54.29.8,1.38.05,1.65-.41-.64-.52-.7-.32-.18a2.31,2.31,0,0,1,.12,1,6.91,6.91,0,0,1-.39,1.37l-.55-.42c.43-.53.24-.76-.59-.7a10.41,10.41,0,0,0-2.08-1A39.37,39.37,0,0,0,983,707.26a42.75,42.75,0,0,0-21.81,2.09c0-1.13-.07-2.25-.11-3.38a103.57,103.57,0,0,0,20,2.82c6.5.28,12.95-.21,19.45-.32.45,0,.41.7,0,.82Z"/><path class="cls-4" d="M984,685.76c.44-.47-4.33-7.69-4.76-8.35a80.17,80.17,0,0,0-5.74-7.73c-4.15-4.94-9.18-10.49-15-13l2.34-2.81c1.35,3.34,2.45,6.57,4.41,9.56a50.15,50.15,0,0,0,6.24,7.63,85.94,85.94,0,0,0,7.46,6.59c1.32,1.06,2.67,2.09,4,3.11.55.42,1.13.82,1.66,1.27.25.22,1.59,1.18.84,1l-1.13.59.18-.27-.1,1.22,0-.18,1-.05-.17.16a.66.66,0,0,1-1.11-.43v-.23a.92.92,0,0,1,.64-1c2.67-.67,2.14,3.6-.35,3.81-1.88.16-3.8-2-5.21-3.07-2-1.56-4-3.16-5.94-4.85-6.67-5.82-14.33-13.86-15.87-23.59a1.9,1.9,0,0,1,3.26-1.72c3.27,3.5,7.1,6.31,10.41,9.8a79.31,79.31,0,0,1,8.78,11.11q1.73,2.63,3.26,5.39c.81,1.44,2.43,3.58,2.43,5.35,0,1.57-1.76,2.58-2.14.73a.31.31,0,0,1,.14-.3l.27-.17c.22-.15.38.2.22.38Z"/><path class="cls-4" d="M1019.58,558.15c-1.07-7.44-1.59-14.91-3.12-22.27-.78-3.75-1.7-7.47-2.77-11.12-.51-1.79-1.07-3.56-1.66-5.31-.52-1.52-1-4-2.07-5.14-.93-1-.85-.46-.78.87a19.61,19.61,0,0,0,.47,2.52c.35,1.77.72,3.52,1.11,5.27.85,3.74,1.8,7.46,2.86,11.13,2.17,7.46,5.46,14.39,7.74,21.76,1,3.22-2.82,5.31-4.39,2.33-2.27-4.3-3.64-9.32-5.09-14s-2.75-9.29-3.87-14a129.37,129.37,0,0,1-2.74-13.71c-.38-3,.15-7.07,3.64-7.29,3.29-.21,5,3.56,6,6.41,1.52,4.34,2.84,8.77,4,13.26,2.29,9.27,4.18,19.47,3.72,29.15a1.51,1.51,0,0,1-3,.19Z"/><path class="cls-4" d="M1031.58,588.28c2.88-6.58,6.54-12.46,8.64-19.45a71.06,71.06,0,0,0,2.91-21.9l3.14,1.24a74.32,74.32,0,0,0-9.39,36.73c0,2.77-4,2.46-3.92-.33A82,82,0,0,1,1043.45,546c1-1.79,3.11-.47,3.14,1.24a74.3,74.3,0,0,1-3.22,22.86c-2.09,6.86-5.12,14.55-10.12,19.47a1.08,1.08,0,0,1-1.67-1.28Z"/><path class="cls-4" d="M1028.78,588.71c-2.85,1.9-6.6,2.47-9.83,2.92a44.72,44.72,0,0,1-10.34.24c-7.28-.68-13.73-3.32-20.4-6.32-1.23-.55-1.58-2.87-.11-3.45,6.38-2.55,14.49-1.71,21-.38s14.48,3.54,19.77,8.29c2.05,1.84.38,6.28-2.36,4.89-3-1.54-5.81-3.61-8.88-5.08a44.71,44.71,0,0,0-9.24-3.31,50.24,50.24,0,0,0-9.69-1.26c-3.35-.11-6.68.52-10,.4.39-1.13.77-2.27,1.16-3.41,5.5,4.36,12.77,6.48,19.47,7.26a51.94,51.94,0,0,0,10.28.19c3.07-.27,6.11-1.21,9.17-1.29.17,0,.16.24,0,.31Z"/><path class="cls-4" d="M1041.21,634.63c-2.51-6,1.58-12.76,4.38-17.77,3.91-7,8-13.88,11.87-20.9a2.5,2.5,0,0,1,3-1c3.35,1.11,5.43,4.46,5.84,8.21.44,4.08-1.27,7.93-3.66,11a76.27,76.27,0,0,1-9.53,9.49c-3.56,3.16-7.43,7-11.67,8.95-2.51,1.14-4.25-2.14-2.43-4.2,2.25-2.53,5.11-4.38,7.66-6.54s5.34-4.65,7.89-7.12c2.27-2.19,4.81-4.49,6-7.59,1-2.52.68-6-2-6.91l3-1c-3.79,5.68-7.45,11.43-11.15,17.17s-8.11,11.07-9,18.27c0,.1-.14.14-.18,0Z"/><path class="cls-4" d="M1035.42,634.63c-5.32-4.28-10.29-9-16-12.62a68.38,68.38,0,0,0-18.74-8.61l2.16-1.52c-1.23,6.59,5.86,10.75,10.18,13.4,6.12,3.77,12.55,6.51,18.92,9.68,2.56,1.27,1.16,5.55-1.58,4.58-7.86-2.77-15.68-7.46-22.64-12.27-5-3.43-10.14-9.07-8-16.13a1.6,1.6,0,0,1,2.07-1.06c12.38,5.08,26,12,34.2,23.84.29.42-.18,1-.59.71Z"/><path class="cls-4" d="M1039.06,671c6.43-10.53,15-18.22,24.11-25.85a2.56,2.56,0,0,1,4.18,2.36c-1.72,14.44-13.38,26.41-26.47,27.74a2.7,2.7,0,0,1-2.87-1.59c.23.43-.61-.66-.53-.55a1.1,1.1,0,0,1,0-1.22s.69-1,.5-.5a2.79,2.79,0,0,1,2-1.87c11-1.18,20.39-10.41,22.29-22.45l3.63,2.76c-9.51,5.84-17.84,14.14-26.16,21.83-.4.37-1-.19-.66-.66Z"/><path class="cls-4" d="M1036.13,675.36c-2.29-1.73-4.1-4.48-6-6.71-2.13-2.54-4.28-5-6.55-7.44a127.3,127.3,0,0,0-15.08-13.51l2.08-1.08c.09,7.7,7.92,13.93,12.35,18.79l8.48,9.29c2.93,3.21,6.18,6.24,8.86,9.69l-3.33,2.37c-.6-1.08-.28-1.92-.68-2.9s.58-1.75,1.27-1.18c.53.44.73.08,1.31.4a6.09,6.09,0,0,1,1.43,1.31c1.57,1.71-1,4.83-2.68,3.21-3.5-3.35-6.56-7.37-9.8-11l-9.44-10.65c-5-5.58-10.48-11.13-10.39-19.53a1.33,1.33,0,0,1,2.08-1.08,132.34,132.34,0,0,1,14.55,13.6c2.23,2.42,4.4,4.92,6.43,7.54s4.38,5.43,5.4,8.61c.07.2-.13.42-.31.29Z"/><path class="cls-4" d="M1116,636.15c5.87-8.14,13.53-15.14,21-21.54,2.8-2.41,6.15-4.6,9.82-4.25a8.81,8.81,0,0,1,7.25,5.95c1.28,3.86-.84,7.16-3.59,9.43a56.62,56.62,0,0,1-10.7,6.91,59.3,59.3,0,0,1-11.73,4.38c-3.49.89-8.47,2.41-11.92,1.15-1.7-.62-1.83-3.53-.14-4.33,2.69-1.28,6.12-1,9-1.61a50.75,50.75,0,0,0,9.4-2.89,56.85,56.85,0,0,0,8.2-4.24c1.8-1.13,7.55-4.05,7.07-6.84-.63-3.6-5-3-7.13-1.87-3,1.55-5.63,4.18-8.25,6.42-5.82,4.95-11.45,10-18,13.61-.15.08-.32-.13-.21-.28Z"/><path class="cls-4" d="M1098.44,655.86c5.61-2.53,12.92-.91,18.41,1a41.62,41.62,0,0,1,9.38,4.76c2.14,1.44,5.64,3.5,5.9,6.62a4.22,4.22,0,0,1-4.42,4.59c-3.63,0-7.54-1.28-11.11-2-8.15-1.54-16.28-3.14-24.42-4.74-2.93-.57-2.54-5.71.44-5.15,6.07,1.15,12.14,2.26,18.2,3.44l9.34,1.85,4.68.92c.69.14,1.38.33,2.08.41.42.05,2-.17.73.52-.82.47-.76.19-1.54-.44-.47-.39-1-.76-1.44-1.13-1.1-.82-2.23-1.61-3.38-2.34a44.88,44.88,0,0,0-7.58-3.75,59.54,59.54,0,0,0-7.47-2.28c-2.57-.61-5.29-.79-7.78-1.67a.39.39,0,0,1,0-.69Z"/><path class="cls-4" d="M1063.75,697.42a58.14,58.14,0,0,1,11-2.56,51.78,51.78,0,0,1,10.71.19,68.09,68.09,0,0,1,21.23,6.11c1.74.82,2.1,3.78.15,4.72-11.65,5.62-24.7-.91-35.81-4.78-2.85-1-1.19-5.79,1.66-4.83,5.46,1.84,10.91,3.91,16.46,5.41,5.17,1.39,10.67,2,15.73-.42L1105,706a67.14,67.14,0,0,0-19.93-6.68,90.64,90.64,0,0,0-21.25-1.27.31.31,0,0,1-.1-.61Z"/><path class="cls-4" d="M1045,735.55c-3.2-4.92,12.77-4.8,14.41-4.68a43.88,43.88,0,0,1,23.07,9.25c1.62,1.25,1.23,4.86-1,5a105.88,105.88,0,0,1-39.77-4.57c-3.18-1-1.34-6.31,1.83-5.33a107.29,107.29,0,0,0,37.74,4.37q-.87,2.55-1.72,5.08a45.47,45.47,0,0,0-16.19-8.62c-1.63-.46-18.48-3.48-18-.7,0,.18-.19.31-.3.16Z"/><path class="cls-4" d="M1094.4,658.65c.13-3.89,1.47-7.89,2.11-11.73a87,87,0,0,0,1.18-11.5,77.4,77.4,0,0,0-.66-12.65q-.36-2.6-.88-5.16c-.15-.72-.93-5.44-1.52-5.53-1.09-.18-3.06,10.32-3.22,11.39a79.09,79.09,0,0,0-.7,11.5c0,4,.22,8.08.42,12.11.19,3.85,1,8-.31,11.71a1.16,1.16,0,0,1-2.19.12c-2-4.24-1.4-10.51-1.61-15.26s-.38-9.52-.13-14.28a55.73,55.73,0,0,1,2.3-13.83c.85-2.71,2.27-8.12,5.7-7.79s3.89,6.39,4.42,9.19a81.88,81.88,0,0,1,1.36,14,79.16,79.16,0,0,1-1.17,14.66c-.76,4.38-1.82,9.77-4.45,13.31a.36.36,0,0,1-.65-.26Z"/><path class="cls-4" d="M1014.77,793.19c.93-6.23,2.9-12.41,4.75-18.39q2.91-9.42,6.49-18.56a287.9,287.9,0,0,1,16.41-34.9,284.25,284.25,0,0,1,45-60.55c4.84-4.95,9.86-9.71,15-14.23q4.07-3.55,8.24-6.9a50.16,50.16,0,0,1,4-3.1A15.91,15.91,0,0,1,1119,635c.87-.26,1.54,1,1,1.74a14.57,14.57,0,0,1-5.82,6q-3.71,2.89-7.3,5.92-7,5.93-13.65,12.37a271.06,271.06,0,0,0-24.5,27.29A294.3,294.3,0,0,0,1030.39,753q-4.26,9.85-7.86,20c-2.4,6.75-4.22,13.77-6.74,20.45a.53.53,0,0,1-1-.24Z"/><path class="cls-4" d="M1016.86,787.86a293.06,293.06,0,0,0,13.47-178.15q-3-12.37-7.14-24.34c-2.72-7.85-6.13-15.31-9.08-23-1-2.49,2.24-4.1,3.43-1.81,3.49,6.64,6.06,14,8.53,21.2s4.6,14.32,6.47,21.63a279.87,279.87,0,0,1,7.61,44.72,295,295,0,0,1-6.07,90.64,263.22,263.22,0,0,1-16.44,49.47.42.42,0,1,1-.78-.31Z"/><path class="cls-4" d="M1014.18,799.15c.76-19.84-.49-39.19-5.65-58.19a159.21,159.21,0,0,0-24.82-52c-1-1.39.94-3.21,2-1.82a159.13,159.13,0,0,1,24.82,52.41c5.11,19,7.51,39.88,4.86,59.69a.59.59,0,1,1-1.17-.1Z"/><path class="cls-4" d="M1220.76,701.76c-.27,1-1.46,1.55-2.36,2a25.55,25.55,0,0,1-3.32,1.43,21.15,21.15,0,0,1-7,1.3c-3.59,0-10.11-1.85-9.5-6.62.35-2.7,3.24-3.68,5.5-4.33a25.67,25.67,0,0,1,7.65-1,26.27,26.27,0,0,1,7.61,1.27c1.72.56,5,1.64,4.06,4.13-.9,2.29-5,2.92-7.12,2.9a11.8,11.8,0,0,1-7.51-2.8c-1.5-1.24.67-3.36,2.15-2.12a8.62,8.62,0,0,0,6,1.89,8.29,8.29,0,0,0,3.1-.78,7.87,7.87,0,0,0,.7-.39c.11.79-.06,1-.48.69a6.85,6.85,0,0,1-1.66-.62,23.83,23.83,0,0,0-13.54-.38c-1,.26-2.63.54-3.28,1.36s0,1.63.66,2.2a9,9,0,0,0,5.7,1.75,18.81,18.81,0,0,0,6.29-1.15c1-.37,2.07-.8,3.1-1.23.84-.35,1.74-.93,2.65-.62a.87.87,0,0,1,.61,1.06Z"/><path class="cls-4" d="M1222.72,650.48c1.45-.08,1,1.82.57,2.62a17,17,0,0,1-2.42,2.75c-.77.81-1.56,1.63-2.41,2.37-1.7,1.49-3.71,2.68-6,2.51a5.22,5.22,0,0,1-4.63-3.18c-1.78-4.83,3.81-8.38,7.08-10.69,3.87-2.75,8.61-4.79,13.39-3.35a1.42,1.42,0,0,1,.85,2.06c-2.4,3.53-5.79,7.24-9.78,9a1.38,1.38,0,0,1-1.34-2.41,46.6,46.6,0,0,0,4.8-3.49,25.2,25.2,0,0,0,3.88-4.49l.85,2.07c-3.07-.93-6.18,0-8.89,1.52a37.39,37.39,0,0,0-4.19,2.87,13.73,13.73,0,0,0-3.68,3.44c-.71,1.17-.88,2.8.43,3.61a4.45,4.45,0,0,0,4.35-.27,22.75,22.75,0,0,0,3.88-3c.61-.53,4-2.65,3.24-3.77,0-.05,0-.11.07-.12Z"/><path class="cls-4" d="M1175.9,684.85c1.11.32,3-6.26,3.29-7.1a48.14,48.14,0,0,0,1.7-7.52,47.42,47.42,0,0,0,.44-7.72c0-1.29-.11-2.57-.25-3.85-.11-1-.46-2.08.29-2.93a.33.33,0,0,1,.4-.06c1.13.68,1,2.29,1.09,3.46.12,1.5.16,3,.14,4.53a49,49,0,0,1-1.1,9.42,48.37,48.37,0,0,1-2.84,8.78c-.26.59-2,4.87-3.29,3.15a.11.11,0,0,1,.13-.16Z"/><path class="cls-4" d="M1185.84,646.3a20.83,20.83,0,0,1-2.3,13.08c-.84,1.59-2,3.59-3.94,3.82-2.25.27-3.42-1.82-3.72-3.75a39.56,39.56,0,0,1,.77-14.09c.25-1.14.55-2.28.89-3.4a15.92,15.92,0,0,1,1.32-3.63c1.35-2.17,3.61-.67,4.7.85a9.59,9.59,0,0,1,1.49,6.88,15.57,15.57,0,0,1-1.15,4,10.86,10.86,0,0,1-2,3.64,1.36,1.36,0,0,1-2.25-1.32,13.54,13.54,0,0,1,1.33-2.93,14.66,14.66,0,0,0,1.13-3.22,7.06,7.06,0,0,0-1.13-5.85c-.33-.46-.2-.23-.27.3a9.89,9.89,0,0,1-.53,1.56c-.31,1-.59,1.94-.83,2.92a42.54,42.54,0,0,0-1.07,6.61,44.45,44.45,0,0,0,0,6.32c0,.69,0,2.7,1.07,2.77.82.05,1.62-1.37,2-1.94a27.36,27.36,0,0,0,4.2-12.53c0-.19.32-.26.35,0Z"/><path class="cls-4" d="M1189.88,672.23a30.33,30.33,0,0,0,8.47,1.28,25.92,25.92,0,0,0,4.22-.25c1.24-.19,2.34-.7,3.53-.13a.64.64,0,0,1,.23.87c-.82,1.21-2.31,1.23-3.65,1.39a21.07,21.07,0,0,1-4.56.06,19.05,19.05,0,0,1-8.33-3c-.13-.08,0-.29.09-.24Z"/><path class="cls-4" d="M1219.55,674.21a8.09,8.09,0,0,0,1.39.06.38.38,0,0,1,.33.56c-1.83,2.88-5.5,4.2-8.76,4.49a14,14,0,0,1-9.92-3c-.59-.47-.25-1.34.24-1.68a39.2,39.2,0,0,1,8.23-4.27,89.7,89.7,0,0,1,9.11-2.53,1.41,1.41,0,0,1,1.55,2,10.71,10.71,0,0,1-6.66,4.77c-2,.47-6.59.83-7.33-1.71a1,1,0,0,1,.49-1.16c1-.46,1.71-.09,2.69.12a7.74,7.74,0,0,0,3.25,0,8,8,0,0,0,5.14-3.39l1.2,2.09c-5.83,0-11.77,2.9-16.63,5.91l.24-1.68a12.32,12.32,0,0,0,8.41,2.63c3.13-.12,5.66-1.51,8.24-3.13V675a7.07,7.07,0,0,0-1.26-.55c-.14,0-.08-.23.06-.21Z"/><path class="cls-4" d="M1169.15,718c-2.84-2.55-4.5-6.4-5.61-10a36.11,36.11,0,0,1-1.29-5.81,17.13,17.13,0,0,1-.18-5.71.82.82,0,0,1,.6-.59.58.58,0,0,1,.41,0,.85.85,0,0,1,.59.6c.32,1.79.21,3.65.44,5.46a36.77,36.77,0,0,0,1.17,5.61c1,3.58,2.82,6.81,4.12,10.28,0,.15-.15.23-.25.14Z"/><path class="cls-4" d="M1164.72,680.52a29.51,29.51,0,0,1,1.21,7.65c.14,2.28.51,5.06-.64,7.15a3.91,3.91,0,0,1-4.13,2c-2.23-.52-2.49-3-2.66-4.91a25.8,25.8,0,0,1,.34-7c.34-1.86.78-4.66,2.1-6.09s3.66-.61,4.37,1.09a6.2,6.2,0,0,1,.11,3.23l-.54,4.35a1.47,1.47,0,1,1-2.91-.39c.28-1.7.64-3.4.86-5.11.07-.53.19-2.13-.57-1.17a6.59,6.59,0,0,0-.71,2,24.29,24.29,0,0,0-1,8.89c.1,1.3.4,4.09,2.32,2.78,1.36-.93,1.19-3.15,1.25-4.59.14-3.28-.15-6.6.13-9.87a.22.22,0,0,1,.43-.05Z"/><path class="cls-4" d="M1161.14,720.87s0,0,0,0,0,0,0,0Z"/><path class="cls-4" d="M1178.85,741.51c-9-8.83-11.72-22.12-9.93-34.28,2.19-14.82,11.19-27.29,22.31-36.93a112.09,112.09,0,0,1,10.74-8.17,56.44,56.44,0,0,1,12.16-6.56c.33-.12.61.39.34.61-6,4.92-12.92,8.7-19,13.55a78.61,78.61,0,0,0-16.18,16.9c-7.18,10.49-10.86,23.48-8.81,36.17a36.45,36.45,0,0,0,8.65,18.46c.15.17-.09.41-.25.25Z"/><path class="cls-4" d="M1168.54,713.46c.43-6.81,5.77-12.34,11.82-14.92,7.1-3,15.07-2.5,22.52-1.29,1.4.22.81,2.35-.58,2.13-6.78-1.1-14-2-20.65.14-6.3,2-11.79,7.18-12.66,14,0,.28-.47.29-.45,0Z"/><path class="cls-4" d="M870.37,1079.11a385.8,385.8,0,0,1-47.46-1.94c-15.74-1.46-31.43-3.56-47-6.51A559.85,559.85,0,0,1,522.5,951q-20.36-17-39-36-9.17-9.33-17.86-19.11c-6-6.73-11.63-13.38-16-21.28-.68-1.23,1-2.89,2.15-1.89,11.72,10.31,21.31,22.93,32.13,34.19s22.07,22,33.81,32.2a564.68,564.68,0,0,0,247.58,125.48c17.17,3.83,34.54,6.93,52,9.19,17.66,2.27,35.36,3.33,53.12,4.44.55,0,.48.84-.06.86Z"/><path class="cls-4" d="M544.82,964.69c-1.29-1.76-1.33-4.21-1.74-6.33-.56-2.78-1.06-5.57-1.68-8.35-1.25-5.55-2.86-11-4.62-16.42a149.23,149.23,0,0,0-6.48-16.34c-2.25-4.87-4.71-9.75-6.19-14.93-.17-.59.62-.85,1-.49,7.94,7.71,11.92,19.65,15.24,29.94a123.84,123.84,0,0,1,4,16.54c.52,3,1,6,1.26,9,.19,2.29.82,5.17-.18,7.28-.11.22-.45.37-.63.12Z"/><path class="cls-4" d="M541.13,935.09a67.17,67.17,0,0,0,11.92-17.18c1.62-3.28,2.58-6.87,4.26-10.1.67-1.3,2-2.94,3.49-1.61,1.84,1.63,0,5.89-.7,7.68a41.82,41.82,0,0,1-4.58,8.61,43.75,43.75,0,0,1-14.23,12.84c-.15.08-.27-.13-.16-.24Z"/><path class="cls-4" d="M466.52,920.65c-5.88-4.21-11.36-8.19-18.52-10s-14.79-.83-20.81,3.78c-5.28,4-9.25,9.63-14.08,14.16a64.31,64.31,0,0,1-18.28,11.91c-.09-1.43-.18-2.86-.28-4.29,13.1,4.42,27.31,9.71,41.34,7.23a34.91,34.91,0,0,0,14.68-6.25c4.59-3.44,7.23-7.82,9.24-13.09,1.23-3.26,5.76-1.53,5,1.74-2.7,11.74-15.38,19.25-26.3,21.72-15.42,3.49-31.12-1.74-45.5-6.94-1.77-.64-2.2-3.5-.28-4.29a61.44,61.44,0,0,0,20.18-13.71c5.08-5.1,10.15-10.51,16.75-13.66,12.68-6.06,29.36-.09,38.16,10.19.72.85-.37,2.16-1.31,1.49Z"/><path class="cls-4" d="M473.38,897.86c-.93-5.56-1.68-11.09-2.31-16.69-.5-4.48-.81-9.14-2.05-13.49-2.64-9.28-11.39-13.74-19.78-17s-17.22-4.27-26-6.35c-7.24-1.73-13.84-4.78-18-11.18l5.28-1.07c-.25,4.11,1.76,7.64,3.82,11,2.17,3.58,4.41,7.12,6.61,10.68,4.36,7,8.53,14.22,13.25,21,4.21,6.07,9,11.88,15.23,16a35.34,35.34,0,0,0,10.11,4.76,25.66,25.66,0,0,0,5.07.9,22.5,22.5,0,0,0,3,.06l.85-.15c.86-.1,1-.08.32,0l-.61,1.83-.06-.39c-.18-1.19,1-2.53,2.23-2,2.76,1.22,1.84,5-.78,5.78-3.8,1.19-9-.1-12.71-1.24-8.94-2.78-16.4-8.95-22.29-16.06-6.51-7.87-11.6-16.89-17-25.54-2.92-4.72-5.93-9.38-8.75-14.16-2.38-4-4.15-8.24-3.85-13,.18-3,3.86-3.25,5.28-1.07,4.44,6.79,13.55,8.28,20.92,9.62,9.33,1.7,18.4,4,26.93,8.22,7.51,3.76,14.13,9.57,15.88,18.12,1,4.69.71,9.51.68,14.27,0,5.65-.2,11.25-.55,16.89a.38.38,0,0,1-.74.05Z"/><path class="cls-4" d="M535.62,923.75c-13.15,3.11-26.43-3.57-32.51-15.5-7.41-14.54-4.27-31.17.16-46.11a2.25,2.25,0,0,1,3.35-1.11c11.53,6.74,21.93,14.39,29.13,25.89,4.84,7.73,12.13,25,1.07,31.06a1.52,1.52,0,0,1-1.68-2.49c8.68-7.71,1-22.13-4.47-29.51a67.52,67.52,0,0,0-26-21l2.84-1.37c-3.49,13.27-7.51,28-2.26,41.45a29.16,29.16,0,0,0,30.3,18.19.26.26,0,0,1,.1.5Z"/><path class="cls-4" d="M556.42,920.66c-10.45-6.24-8.93-21.1-1.88-29.32,10-11.67,26.82-13.32,40.31-18.72.31,1.55.63,3.09.94,4.63-4.28,0-3,7.28-2.92,9.85a52.17,52.17,0,0,1-.5,10.3c-1,6.63-3.37,13.14-7.73,18.33a26.77,26.77,0,0,1-14.2,8.77c-4.92,1.16-12.42,1.29-16-2.89-.83-1-.12-2.88,1.31-2.65,2.82.47,5.32,1.71,8.24,1.82a20.28,20.28,0,0,0,9-1.85,24.4,24.4,0,0,0,12.66-14c2.47-6.48,2.77-13.32,2.33-20.17-.36-5.64,1.28-12.38,8.15-12.42,2.38,0,3.15,3.72.93,4.63-11.95,4.87-25.9,6-36.22,14.37-8.5,6.87-13.6,20.41-4.06,28.9.22.21-.1.53-.34.39Z"/><path class="cls-4" d="M637.6,998.79c-8.25-.5-16.73-4.21-23.85-8.28-6.65-3.8-14.1-8.62-15.76-16.64-3.58-17.32,13.09-28.15,18.58-42.68,2.83-7.48,1.09-16.49,7.71-22.26a2.77,2.77,0,0,1,4.26.83c2.4,5.07,4.83,10.13,7.12,15.25,2,4.51,3.78,9.42,6.68,13.46,4.46,6.21,12.49,8.7,15.07,16.43,1.41,4.25.56,8.73-.29,13a107.57,107.57,0,0,1-3.35,13.83c-2.41,7.1-7.38,16.49-15.48,18a1.07,1.07,0,0,1-.91-1.83c3-2.7,6.19-5.06,8.51-8.42a38.41,38.41,0,0,0,5.17-11.58A99.58,99.58,0,0,0,653.91,964c.58-4.38.31-8.5-3.07-11.67-2.5-2.35-5.62-4-8.32-6.09a26.51,26.51,0,0,1-6.86-7.93c-4.72-8.25-8.19-17.38-12-26.07l3.67,1.23c-3.8,1.75-3.94,7.06-4.45,10.71a36.53,36.53,0,0,1-3.65,12.21c-4.33,8.3-11.59,14.76-15.45,23.31-1.8,4-3.27,8.72-2.69,13.12.68,5.25,4.38,8.72,8.4,11.77a69.39,69.39,0,0,0,13.36,8c4.88,2.2,10,3.43,15,5.1a.6.6,0,0,1-.24,1.16Z"/><path class="cls-4" d="M1355.45,297.39l-.68.82c-.22.27-.76.15-.7-.26.74-5.07,2.77-9.92,3.88-14.92a129.49,129.49,0,0,0,2.33-14.39,153.28,153.28,0,0,0,0-30.44c-2.16-22.6-9.14-44.09-13.7-66.23-.07-.35.49-.54.62-.19,7.93,21.56,13.56,44.58,15.52,67.5a152.89,152.89,0,0,1-.25,30.55,113.08,113.08,0,0,1-2.63,14.62c-1.16,4.66-2.33,9.74-5.06,13.76l-.48-.58,1-.43c.1,0,.23.09.15.19Z"/><path class="cls-4" d="M1483.54,29.56a2,2,0,0,1,.19,2.78.83.83,0,0,1-1.28.06,115,115,0,0,0-19.88-21.29c-6.06-4.92-14-10.21-22.22-8.7-6.24,1.14-13.13,9.55-7.87,15.38,2.89,3.21,7.84,4.9,11.81,6.34a65.86,65.86,0,0,0,12.74,3.2,67.62,67.62,0,0,0,14,.64c4.27-.26,9.14-2.3,13,.07a1.23,1.23,0,0,1,.3,1.68c-2.63,4.09-8.95,3.63-13.31,3.8a72.34,72.34,0,0,1-15.41-1,73.79,73.79,0,0,1-14.8-4.22c-4.67-1.89-10.07-4.15-13-8.43-4.86-7-.22-16.18,6.43-20.1,8-4.74,17.85-1.12,24.94,3.71a74.58,74.58,0,0,1,13.49,12,80.76,80.76,0,0,1,6.17,7.76c.86,1.23,1.7,2.48,2.49,3.76.37.59.71,1.17,1,1.78l.48.92c.43,1.25.63,1.22.62-.07,0-.06,0-.13.09-.08Z"/><path class="cls-4" d="M1470.66,106.63c-3.11-11.45-7-22-14.54-31.42-5.88-7.34-15.84-14.59-25.34-8.87s-2.66,17.12,3.35,22.54a73.84,73.84,0,0,0,25,14.87c2.19.77,4.43,1.41,6.67,2,1.62.44,4.37.75,4.73,2.84.65,3.82-5.6,2-7.33,1.55A75.5,75.5,0,0,1,1438,97.4c-6.43-4.91-13.53-11.43-15.24-19.71-1.63-7.84,3.65-14.44,11.17-16.15,9.74-2.21,18.4,5,23.93,12.23,7.07,9.23,12.72,21,13.76,32.71a.47.47,0,0,1-.93.15Z"/><path class="cls-4" d="M1429.2,198.37c1.77-7.94,2.83-15.67,1.59-23.8-1.16-7.56-3.8-15.7-8.74-21.69-4.2-5.1-12.64-10.59-18.43-4.49-6.82,7.2-.86,17.32,4.07,23.56,3.31,4.19,6.71,8.32,10,12.5,1.69,2.11,3.39,4.22,5.08,6.34s3.78,4.07,4.64,6.57a1.77,1.77,0,0,1-2.6,2.18c-2.24-1.46-3.64-3.94-5.24-6l-5.62-7.41c-3.54-4.67-7.23-9.26-10.52-14.1-4.72-7-8.5-16.78-2.69-24.35,4.64-6,12.48-5.21,18.1-1.11,6.73,4.92,10.44,13,12.58,20.83,2.7,9.91,2.85,21.68-1.24,31.24-.22.52-1.17.39-1-.23Z"/><path class="cls-4" d="M1405.31,237.56c15.12-9.41,35.54-6.31,48.72,5.28,5,4.42,14.65,15.64,4.33,20.11-4.23,1.84-9.34.79-13.68-.05a81.17,81.17,0,0,1-28.63-11.43,78.22,78.22,0,0,1-7-5.08,16.72,16.72,0,0,1-2.9-2.53c-.71-1-.7-2.18-.94-3.31a.81.81,0,0,1,.87-.92c1.85.25,2.9.24,4.41,1.49s3.07,2.51,4.68,3.67a75.93,75.93,0,0,0,33.65,13.72c2.7.38,10.65,1.48,9-3.51-1.13-3.42-4.72-6.79-7.4-9.06a43.77,43.77,0,0,0-19.52-9.46,49.38,49.38,0,0,0-25.35,1.52.24.24,0,0,1-.2-.44Z"/><path class="cls-4" d="M1351.72,188.69c-.23-3.69,1-7.54,1.22-11.26a61.93,61.93,0,0,0-.7-13.05,58.38,58.38,0,0,0-9.07-23.2c-2.23-3.33-5-7.24-8.36-9.44-3.66-2.37-7.57-.43-9.73,2.94-5.21,8.14,2.38,17.33,7.09,23.7l10.09,13.67c3.46,4.69,7.19,9.28,10.23,14.26,1.26,2.06-2,3.93-3.49,2.22-4.21-4.79-7.75-10.26-11.51-15.41-3.54-4.83-7.1-9.65-10.61-14.5-5.28-7.31-11-16.92-5.69-25.75,2-3.25,5.33-6,9.2-6.31,4.5-.42,8,2.56,10.8,5.72A61.17,61.17,0,0,1,1356,173.66c-.14,4.64-.42,11.35-3.15,15.27-.28.39-1,.29-1.08-.24Z"/><path class="cls-4" d="M1364.5,241.66c8-2.87,15.62-7.52,20.72-14.49a36.49,36.49,0,0,0,6.86-23.78c-.19-2.93-.6-10.22-3.75-11.58-3.35-1.45-7.27,3.89-9,6a58.13,58.13,0,0,0-10.28,19.74,57.07,57.07,0,0,0-2.26,12.7c-.29,4.31.56,8.58.35,12.85a1.36,1.36,0,0,1-2.57.43c-1.51-4-1.28-9-1-13.16a61.43,61.43,0,0,1,2.21-13.12,59.51,59.51,0,0,1,13.14-23.94c2.29-2.53,5.48-5.36,9.18-4.89,4.05.51,5.35,4.8,6.17,8.19a38.51,38.51,0,0,1-3.43,27c-5.27,9.76-15,17.32-26.16,18.57-.3,0-.49-.43-.16-.54Z"/><path class="cls-4" d="M1358.59,242.19c3-.47-2.34-7.37-3.13-8.5-1.62-2.33-3.3-4.61-5.13-6.78a47.32,47.32,0,0,0-12.42-10.66,30.63,30.63,0,0,0-14.2-4.22c-2.48-.07-5.35,0-7.58,1.25-2.92,1.59-2.82,4.59-2.61,7.51.4,5.58,1.67,11.23,5.46,15.54a25.3,25.3,0,0,0,12.29,7.27,40.61,40.61,0,0,0,16.06.72c5.5-.71,10.78-2.63,16.25-3.37,3.09-.42,3.34,4.48.15,4.3a3.58,3.58,0,0,1-1.87-.52.92.92,0,0,1-.38-.82,2.77,2.77,0,0,1,.42-1.57c1,.91,2,1.82,2.95,2.72a73,73,0,0,1-17.3,3.75,45.9,45.9,0,0,1-15.81-.61c-9.75-2.28-18.07-8.61-20.88-18.48-1.27-4.47-2.51-10.8-.81-15.32s6.76-6.05,11.14-6.19c9.88-.3,19.19,4.85,26,11.6a70.8,70.8,0,0,1,11.55,15.53c1,1.77,2.66,4,2,6.17-.36,1.12-1.08,1.66-2.19,1.12a.23.23,0,0,1,0-.44Z"/><path class="cls-4" d="M1340.15,315.79a59.76,59.76,0,0,1,26-2.63c8.38.94,18.21,3.13,25,8.35,6,4.62,9.06,14.58,1.57,19.51s-17.84.52-25.21-2.19a162.23,162.23,0,0,1-30.37-15c-2.79-1.75.15-5.94,2.92-4.2a156,156,0,0,0,27.76,13.85c4.74,1.8,25.56,10.11,24.39-1.77-.47-4.84-5.19-7.64-9.19-9.42a67.91,67.91,0,0,0-13.62-4.41c-9.66-2-19.07-1.69-28.76-.27-1,.15-1.66-1.48-.58-1.86Z"/><path class="cls-4" d="M1422.69,175.11a32.93,32.93,0,0,1,7.61,12.06c.93,2.53,3.76,8.72,1.13,10.84a.7.7,0,0,1-.71.12c-1.39-.67-1.5-1.43-1.83-2.95a57.67,57.67,0,0,0-1.76-7.11,65.55,65.55,0,0,0-5.84-12.07c-.52-.85.78-1.53,1.4-.89Z"/><path class="cls-4" d="M1431.61,247.42c-3.54-1.5-6.8-3.56-10.48-4.79-3.94-1.32-8-1.43-12.05-1.94-1.69-.21-2-3.05-.1-3.14,4.33-.2,8.56,1.12,12.53,2.76,3.81,1.57,7.71,3.56,10.24,6.92a.12.12,0,0,1-.14.19Z"/><path class="cls-4" d="M1379.18,220.9c-1.11,4.3-3.25,8.39-5.1,12.41-.94,2-1.86,4.08-2.84,6.09-.73,1.52-1,2.59-2.61,3.13a.69.69,0,0,1-.92-.34c-.58-1.59-.09-2.3.65-3.85,1.06-2.19,2.19-4.35,3.29-6.52,2-3.87,3.82-8,6.45-11.48a.62.62,0,0,1,1.08.56Z"/><path class="cls-4" d="M1365.09,240.64s.06-.09.08,0-.05.08-.08,0Z"/><path class="cls-4" d="M1365.11,240.63s0,0,0,0,0,0,0,0Z"/><path class="cls-4" d="M1339.14,231.48c4,1.38,8.07,2.81,12.15,4.09,3.2,1,7.9,1.54,10.34,4a.81.81,0,0,1-.48,1.3c-3.44.77-8.12-1.76-11.25-3a103.86,103.86,0,0,1-11.31-5.29c-.6-.33-.07-1.25.55-1Z"/><path class="cls-4" d="M1342.07,159.18a67.59,67.59,0,0,1,5.85,15.31c.41,1.82,2.93,10.86,0,11.47-.91.19-1.54-.6-1.84-1.36-.82-2.12-.55-5.23-.87-7.48a107.7,107.7,0,0,0-3.61-17.72.26.26,0,0,1,.48-.22Z"/><path class="cls-4" d="M1368.94,327.31c-2.85-.95-5.46-2.62-8.26-3.72a53.69,53.69,0,0,0-8.86-2.64,55.46,55.46,0,0,0-18.22-.64c-1.72.22-2.17-2.46-.44-2.67a57,57,0,0,1,19.49,1c5.66,1.31,12.81,3.35,17.12,7.47.58.55-.18,1.42-.83,1.2Z"/><path class="cls-4" d="M1302.78,347.88c26.34-27.9,53.28-55.22,77.93-84.67,23.88-28.54,46.13-58.83,63.59-91.78,15.67-29.56,27.51-61.49,33.46-94.46,5.83-32.33,5.9-65.76-1.92-97.76-2.26-9.22-4.9-18.88-10.49-26.7a37.4,37.4,0,0,0-17.5-13.28c-13.62-5.08-29-3.73-43-1.47a104,104,0,0,1-10.72,1.2c-1.42.08-2.42-2.07-.81-2.64,7.15-2.54,14.58-3.59,22.12-4.3a94.29,94.29,0,0,1,22.4.22c15.63,2.29,28.47,10.64,35.42,25.07,4,8.3,6.27,17.48,8.22,26.45a213.07,213.07,0,0,1,3.89,24.88,243.47,243.47,0,0,1-.49,50.85c-3.82,34-14.07,67.21-28.68,98.08-16.2,34.23-37.72,65.8-61.77,95-25,30.25-52.26,58.83-80.33,86.2l-10.47,10.16c-.61.59-1.41-.4-.84-1Z"/><path class="cls-4" d="M717.93,884.62c-5-1.38-9.92-3.14-15.06-4.17-2.62-.52-5.26-1-7.91-1.25-1.29-.15-2.59-.26-3.89-.36-1.12-.07-2.82-.45-3.91,0-.92.37-.56.46.3.78a11.54,11.54,0,0,0,1.74.4c1.23.26,2.45.5,3.68.72q4,.72,8,1.19c5.41.62,10.84.32,16.23.83a1.85,1.85,0,0,1,.05,3.69,55,55,0,0,1-10.49-.46c-3.38-.32-6.75-.74-10.1-1.31a83.77,83.77,0,0,1-9.54-2c-2-.59-4.41-2.1-3.42-4.57s3.87-2.44,6-2.32a94.65,94.65,0,0,1,9.64,1c6.59,1.05,13.63,2.64,19.59,5.71a1.16,1.16,0,0,1-.85,2.12Z"/><path class="cls-4" d="M740.82,884.89c-3.22-3.85-5.74-8-9.47-11.47a44.93,44.93,0,0,0-12.88-8.22l1.8-1.81a47.21,47.21,0,0,0,20.14,16.89c1.75.78.26,3.43-1.48,2.6A52.07,52.07,0,0,1,718,864.72c-.8-1.21.72-2.28,1.8-1.81a46.58,46.58,0,0,1,13.38,8.7c3.65,3.38,7.53,7.65,9,12.49.23.74-.82,1.42-1.35.79Z"/><path class="cls-4" d="M740.19,886.94c.27,2.5-.58,5.25-1.34,7.6a37.58,37.58,0,0,1-3.19,7.19c-2.79,4.83-6.55,8.52-10.6,12.27-.74.69-2.32.28-2.21-.9.46-5.12,3.61-10.47,6.55-14.56s6.92-9,11.63-11.28c1.82-.88,4.08,1.53,2.32,3-2,1.65-4.16,3-6.08,4.68a36.28,36.28,0,0,0-5.08,5.43,42,42,0,0,0-3.93,6.32c-1.15,2.27-1.84,4.75-3,7L723.5,912c4.52-2.56,8.21-7,10.87-11.36a42.81,42.81,0,0,0,3.45-7c.82-2.19,1.21-4.56,2.15-6.68,0-.12.21,0,.22.05Z"/><path class="cls-4" d="M773.18,891.4c-4.59,0-7.54-4.71-9.79-8.06-3.15-4.68-6.18-9.44-9.34-14.11a2,2,0,0,1,.3-2.34,6.7,6.7,0,0,1,7.07-1.69,9.86,9.86,0,0,1,5.74,5.63,53.47,53.47,0,0,1,2.9,9.26c.85,3.35,2,7.11,1.87,10.58a1.75,1.75,0,0,1-3.43.48,50.53,50.53,0,0,1-1.65-7.13q-.84-3.76-1.94-7.46c-.65-2.18-1.28-4.58-2.83-6.32-1.26-1.41-3.56-2.17-5-.61l.3-2.34c2.36,4.22,4.8,8.37,7.22,12.55s4.36,8.73,8.6,11.42c.06,0,0,.14,0,.14Z"/><path class="cls-4" d="M771.31,895.38c-4.43,2.46-9,4.55-13.14,7.46a55.61,55.61,0,0,0-11.51,10.47c-.08-.64-.17-1.28-.25-1.92,3.76,2.71,8.68-1,11.75-3.21,4.35-3.15,8.16-6.81,12.22-10.3a1.69,1.69,0,0,1,2.39,2.39,80.5,80.5,0,0,1-15.08,12.12c-3.77,2.45-9,4.42-12.75.92a1.24,1.24,0,0,1,0-1.73c7.21-7.09,16-14.46,26.11-16.8.36-.08.6.42.26.6Z"/><path class="cls-4" d="M795.42,903.18c-4.56-7.41-6.63-15.52-8.5-23.94a2,2,0,0,1,2.84-2.21c8.55,5.28,12.33,16.71,8.93,26.11a2.13,2.13,0,0,1-1.93,1.52c.35,0-.62.24-.52.21a.68.68,0,0,1-.78-.32s-.39-.75-.16-.48a2,2,0,0,1-.52-1.92,18.79,18.79,0,0,0-6.95-21.73l2.91-1.72c.61,8.21,3.15,16.31,5.31,24.22a.34.34,0,0,1-.63.26Z"/><path class="cls-4" d="M797.23,906.44c-1.84,1.09-4.15,1.56-6.17,2.22-2.29.75-4.57,1.52-6.81,2.4a97.18,97.18,0,0,0-13.4,6.56c0-.58,0-1.15,0-1.73,4.88,2.12,11.35-1.51,15.85-3.19l8.61-3.2c3-1.11,5.93-2.49,9-3.36.14,1,.27,2,.41,3-.87.11-1.31-.35-2.05-.35a.65.65,0,0,1-.33-1.21c.44-.24.29-.48.68-.79a4.38,4.38,0,0,1,1.29-.61c1.58-.6,2.72,2.06,1.15,2.76-3.25,1.46-6.77,2.43-10.13,3.62L785.53,916c-5.12,1.83-10.41,4.07-15.68,1.62a1,1,0,0,1,0-1.74,100.1,100.1,0,0,1,13.29-6.17c2.25-.85,4.53-1.64,6.84-2.29s4.84-1.48,7.18-1.28a.16.16,0,0,1,.08.29Z"/><path class="cls-4" d="M798.35,840.27c-3.23-6.35-5.17-13.62-6.8-20.56-.62-2.61-.92-5.54.49-8a6.75,6.75,0,0,1,6.1-3.31c2.85.21,4.24,2.61,4.79,5.15a42.3,42.3,0,0,1,.9,9.33,47.28,47.28,0,0,1-1,9.33c-.56,2.65-1.22,6.51-3.13,8.53a1.65,1.65,0,0,1-2.78-1.13c.07-2.21,1.35-4.5,1.9-6.65a40.92,40.92,0,0,0,1.22-7.3,44.75,44.75,0,0,0,0-6.85c-.13-1.56-.12-6.35-2-6.8-2.48-.59-3.49,2.57-3.49,4.38,0,2.52.82,5.06,1.38,7.5,1.24,5.42,2.58,10.72,2.75,16.28a.13.13,0,0,1-.24.07Z"/><path class="cls-4" d="M805.09,858c.22-4.58,3.61-9.16,6.61-12.4a34.21,34.21,0,0,1,6-5.11c1.61-1.07,4-2.89,6.09-2.19,1.9.65,2.23,2.7,1.47,4.35-1.16,2.51-3.25,4.83-4.83,7.1-3.6,5.18-7.25,10.33-10.89,15.49-1.31,1.85-4.43.12-3.11-1.77,2.69-3.85,5.36-7.72,8.06-11.56l4.19-5.92,2.1-3c.31-.43.65-.86.93-1.31.17-.28.53-1.4.56-.36,0,.7-.12.58-.77.93-.4.22-.79.45-1.18.68-.88.52-1.74,1.07-2.57,1.66a36.07,36.07,0,0,0-4.82,4.16,48.38,48.38,0,0,0-3.85,4.5c-1.22,1.6-2.22,3.42-3.57,4.89a.27.27,0,0,1-.45-.18Z"/><path class="cls-4" d="M820.08,893.66a47.64,47.64,0,0,1,1.95-8.3,43.27,43.27,0,0,1,3.59-7.33,56.69,56.69,0,0,1,10.72-12.89,1.8,1.8,0,0,1,3,1.23c-.23,9.62-8.57,16.77-14.61,23.32-1.55,1.68-4-.82-2.51-2.51,2.93-3.24,6-6.41,8.74-9.81,2.55-3.17,4.71-6.79,4.83-11l3,1.24a55.14,55.14,0,0,0-10.67,11.84,75.58,75.58,0,0,0-7.68,14.28.22.22,0,0,1-.42-.11Z"/><path class="cls-4" d="M838.06,917.42c-4.14.81,1.11-10.16,1.71-11.25a35.88,35.88,0,0,1,13.3-13.27c1.31-.76,3.46.52,2.84,2.14a88.69,88.69,0,0,1-15.75,26.11c-1.65,1.91-4.41-.87-2.77-2.77a90,90,0,0,0,15-24.77l2.65,2.63A36.39,36.39,0,0,0,844.33,905c-.82,1-8.18,11.75-6.27,12.22.12,0,.13.23,0,.25Z"/><path class="cls-4" d="M805.54,861.55c-2.4-1.19-4.5-3.25-6.71-4.78A55.27,55.27,0,0,0,792,852.7a48,48,0,0,0-8.19-3.13c-1.17-.33-2.35-.62-3.54-.86-.5-.1-3.73-.9-4-.52-.47.7,5.52,5,6.15,5.45a50.28,50.28,0,0,0,7,3.75c2.56,1.14,5.17,2.13,7.78,3.13s5.39,1.61,7.28,3.54a.92.92,0,0,1-.63,1.55c-3.33.18-7.08-2-10.14-3.22a93.44,93.44,0,0,1-9.06-4,35,35,0,0,1-8-5.5c-1.43-1.35-4.39-3.87-3.07-6.13s5.29-.88,7.23-.44a50.5,50.5,0,0,1,9.27,3,49.43,49.43,0,0,1,8.87,5c2.52,1.76,5.58,4,7,6.84a.28.28,0,0,1-.38.37Z"/><path class="cls-4" d="M864.65,954.57a78.2,78.2,0,0,1-10.06-8.49q-5-4.67-9.61-9.73a188.86,188.86,0,0,1-16.71-21.21A194.31,194.31,0,0,1,804.63,867q-2.34-7.12-4.11-14.41c-.62-2.53-1.18-5.08-1.69-7.63-.24-1.2-.55-2.41-.67-3.63a12.82,12.82,0,0,1,.38-3.42.79.79,0,0,1,1.43-.2,20.33,20.33,0,0,1,1.33,2.53,21.49,21.49,0,0,1,.6,3.2c.42,2.24.88,4.48,1.38,6.7q1.46,6.52,3.38,12.92A189.67,189.67,0,0,0,816,887.67a195.7,195.7,0,0,0,28.38,44.73q4.83,5.73,10.08,11.1c3.48,3.56,7.33,6.81,10.73,10.44.3.31-.09.89-.49.63Z"/><path class="cls-4" d="M862,951.62a184.66,184.66,0,0,0-108-59.79,174.4,174.4,0,0,0-17.66-2c-5.83-.35-11.64-.11-17.48-.27a1.45,1.45,0,0,1,0-2.89,103.41,103.41,0,0,1,16.13.14c5.27.33,10.53.89,15.74,1.68a178.44,178.44,0,0,1,30.68,7.43,185.2,185.2,0,0,1,55.21,29.89,168.28,168.28,0,0,1,25.9,25.35c.25.31-.18.76-.45.45Z"/></g></g></svg>