<svg width="1229" height="78" viewBox="0 0 1229 78" fill="none" xmlns="http://www.w3.org/2000/svg">
<g clip-path="url(#clip0_49_129)">
<path d="M190.956 35.1431C191.223 34.9121 191.491 34.6912 191.758 34.42C193.26 33.0038 193.655 30.0911 190.791 28.8156C189.633 28.4043 188.325 28.34 187.112 28.6348C186.213 28.8089 185.338 29.0545 184.502 29.368L183.929 29.599C183.929 29.599 183.675 29.6994 183.636 29.6693C183.598 29.6391 183.636 29.6693 183.636 29.4483C183.636 28.7051 183.636 27.9016 183.636 27.078C183.636 26.616 183.56 26.0736 183.522 25.5212C183.49 24.8034 183.327 24.0931 183.038 23.412C182.818 22.9262 182.437 22.4953 181.936 22.1635C181.435 21.8318 180.831 21.611 180.187 21.5238C179.553 21.4493 178.907 21.4797 178.289 21.6128C177.671 21.7459 177.095 21.979 176.597 22.2972C174.471 23.7334 174.611 26.0334 175.413 27.7308C176.218 29.4906 177.694 31.0101 179.639 32.0798C180.556 32.5318 180.11 32.1501 179.181 31.1758C177.857 29.7829 177.047 28.1285 176.839 26.3951C176.776 25.9637 176.827 25.5266 176.989 25.1117C177.151 24.6967 177.421 24.3129 177.781 23.9845C178.072 23.7782 178.432 23.6428 178.818 23.5947C179.205 23.5466 179.6 23.5878 179.958 23.7133C180.301 23.8338 180.505 24.5068 180.518 25.3304C180.53 26.154 180.518 26.7967 180.581 27.2186C180.659 28.9796 180.561 30.7426 180.289 32.4916V32.5518C180.289 32.7226 180.289 32.9335 180.212 33.1545C179.895 33.2344 179.598 33.3567 179.334 33.5161C178.331 32.4217 177.115 31.4591 175.731 30.6637C174.283 29.7556 172.628 29.0738 170.856 28.6549C169.897 28.4013 168.862 28.3837 167.89 28.6046C167.19 28.8034 166.573 29.151 166.108 29.609C165.658 30.0182 165.326 30.4995 165.135 31.0197C164.944 31.5399 164.898 32.0866 165 32.6221C165.18 33.6159 165.765 34.5364 166.668 35.2436H163.155C161.464 33.1492 159.464 31.2206 157.197 29.4985C155.033 27.8471 152.652 26.3825 150.094 25.1295C149.346 24.7267 148.521 24.4215 147.65 24.2256C146.878 24.054 146.053 24.114 145.334 24.3941C144.614 24.6741 144.052 25.1543 143.755 25.7422C143.604 26.1211 143.584 26.5251 143.698 26.912C143.813 27.2989 144.056 27.6545 144.404 27.9418C145.015 28.5344 145.359 28.8156 145.944 29.2977C148.947 31.7943 152.53 33.8128 156.497 35.2436H122.98C122.84 35.103 122.687 34.9724 122.547 34.8418C122.904 34.9021 123.247 34.9925 123.604 35.0427C125.119 35.2135 124.075 34.9323 121.822 34.179C118.499 31.1658 115.177 28.2732 112.186 25.7723L107.17 21.6745C105.896 20.5328 104.471 19.5024 102.918 18.6011C102.224 18.2727 101.43 18.0992 100.621 18.0992C99.8113 18.0992 99.0172 18.2727 98.323 18.6011C97.8475 18.8381 97.4549 19.1655 97.1813 19.5533C96.9078 19.9411 96.762 20.3769 96.7573 20.8207C96.8235 21.5333 97.1458 22.2162 97.6865 22.7893C98.1967 23.3708 98.7764 23.9123 99.4178 24.4063C100.054 24.9487 100.793 25.5212 101.595 26.1138C103.409 27.4493 105.359 28.6653 107.425 29.7496C111.585 31.9259 116.181 33.5321 121.02 34.5003L122.051 35.1933H87.6811C86.51 34.661 84.8424 33.9479 83.0094 33.1846C81.1763 32.4213 78.9359 31.3667 77.1029 30.4929C75.8299 23.643 73.9968 17.436 72.9148 14.2119C72.5874 13.2618 71.8015 12.4506 70.7254 11.9521C70.3708 11.8041 69.9882 11.7023 69.5924 11.6507C69.1226 11.5709 68.6366 11.5709 68.1667 11.6507C67.69 11.752 67.2529 11.9457 66.895 12.214C66.5371 12.4824 66.2698 12.817 66.1173 13.1875C65.8925 13.7785 65.7599 14.389 65.7226 15.0054C65.666 15.6742 65.666 16.3453 65.7226 17.0141C65.8472 18.6288 66.2762 20.2199 66.9956 21.7347C68.1657 24.1692 69.9946 26.3731 72.3548 28.1929C71.5528 27.8212 70.3944 27.2789 69.0833 26.6361C67.7721 25.9933 62.7949 23.5426 58.8996 21.3631L57.0411 20.3587C56.9502 20.243 56.8338 20.1409 56.6974 20.0574C54.9689 18.8577 53.1309 17.76 51.1982 16.7731C49.3724 15.7984 47.4175 14.9834 45.3681 14.3425C44.2258 13.9796 42.9631 13.9267 41.7785 14.1922C40.594 14.4577 39.555 15.0264 38.8251 15.8089C38.2233 16.5801 38.0269 17.5063 38.2777 18.3901C38.4508 18.9853 38.743 19.5549 39.1433 20.0775C40.1555 21.2961 41.4008 22.3837 42.8349 23.3015C45.3378 24.9999 48.2341 26.2994 51.3637 27.1282C55.5583 28.2433 60.0725 28.3758 64.3606 27.5099C66.3591 26.9876 61.8147 27.6103 56.6083 26.5055C53.9963 25.9784 51.499 25.1456 49.1997 24.0347C47.6349 23.2669 46.1608 22.3896 44.7953 21.4133C43.7056 20.6537 42.7162 19.8091 41.842 18.8923C41.5275 18.5232 41.303 18.1111 41.1801 17.677C41.1201 17.4197 41.1716 17.154 41.3263 16.9226C41.481 16.6912 41.7299 16.5077 42.033 16.4015C43.586 15.5076 46.6538 16.6324 49.187 17.4862C50.88 18.0587 52.4457 18.6513 53.7187 19.1535C57.6717 22.7231 62.1796 25.8851 67.1356 28.5645C68.3657 29.2096 69.6406 29.7998 70.9545 30.3322C72.3166 30.9549 74.4424 31.8387 76.9883 32.7527C77.4211 33.5864 77.6375 33.8074 77.5102 33.044C77.5102 33.044 77.5102 32.9637 77.5102 32.9235C79.9178 33.7697 82.3826 34.5107 84.8933 35.1431H31.302C29.8738 35.2797 28.4263 35.2186 27.0248 34.9624C26.7112 34.8663 26.4052 34.7556 26.1083 34.6309C22.3281 33.0654 18.7064 31.2723 15.2754 29.2676C12.8844 27.9626 10.7596 26.3776 8.97431 24.5671C10.9767 24.8206 12.8622 25.4779 14.448 26.4754C19.3107 29.0365 24.2116 31.5676 29.2016 33.968C30.0653 34.4252 30.9974 34.7962 31.9766 35.0728C27.7886 31.8387 23.1423 28.9964 18.5724 26.1037C16.8058 24.8763 14.8617 23.8177 12.7804 22.95C10.683 22.0733 8.25087 21.8339 5.94468 22.2771C5.6418 23.2417 5.68588 24.2539 6.07197 25.1998C6.63389 26.209 7.50957 27.0899 8.61788 27.761C10.7227 29.1918 13.0091 30.4472 15.4409 31.5073C18.3238 32.8486 21.4011 33.9109 24.6062 34.6711C25.6585 34.7973 26.6219 35.2094 27.3303 35.8362C26.5204 35.9312 25.7045 35.9916 24.8862 36.0169C24.041 35.9433 23.1906 35.9131 22.3403 35.9266C21.4959 36.0705 20.7118 36.3815 20.0618 36.8305L18.2032 37.9052L5.8683 45.0966C5.15884 45.5339 4.41007 45.93 3.6279 46.2817C3.55492 46.3252 3.46458 46.3466 3.37331 46.342C3.2994 46.3255 3.23663 46.2868 3.19854 46.2342C3.16044 46.1816 3.15006 46.1193 3.16963 46.0607C3.20751 45.942 3.28691 45.8342 3.39877 45.7494C5.20374 44.0926 7.12018 42.5134 9.1398 41.0188C11.1638 39.5223 13.4424 38.2366 15.5046 36.7803L13.5824 37.1821H13.837C11.9354 37.869 10.1088 38.6785 8.37601 39.6026C6.24601 40.7374 4.2366 42.0071 2.36767 43.3992C1.90954 43.7315 1.484 44.0908 1.09472 44.4739C0.556273 45.0029 0.228486 45.646 0.152725 46.3219C0.114252 46.8312 0.2925 47.3361 0.65918 47.7565C1.02586 48.1768 1.55997 48.4885 2.17673 48.642C3.12901 48.7677 4.10588 48.706 5.02073 48.4625C5.93557 48.219 6.76013 47.801 7.4213 47.2459C10.7168 45.1491 13.8656 42.9128 16.8539 40.5467C18.5215 39.241 19.9854 38.0257 20.9019 37.1821H90.9144C89.1213 37.5199 87.4042 38.072 85.8226 38.8192C80.6544 41.1996 76.3264 45.3175 74.9643 46.5228C74.2642 47.1957 73.1822 48.2201 72.0365 49.3953C69.086 52.3632 66.4101 55.4949 64.0296 58.7661C61.2164 62.6029 59.3961 65.8871 60.6563 64.5714C62.6166 62.5627 64.5643 60.5539 66.3846 58.7762C66.1436 59.9638 66.1436 61.1742 66.3846 62.3618C66.7039 63.9265 67.3857 65.4314 68.3959 66.8012C68.831 67.3951 69.3338 67.9565 69.8979 68.4785C70.1342 68.7059 70.3848 68.9239 70.649 69.1313C70.9908 69.3977 71.398 69.6062 71.8456 69.744L72.2911 69.8344C72.721 69.8842 73.1593 69.8626 73.578 69.7709C73.9967 69.6792 74.3865 69.5195 74.7225 69.3021C75.1153 69.0537 75.4364 68.7421 75.6644 68.3881C75.8845 68.0432 76.0184 67.6681 76.059 67.2832C76.1133 66.7588 76.0443 66.2311 75.8554 65.7265C75.6517 65.154 75.4098 64.6015 75.1298 63.9386C74.5824 62.643 73.8568 61.1365 73.2585 59.7605C71.9856 57.0085 70.7126 54.7888 70.8654 55.9036C71.0795 58.1681 71.4535 60.4214 71.9856 62.6531C72.3929 64.6016 73.1312 66.5199 73.0167 66.9819C73.01 67.0978 72.9709 67.211 72.9021 67.3134C72.9106 67.3374 72.9075 67.363 72.8934 67.3852C72.8792 67.4075 72.8551 67.4249 72.8257 67.4339C72.9403 67.6047 72.1511 67.0422 71.5528 66.4999C70.8172 65.8575 70.1608 65.1613 69.5924 64.4208C68.1918 62.5262 67.3235 60.4162 67.0465 58.2338C70.1271 55.1604 72.8003 52.5591 74.3915 51.0626C75.2062 50.2792 76.3264 49.2045 77.4848 48.0494C78.6432 46.8944 80.8326 44.745 83.4676 42.5856C84.8824 41.4084 86.4384 40.3421 88.1139 39.4017C87.4994 39.9683 86.9894 40.6006 86.5991 41.2799C85.5891 43.1433 85.2161 45.183 85.5171 47.1957C85.626 48.0575 85.8046 48.913 86.0517 49.7568L86.2809 50.5001C86.3827 50.8316 86.4973 51.1429 86.5864 51.4442L87.1592 53.0311L88.4322 52.6494C89.4618 52.3882 90.4112 51.9606 91.2199 51.394C91.9023 50.9055 92.4785 50.3321 92.9257 49.6966C93.8378 48.433 94.4098 47.0346 94.606 45.5887C94.7647 43.7406 95.2312 41.917 95.9935 40.165C96.3587 39.4853 96.901 38.8738 97.5853 38.3703C98.2695 37.8667 99.0803 37.4825 99.9651 37.2423H126.557C125.342 40.1313 123.791 42.9253 121.924 45.5887C120.522 47.5533 118.614 49.264 116.323 50.6106C115.839 50.8617 115.266 51.173 114.604 51.4542C113.942 51.7355 114.006 51.7053 113.866 51.7154C113.611 51.045 113.546 50.3388 113.675 49.6464C113.797 48.3471 114.197 47.0736 114.859 45.8799C115.704 44.3407 116.926 42.9484 118.455 41.7832C119.984 40.618 121.79 39.7028 123.769 39.0903C124.813 38.7991 124.151 38.7388 122.496 38.9799C120.045 39.4407 117.789 40.3999 115.953 41.762C113.648 43.4198 111.992 45.563 111.18 47.9389C110.841 48.9206 110.679 49.9348 110.696 50.952C110.674 51.4388 110.738 51.9257 110.887 52.3983C111.042 52.8858 111.395 53.3197 111.893 53.6338C112.369 53.9147 112.941 54.0756 113.535 54.0958C114.163 54.1078 114.788 54.0154 115.368 53.8246C116.266 53.4953 117.119 53.0949 117.914 52.6294C119.599 51.6536 121.051 50.4498 122.204 49.0739C123.814 47.1436 125.018 45.0203 125.768 42.7864C126.38 40.9676 126.839 39.1189 127.143 37.2524H164.288C164.975 37.8048 165.242 37.9554 164.873 37.3628L164.784 37.2524H171.518L171.963 37.3327C172.446 37.4047 172.936 37.4384 173.427 37.4332C172.661 37.6467 171.927 37.9262 171.238 38.2667C167.737 39.9641 165.344 43.6 166.426 45.6289C166.736 46.184 167.229 46.6634 167.853 47.0168C168.478 47.3702 169.212 47.5846 169.978 47.6376C172.091 47.9791 176.444 46.3621 178.685 43.821C179.597 42.8176 180.127 41.6293 180.212 40.3961C180.212 39.5725 180.009 39.2812 179.83 39.7733C178.99 41.6605 177.263 43.2209 175.006 44.1323C174.12 44.5096 173.191 44.819 172.231 45.0564C171.669 45.2179 171.07 45.2829 170.474 45.2472C170.23 45.2394 169.991 45.1917 169.772 45.1069C169.553 45.0222 169.358 44.9024 169.201 44.755C168.857 44.4638 169.201 42.7463 170.474 41.2297C171.917 39.3719 174.116 37.9555 176.712 37.2122H181.803C181.521 37.455 181.153 37.6263 180.747 37.7043C180.059 37.844 179.329 37.7797 178.697 37.5235C178.214 37.3226 177.934 37.172 178.048 37.5235C178.247 37.8923 178.541 38.2241 178.913 38.4971C179.284 38.7701 179.725 38.9783 180.205 39.1081C180.685 39.2379 181.195 39.2865 181.701 39.2505C182.206 39.2146 182.697 39.095 183.14 38.8995C184.004 38.5523 184.659 37.9492 184.96 37.2222H204.284C204.551 36.5292 205.022 35.9065 205.34 35.2135L190.956 35.1431ZM114.057 30.9951C110.856 29.4743 107.869 27.6899 105.146 25.6719C103.873 24.7478 102.804 23.8238 101.925 23.0605L100.767 22.0561C100.542 21.8477 100.338 21.6261 100.156 21.3932C99.8379 21.0015 99.8124 20.7002 99.876 20.65C99.9397 20.5998 100.576 20.2984 101.251 20.5797C102.015 20.7906 104.23 22.6487 106.852 24.4968L115.393 30.6134L118.919 33.0741C117.456 32.4916 115.775 31.8287 114.057 30.9951ZM75.3971 29.6392C73.6724 28.1766 72.2039 26.5383 71.0309 24.7679C69.6886 22.7434 68.8544 20.5336 68.5741 18.2596C68.4654 17.3375 68.4654 16.4095 68.5741 15.4875C68.636 14.9946 68.7337 14.5051 68.8669 14.0211C68.8669 14.0211 68.8669 13.9608 68.9687 14.0211C69.1237 14.0366 69.2673 14.0932 69.376 14.1818C69.5855 14.3673 69.7495 14.5818 69.8598 14.8145C70.5471 16.8233 73.5895 24.9286 75.639 29.7898L75.3971 29.6392ZM94.9242 38.5681C93.6684 39.7746 92.7956 41.2001 92.3783 42.7262C91.9328 44.062 91.6527 45.2271 91.2963 46.1612C91.025 46.9049 90.6404 47.6199 90.1507 48.2905C89.8848 48.6492 89.5735 48.9858 89.2214 49.2949C88.9414 49.5359 89.0686 49.4455 89.0304 49.4957C89.0099 49.5397 88.9797 49.5805 88.9414 49.6163C88.9414 49.6163 88.9413 49.6163 88.8777 49.6163C88.8257 49.5913 88.7821 49.5568 88.7504 49.5158L88.6104 49.1944C88.534 48.9634 88.4449 48.7324 88.3558 48.4914C87.9724 47.4172 87.7125 46.318 87.5793 45.207C87.3861 43.9128 87.5688 42.6008 88.1136 41.3705C88.6583 40.1402 89.5508 39.0239 90.7235 38.1061C91.7312 37.7312 92.7847 37.4384 93.8677 37.2323H97.3301C96.4275 37.5523 95.6108 38.0058 94.9242 38.5681ZM158.788 35.1431C157.63 34.5405 156.166 33.7571 154.689 32.823C152.663 31.5512 150.777 30.1468 149.05 28.6247C148.261 27.9217 147.574 27.2588 147.014 26.6863C146.861 26.5457 146.95 26.6863 146.899 26.6059C146.848 26.5256 146.403 26.2042 148.287 27.0178C152.122 28.7656 155.714 30.8258 159.005 33.1645C159.947 33.8375 160.812 34.5104 161.551 35.1231L158.788 35.1431ZM178.061 35.1431H170.881C170.678 35.0427 170.461 34.9423 170.283 34.8418C169.7 34.5758 169.194 34.2155 168.799 33.7845C168.404 33.3535 168.129 32.8616 167.992 32.341C167.924 31.9288 168.036 31.5108 168.31 31.1558C168.423 31.0236 168.575 30.9146 168.752 30.8378C168.929 30.7609 169.126 30.7185 169.328 30.7139C170.256 30.7325 171.174 30.8612 172.053 31.0955C174.443 31.7756 176.759 32.6086 178.977 33.5864C179.041 33.5864 179.067 33.5864 179.117 33.5864C178.53 33.9839 178.15 34.5381 178.048 35.1431H178.061ZM189.238 35.1431H184.884C184.636 34.5974 184.194 34.1197 183.611 33.7672C183.292 33.5674 182.941 33.402 182.567 33.275C183.309 32.6697 184.133 32.1307 185.024 31.668C185.997 31.1675 187.056 30.7786 188.168 30.513C189.288 30.2619 190.09 30.3623 190.612 31.1056C190.85 31.4998 190.961 31.9338 190.936 32.3698C190.912 32.8057 190.753 33.2303 190.472 33.6065C190.116 34.1471 189.698 34.6614 189.225 35.1431H189.238Z" fill="#589A43" fill-opacity="0.34"/>
<path d="M188.066 48.1499C188.666 48.0571 189.234 47.8661 189.734 47.5893C190.234 47.3125 190.654 46.956 190.969 46.5429C191.474 45.8906 191.681 45.1213 191.554 44.3634C191.381 43.5044 190.885 42.7064 190.129 42.0734C188.588 40.7075 186.437 40.3358 184.413 39.221C183.955 38.9397 183.993 39.2209 184.477 39.8336C185.184 40.5914 185.986 41.2913 186.87 41.9227C187.696 42.5037 188.3 43.2551 188.614 44.0922C188.74 44.4603 188.681 44.8526 188.448 45.187C188.231 45.4769 187.88 45.6892 187.468 45.7796C186.792 45.9257 186.081 45.9463 185.393 45.8398C184.253 45.5698 183.256 45.0124 182.555 44.2529C180.938 42.6057 179.945 40.8682 180.009 41.752C180.075 43.6383 180.976 45.4468 182.555 46.8643C183.261 47.428 184.137 47.8415 185.101 48.0663C186.065 48.2911 187.085 48.3198 188.066 48.1499Z" fill="#589A43" fill-opacity="0.34"/>
<path d="M44.7571 51.9163C45.5764 52.1805 46.4302 52.3725 47.303 52.4888C49.2341 52.6858 51.1893 52.6858 53.1204 52.4888C57.1302 52.1574 61.7256 51.6853 66.2827 51.0325C67.6193 51.846 68.1031 52.308 67.5557 51.5045C67.3775 51.2936 67.1738 51.1028 66.9829 50.9019C67.0465 50.9019 66.9829 50.8417 66.8938 50.8115C64.0888 48.125 60.137 46.3392 55.7809 45.7896C52.35 45.3404 48.8287 45.6391 45.5972 46.6534C45.2173 46.768 44.8473 46.9021 44.4898 47.0551C43.8631 47.2852 43.2699 47.5681 42.7203 47.8988C42.0839 48.2805 41.4474 48.6621 40.7727 49.0639C41.3583 49.6062 41.9056 50.1385 42.5294 50.6307C42.9275 50.9203 43.3531 51.1856 43.8023 51.4242C44.1048 51.6066 44.4239 51.7711 44.7571 51.9163ZM45.3935 49.4255C45.5972 49.3451 46.0809 49.1141 46.4501 48.9835C48.1804 48.4244 50.0015 48.0593 51.8602 47.8988C54.6414 47.6463 57.459 47.869 60.1216 48.5517C62.1162 49.057 63.9883 49.8244 65.659 50.8215C64.106 50.7311 61.2291 50.6809 57.9449 50.6809C55.0298 50.6809 51.7965 50.7914 49.3524 50.5504C48.303 50.4649 47.2743 50.262 46.2973 49.9477C45.9986 49.8468 45.7094 49.7294 45.4317 49.5962C45.4317 49.5962 45.3172 49.5962 45.3426 49.5962C45.3304 49.5716 45.3288 49.5445 45.338 49.5191C45.3472 49.4937 45.3667 49.4714 45.3935 49.4556V49.4255Z" fill="#589A43" fill-opacity="0.34"/>
<path d="M38.6341 77.8794C39.268 78.0367 39.9479 78.0367 40.5818 77.8794C41.1599 77.7356 41.7119 77.5331 42.2239 77.2768C43.1786 76.8249 44.3115 76.2725 45.5463 75.6598C48.2429 74.3329 50.7633 72.7952 53.0694 71.0698C54.955 69.6615 56.4993 67.9937 57.6266 66.1483C58.314 64.8627 58.4031 64.3404 57.7794 65.1439C55.068 68.4283 51.0455 70.6078 47.4812 72.3052C45.6863 73.1589 43.9806 73.8921 42.4785 74.5249L40.4163 75.3987C40.2177 75.485 40.0088 75.5557 39.7925 75.6096C39.7925 75.6096 39.7925 75.6095 39.7925 75.489C39.8821 74.9126 40.1631 74.3652 40.6072 73.9021C42.5063 71.7436 44.748 69.7859 47.2775 68.0768C50.8635 65.6391 54.9258 63.6752 59.3069 62.2614C61.5601 61.6286 56.29 62.0002 50.5108 64.2701C47.6158 65.4326 44.9278 66.8915 42.5167 68.6091C40.8563 69.797 39.3548 71.1163 38.0359 72.5462C37.475 73.1479 37.0685 73.8303 36.8393 74.555C36.655 75.1216 36.655 75.7159 36.8393 76.2825C36.9551 76.6393 37.1807 76.968 37.496 77.2395C37.8113 77.5111 38.2066 77.7171 38.6469 77.8393L38.6341 77.8794Z" fill="#589A43" fill-opacity="0.34"/>
<path d="M348.09 40.7777C349.281 39.6467 350.354 38.4408 351.297 37.172H366.051C366.051 36.5694 366.051 35.9668 366.051 35.3742H319.181C318.803 32.8724 317.944 30.4305 316.635 28.1326C315.416 26.0328 313.547 24.2089 311.199 22.8295C310.599 22.4884 309.96 22.1925 309.29 21.9456C308.773 21.7298 308.205 21.5999 307.622 21.564C307.236 21.5275 306.844 21.564 306.479 21.6705C306.113 21.7771 305.785 21.9505 305.522 22.1767C304.997 22.7032 304.747 23.3676 304.822 24.0347C304.828 24.5932 304.887 25.1506 305 25.702C305.303 27.0143 305.921 28.2688 306.82 29.3981C307.825 30.6955 309.203 31.7886 310.841 32.5893C312.479 33.39 314.333 33.876 316.253 34.0082C318.086 34.0082 314.013 33.7069 310.894 31.0453C309.347 29.7617 308.258 28.1782 307.737 26.4553C307.529 25.7612 307.435 25.049 307.457 24.336C307.457 23.5124 307.457 23.8339 307.457 23.7535C307.457 23.7535 307.457 23.7535 307.724 23.7535C308.338 23.9534 308.926 24.1988 309.481 24.4867C310.785 25.1886 311.955 26.0342 312.956 26.9977C314.452 28.4738 315.674 30.1107 316.584 31.8589C317.259 33.1545 317.857 34.3798 318.29 35.3541H293.722C293.219 35.0081 292.789 34.6013 292.449 34.1488C291.757 33.1659 291.324 32.083 291.176 30.965C290.959 29.8702 290.807 28.7754 290.501 27.7911C290.235 26.9221 289.806 26.0894 289.228 25.3204C288.877 24.8526 288.449 24.4237 287.955 24.0448C287.542 23.7317 287.08 23.4617 286.58 23.2413C286.041 23.0104 285.468 22.8317 284.875 22.7089C284.684 22.7089 284.442 22.5885 284.022 22.4981C283.831 23.0706 283.627 23.7234 283.411 24.4365L283.258 24.9688L283.182 25.3003C283.182 25.5112 283.092 25.7422 283.054 25.9832C282.852 27.0571 282.814 28.1462 282.94 29.2273C283.087 30.4863 283.606 31.7006 284.455 32.7728C284.815 33.2048 285.243 33.5995 285.727 33.9479C285.148 33.7075 284.591 33.4357 284.06 33.1344C280.241 31.1256 276.626 27.4898 275.353 26.4955C274.704 25.9531 273.724 25.1094 272.654 24.1452C271.509 23.0705 267.728 19.6456 264.762 16.5923C261.796 13.539 259.466 10.9577 260.192 12.3036C262.87 17.0179 266.333 21.4292 270.49 25.4208C271.216 26.1238 272.272 27.0579 273.469 28.0121C275.362 29.6076 277.404 31.0882 279.579 32.4414C281.946 33.9479 284.757 34.9569 287.751 35.3742H225.491C222.014 32.3017 218.178 29.4938 214.035 26.9876L213.347 26.5758C213.022 26.3944 212.677 26.2364 212.316 26.1037C211.907 25.9588 211.481 25.8477 211.043 25.7723C210.376 25.6653 209.683 25.7214 209.057 25.933C208.685 26.0757 208.365 26.2906 208.127 26.5576C207.888 26.8247 207.74 27.135 207.695 27.4597C207.672 27.8291 207.746 28.1981 207.913 28.5438C208.079 28.8895 208.335 29.2043 208.663 29.4684C209.701 30.2616 210.811 30.9934 211.985 31.658C214.701 33.2243 217.706 34.4507 220.896 35.2938C222.449 35.6554 219.381 34.2894 216.084 32.2807C214.418 31.2345 212.833 30.111 211.336 28.916C210.958 28.6547 210.632 28.35 210.369 28.0121C211.082 28.071 211.748 28.3229 212.253 28.7252L221.227 33.8174L224.142 35.4847L199.116 35.2737C199.205 35.8763 200.134 36.6799 200.185 37.2825H228.585C226.637 37.8705 224.748 38.5722 222.933 39.3817C220.489 40.4702 218.165 41.7165 215.982 43.1079C214.009 44.3533 212.163 45.7695 212.163 47.7481C212.163 48.2201 212.316 48.6721 212.393 49.1341C213.465 49.2547 214.553 49.2547 215.626 49.1341C216.29 49.0363 216.939 48.8814 217.561 48.6722C219.358 48.0113 221.023 47.1449 222.5 46.1009L228.865 42.0232C233.04 39.2913 236.375 37.0013 234.593 37.7947C230.774 39.5223 227.057 41.3703 223.913 43.0175C220.769 44.6647 218.235 46.2014 216.657 46.6634C216.246 46.8038 215.82 46.9147 215.384 46.9948C215.04 47.045 215.206 46.9948 215.155 47.0451H215.078C215.078 47.0451 215.078 47.0451 215.002 47.0451C214.995 47.022 214.995 46.9979 215.002 46.9748C215.076 46.8254 215.166 46.681 215.269 46.5429C215.604 46.1336 215.992 45.7532 216.428 45.4079C217.472 44.5944 218.745 43.6503 220.17 42.7061C223.226 40.6882 226.482 38.8677 229.908 37.2624H281.781C280.954 37.5235 280.05 37.8248 279.095 38.1663C277.746 38.6384 276.346 39.1707 275.035 39.7231C275.035 39.3917 274.971 39.3415 274.755 39.7934C272.361 40.7978 270.312 41.8022 269.485 42.214C268.657 42.6258 267.728 43.1581 266.57 43.821C263.598 45.4874 260.786 47.3236 258.155 49.3149C257.353 49.9175 256.615 50.5001 255.979 51.0224C254.4 51.6551 252.809 52.2578 251.256 52.8001C249.667 53.3947 248.025 53.8949 246.342 54.2966C245.768 54.4246 245.16 54.4246 244.586 54.2966C244.198 54.2137 243.862 54.0206 243.644 53.7543C243.376 53.4128 243.644 52.8102 244.013 52.308C244.778 51.4237 245.629 50.5876 246.559 49.8071C248.42 48.3263 250.569 47.0888 252.923 46.1411C256.327 44.7836 260.06 44.0164 263.871 43.8913C265.831 43.8913 261.643 42.8869 256.424 43.6302C253.808 44.0061 251.291 44.7258 248.977 45.7594C247.376 46.472 245.896 47.3428 244.573 48.3507C243.519 49.1767 242.58 50.0891 241.772 51.0726C241.286 51.6527 240.989 52.3186 240.907 53.0111C240.843 53.5842 241.003 54.1588 241.365 54.6582C241.767 55.1915 242.373 55.6101 243.096 55.8534C243.793 56.0771 244.541 56.1837 245.293 56.1664C246.045 56.1491 246.783 56.0083 247.462 55.753C248.659 55.3267 249.82 54.8402 250.938 54.2966C252.121 53.7342 253.203 53.1517 254.12 52.6294C253.674 53.0914 253.598 53.2822 254.12 52.991L267.944 45.6188C267.792 45.7895 267.652 45.9704 267.499 46.1612C265.999 48.1258 265.032 50.3146 264.66 52.5892C264.507 53.5454 264.486 54.5119 264.596 55.4717C264.636 56.2112 264.843 56.9392 265.207 57.6211C265.517 58.0545 266.006 58.3908 266.592 58.5737C267.178 58.7565 267.827 58.7748 268.428 58.6255C269.073 58.4849 269.65 58.1945 270.083 57.7919C270.467 57.4301 270.76 57.0144 270.948 56.5665C271.699 54.4071 273.774 46.2114 274.627 41.9729C277.173 40.627 280.381 38.9598 283.703 37.2021H315.527L315.145 37.4532C312.042 38.0429 309.048 38.9442 306.235 40.1349C303.154 41.4247 300.282 43.0029 297.681 44.8354C296.601 45.5958 295.573 46.4003 294.6 47.2459L293.505 48.2503C293.201 48.5407 292.932 48.8536 292.703 49.1844C292.438 49.5472 292.261 49.9456 292.181 50.3595C292.114 50.6722 292.127 50.9922 292.219 51.301C292.311 51.6097 292.48 51.9009 292.716 52.1573C293.255 52.6593 293.999 52.9965 294.82 53.1103C295.641 53.224 296.486 53.1072 297.21 52.78H297.273C298.186 52.3569 299.003 51.8173 299.692 51.1831L302.594 48.7927L309.519 42.9371C312.065 40.7576 314.318 38.779 315.464 37.6843H315.566C316.278 37.4733 316.278 37.3829 315.769 37.4332L315.922 37.2724H319.053C319.206 37.5135 319.283 37.5235 319.283 37.2724H345.276C344.045 37.7607 342.854 38.3109 341.712 38.9196C339.689 40.0003 337.816 41.2459 336.124 42.6358C335.347 43.2887 334.673 43.9114 334.138 44.4437C333.666 44.8374 333.343 45.3282 333.209 45.8598C333.138 46.2467 333.227 46.6412 333.463 46.9848C333.717 47.34 334.087 47.6347 334.535 47.8379C334.983 48.0412 335.492 48.1454 336.009 48.1398C337.021 48.0716 337.986 47.7714 338.784 47.2761C342.298 45.5078 345.438 43.3149 348.09 40.7777ZM268.543 55.7329C268.199 56.5766 267.702 56.6268 267.652 56.5565C267.498 56.208 267.392 55.8478 267.333 55.4818C267.232 54.9729 267.168 54.4599 267.142 53.9451C267.094 52.659 267.252 51.3732 267.613 50.1185C268.258 47.9242 269.396 45.8389 270.974 43.9616L271.063 43.9114C271.7 43.5498 272.54 43.0979 273.507 42.5856C271.114 48.0695 269.37 53.2923 268.543 55.7329ZM291.85 35.3742H290.336C290.616 35.2838 289.585 35.1934 288.006 34.7715C286.836 34.044 285.953 33.0685 285.46 31.9593C284.908 30.5903 284.781 29.1365 285.091 27.7208C285.206 27.044 285.372 26.3733 285.587 25.712L285.651 25.4911C286.045 25.7512 286.388 26.0558 286.669 26.3951C287.363 27.2969 287.87 28.28 288.172 29.3077C288.567 31.0306 289.311 32.6922 290.374 34.2292C290.791 34.6668 291.289 35.0527 291.85 35.3742ZM304.185 45.0664L299.552 48.4914C298.553 49.3143 297.481 50.0796 296.344 50.7813C296.155 50.8674 295.948 50.9253 295.733 50.952C295.547 50.9679 295.359 50.9472 295.186 50.8918C295.109 50.8918 295.096 50.8918 295.058 50.7612C295.052 50.5152 295.141 50.2735 295.313 50.0682C295.661 49.6354 296.052 49.2256 296.484 48.8429C296.98 48.3708 297.54 47.8385 298.164 47.3162C299.581 46.1057 301.094 44.9685 302.696 43.9114C306.168 41.632 309.997 39.7146 314.089 38.2065C310.525 40.5668 307.126 42.9371 304.185 45.0664ZM336.506 45.8398C336.506 45.8398 336.442 45.9001 336.327 45.8398C336.309 45.8193 336.299 45.7947 336.299 45.7695C336.299 45.7443 336.309 45.7197 336.327 45.6992C336.467 45.5184 336.926 45.0162 337.282 44.6948C338.059 43.8913 339.001 42.9974 340.083 42.0633C342.207 40.2684 344.542 38.6373 347.058 37.1921H350.457C346.671 40.3156 342.393 43.043 337.728 45.3074C337.338 45.5235 336.929 45.7181 336.506 45.89V45.8398Z" fill="#589A43" fill-opacity="0.34"/>
<path d="M266.264 23.1408C263.437 25.1234 259.854 26.3072 256.08 26.5055C253.499 26.6649 250.906 26.3486 248.506 25.5815C248.074 25.451 247.233 25.0793 247.399 25.1898C247.399 25.1898 247.246 25.1898 247.284 25.1195C247.277 25.0998 247.277 25.0789 247.284 25.0592C247.479 24.9594 247.683 24.8721 247.895 24.7981C248.41 24.5853 248.952 24.4169 249.512 24.2959C251.016 24.0008 252.558 23.8392 254.107 23.8138C257.684 23.6933 261.809 23.4823 265.895 23.1007C267.817 22.9299 263.654 22.6085 258.55 22.3373C255.915 22.1357 253.265 22.0753 250.619 22.1566C249.409 22.2259 248.22 22.4427 247.093 22.7994C246.607 22.9633 246.142 23.1651 245.706 23.402C245.248 23.6692 244.822 23.9684 244.433 24.2959C244.166 24.5771 243.847 24.8885 243.504 25.23L243.236 25.4911C243.134 25.5815 243.414 25.6317 243.491 25.712L244.28 26.144C244.834 26.4739 245.417 26.7726 246.024 27.0378C246.559 27.2387 246.864 27.3593 247.297 27.5099C249.074 28.0651 250.962 28.3644 252.873 28.3938C255.597 28.4445 258.299 27.9941 260.765 27.078C262.738 26.3604 264.478 25.2993 265.857 23.9745C266.748 23.0304 266.99 22.6487 266.264 23.1408Z" fill="#589A43" fill-opacity="0.34"/>
<path d="M250.785 3.5655C249.219 2.6716 247.717 1.93841 246.393 1.3157L244.535 0.472056C244.179 0.317058 243.804 0.192421 243.415 0.10038C242.909 0.000455178 242.38 0.000455178 241.874 0.10038C241.206 0.215955 240.621 0.533152 240.245 0.984238C240.042 1.23154 239.904 1.50804 239.838 1.79778C239.818 1.95476 239.818 2.11289 239.838 2.26987C239.838 2.40044 239.838 2.51092 239.838 2.64149C240.006 3.53012 240.507 4.35886 241.276 5.02186C243.243 6.94247 245.585 8.60377 248.214 9.94333C251.741 11.7726 255.759 12.9312 259.95 13.3281C261.974 13.4386 257.672 12.6953 253.165 10.5861C250.902 9.52723 248.801 8.26686 246.902 6.82972C245.621 5.83311 244.426 4.76942 243.325 3.64586C243.002 3.35535 242.763 3.01255 242.625 2.64149C242.485 2.1393 242.511 2.26983 242.625 2.1694C242.625 2.1694 242.625 2.1694 242.765 2.1694C243.083 2.24973 243.39 2.35406 243.682 2.48081L246.622 3.70612C249.02 4.6716 251.311 5.79375 253.471 7.06077C257.799 9.55163 259.67 12.9363 259.021 11.3394C257.442 7.89436 253.878 5.32316 250.785 3.5655Z" fill="#589A43" fill-opacity="0.34"/>
<path d="M270.809 7.58305H270.63C270.121 7.77271 269.682 8.06342 269.357 8.42675C269.065 8.71248 268.793 9.01093 268.543 9.32067C267.955 10.0579 267.489 10.851 267.155 11.6809C266.355 13.607 266.391 15.6885 267.257 17.5967C267.741 18.4505 267.372 16.5923 268.148 14.3525C268.527 13.2397 269.128 12.1818 269.93 11.2189C270.267 10.8122 270.637 10.423 271.038 10.0538L271.496 9.66212C271.496 9.66212 271.598 9.50142 271.776 9.91321C271.816 10.1599 271.816 10.4097 271.776 10.6564C271.661 11.0984 271.547 11.6609 271.407 12.2032C271.139 13.3884 270.847 14.7844 270.605 16.06C270.121 18.6111 269.841 20.7103 270.363 19.8264C271.423 18.0109 272.354 16.1499 273.151 14.2521C273.507 13.3984 273.813 12.615 274.067 11.922C274.37 11.2378 274.521 10.5174 274.513 9.79269C274.469 9.19414 274.163 8.62624 273.647 8.18571C273.302 7.87522 272.849 7.65224 272.344 7.54498C271.838 7.43773 271.304 7.45097 270.809 7.58305Z" fill="#589A43" fill-opacity="0.34"/>
<path d="M543.883 35.1431C544.162 34.9133 544.425 34.6719 544.672 34.42C546.174 33.0039 546.569 30.0911 543.717 28.8156C542.56 28.4043 541.252 28.34 540.039 28.6348C539.135 28.8073 538.256 29.0529 537.416 29.368L536.843 29.599C536.843 29.599 536.589 29.6994 536.551 29.6693C536.512 29.6391 536.551 29.6693 536.551 29.4483C536.551 28.7051 536.551 27.9016 536.551 27.078C536.551 26.616 536.487 26.0736 536.436 25.5212C536.41 24.8038 536.251 24.0933 535.965 23.412C535.74 22.9265 535.357 22.4964 534.854 22.1649C534.351 21.8334 533.746 21.6123 533.101 21.5238C532.467 21.4499 531.821 21.4805 531.203 21.6137C530.586 21.7468 530.009 21.9795 529.511 22.2972C527.398 23.7334 527.525 26.0334 528.327 27.7308C529.132 29.4906 530.608 31.0101 532.554 32.0798C533.47 32.5318 533.025 32.1501 532.095 31.1758C530.776 29.7818 529.97 28.1275 529.766 26.3951C529.7 25.9644 529.749 25.5276 529.909 25.1125C530.069 24.6975 530.336 24.3134 530.695 23.9845C530.987 23.7793 531.347 23.6447 531.733 23.5966C532.119 23.5485 532.514 23.589 532.872 23.7133C533.215 23.8338 533.419 24.5068 533.432 25.3304C533.445 26.154 533.432 26.7967 533.496 27.2186C533.573 28.9796 533.475 30.7426 533.203 32.4916V32.5518C533.203 32.7226 533.139 32.9335 533.114 33.1545C532.8 33.2326 532.506 33.3551 532.248 33.5161C531.235 32.4252 530.015 31.4633 528.633 30.6637C527.184 29.7556 525.53 29.0738 523.757 28.6549C522.798 28.4013 521.764 28.3837 520.791 28.6046C520.093 28.8061 519.477 29.1533 519.009 29.609C518.563 30.0196 518.232 30.5011 518.041 31.0209C517.85 31.5406 517.803 32.0866 517.902 32.6221C518.081 33.6159 518.667 34.5364 519.569 35.2436H516.056C514.37 33.1496 512.374 31.221 510.111 29.4985C507.943 27.8465 505.558 26.3819 502.996 25.1295C502.249 24.7247 501.423 24.4193 500.551 24.2256C499.779 24.054 498.954 24.114 498.235 24.3941C497.516 24.6741 496.953 25.1543 496.656 25.7422C496.508 26.1213 496.49 26.5248 496.604 26.9113C496.718 27.2978 496.96 27.6534 497.305 27.9418C497.929 28.5344 498.26 28.8156 498.846 29.2977C500.032 30.287 501.309 31.2067 502.665 32.0496C504.734 33.3132 506.981 34.3849 509.36 35.2436H475.894C475.754 35.103 475.614 34.9724 475.462 34.8418C475.818 34.9021 476.174 34.9925 476.531 35.0427C478.033 35.2135 477.002 34.9323 474.736 34.179C471.426 31.1658 468.091 28.2732 465.1 25.7723L460.084 21.6745C458.811 20.5328 457.385 19.5024 455.833 18.6011C455.139 18.2716 454.345 18.0975 453.535 18.0975C452.725 18.0975 451.931 18.2716 451.237 18.6011C450.763 18.8394 450.372 19.1672 450.099 19.5547C449.825 19.9422 449.678 20.3773 449.671 20.8207C449.705 21.5614 450.015 22.2778 450.563 22.8797C451.077 23.4587 451.656 23.9999 452.294 24.4968C452.93 25.0391 453.669 25.6116 454.47 26.2042C456.285 27.5397 458.235 28.7557 460.301 29.8401C464.461 32.0163 469.057 33.6225 473.896 34.5907L474.927 35.2838H440.557C439.386 34.7515 437.718 34.0383 435.885 33.275C434.052 32.5117 431.812 31.4571 429.979 30.5833C428.706 23.7334 426.873 17.5264 425.804 14.3023C425.466 13.356 424.683 12.5473 423.614 12.0425C423.255 11.8947 422.868 11.793 422.468 11.7412C421.999 11.6613 421.513 11.6613 421.043 11.7412C420.566 11.8425 420.129 12.0361 419.771 12.3044C419.413 12.5727 419.146 12.9074 418.993 13.2779C418.766 13.8682 418.638 14.4793 418.611 15.0958C418.554 15.7646 418.554 16.4357 418.611 17.1046C418.736 18.7193 419.165 20.3102 419.884 21.8251C421.054 24.2596 422.883 26.4635 425.243 28.2832C424.441 27.9116 423.283 27.3693 421.972 26.7265C420.661 26.0837 415.684 23.633 411.788 21.4535L409.93 20.4491C409.842 20.3313 409.725 20.2288 409.586 20.1478C407.86 18.9458 406.022 17.8479 404.087 16.8635C402.265 15.8889 400.315 15.0739 398.27 14.4329C397.125 14.071 395.861 14.0186 394.675 14.284C393.489 14.5493 392.447 15.1174 391.714 15.8993C391.414 16.2807 391.213 16.705 391.121 17.1479C391.029 17.5908 391.049 18.0437 391.179 18.4805C391.341 19.0785 391.634 19.6496 392.045 20.1679C393.052 21.3863 394.293 22.4738 395.724 23.3919C398.227 25.0903 401.123 26.3898 404.252 27.2186C408.447 28.3336 412.961 28.4662 417.249 27.6003C419.248 27.078 414.703 27.7007 409.51 26.5959C406.894 26.0689 404.392 25.2361 402.088 24.1251C400.524 23.3573 399.049 22.48 397.684 21.5037C396.596 20.7461 395.61 19.9013 394.743 18.9827C394.419 18.6166 394.19 18.2036 394.069 17.7674C394.011 17.5103 394.064 17.2452 394.218 17.0143C394.372 16.7833 394.62 16.5994 394.922 16.4918C396.475 15.5979 399.555 16.7229 402.076 17.5766C403.769 18.1491 405.334 18.7416 406.607 19.2438C410.614 22.8231 415.177 25.9885 420.19 28.6649C421.42 29.3101 422.695 29.9002 424.009 30.4326C425.383 31.0553 427.497 31.9392 430.055 32.8532C430.475 33.6868 430.692 33.9078 430.564 33.1444C430.564 33.1444 430.564 33.0641 430.564 33.0239C432.967 33.8718 435.427 34.6129 437.935 35.2436H384.343C382.919 35.3805 381.476 35.3192 380.079 35.0628C379.764 34.9687 379.458 34.858 379.162 34.7314C375.381 33.1681 371.759 31.3749 368.33 29.368C365.914 28.0692 363.767 26.4837 361.965 24.6675C363.967 24.9211 365.853 25.5784 367.439 26.5758C372.314 29.137 377.202 31.668 382.192 34.0685C383.057 34.5236 383.989 34.8946 384.967 35.1733C380.779 31.9392 376.133 29.0968 371.576 26.2042C369.807 24.979 367.863 23.9206 365.784 23.0505C363.681 22.1749 361.246 21.9356 358.935 22.3775C358.637 23.3432 358.686 24.3551 359.075 25.3003C359.631 26.3122 360.508 27.1942 361.621 27.8614C363.73 29.2877 366.016 30.5428 368.444 31.6078C371.328 32.9473 374.405 34.0095 377.609 34.7715C378.662 34.8977 379.625 35.3098 380.334 35.9366C379.524 36.0317 378.708 36.0921 377.889 36.1174C377.044 36.0438 376.194 36.0135 375.344 36.027C374.499 36.1709 373.715 36.482 373.065 36.931L371.219 38.0057C367.103 40.4095 362.987 42.8066 358.872 45.197C358.164 45.6366 357.415 46.0328 356.631 46.3821C356.562 46.4241 356.476 46.4455 356.389 46.4424C356.315 46.4259 356.251 46.3876 356.211 46.3354C356.171 46.2832 356.157 46.221 356.173 46.1612C356.211 46.0425 356.29 45.9346 356.402 45.8498C358.21 44.1955 360.127 42.6164 362.143 41.1192C364.167 39.6227 366.458 38.3371 368.508 36.8808L366.586 37.2825H366.853C364.949 37.965 363.122 38.7749 361.392 39.7031C359.26 40.8353 357.25 42.1052 355.384 43.4996C354.926 43.832 354.5 44.1912 354.111 44.5743C353.572 45.1034 353.244 45.7464 353.169 46.4224C353.131 46.933 353.311 47.4388 353.68 47.8593C354.049 48.2798 354.586 48.5908 355.205 48.7425C356.158 48.8681 357.135 48.8064 358.049 48.5629C358.964 48.3194 359.789 47.9015 360.45 47.3464C363.74 45.2443 366.888 43.0082 369.883 40.6472C371.55 39.3415 373.001 38.1262 373.918 37.2825H443.93C442.138 37.6221 440.421 38.1741 438.839 38.9196C433.67 41.3 429.342 45.4179 427.98 46.6232C427.293 47.2961 426.198 48.3206 425.053 49.4957C422.102 52.4637 419.426 55.5954 417.046 58.8665C414.232 62.7033 412.412 65.9876 413.685 64.6719C415.633 62.6631 417.58 60.6544 419.401 58.8766C419.154 60.0639 419.154 61.2749 419.401 62.4622C419.71 64.0275 420.387 65.5332 421.399 66.9016C421.834 67.4955 422.337 68.0569 422.901 68.5789C423.181 68.82 423.334 68.9907 423.652 69.2317C423.994 69.4981 424.401 69.7066 424.849 69.8444L425.294 69.9348C425.724 69.9846 426.163 69.963 426.581 69.8713C427 69.7796 427.39 69.6199 427.726 69.4025C428.118 69.1541 428.44 68.8426 428.668 68.4885C428.888 68.1436 429.022 67.7685 429.062 67.3837C429.117 66.8593 429.048 66.3315 428.859 65.8269C428.668 65.2544 428.413 64.702 428.146 64.0391C427.586 62.7435 426.873 61.2369 426.262 59.8609C424.989 57.1089 423.78 54.8892 423.881 56.0041C424.085 58.2689 424.455 60.5224 424.989 62.7535C425.396 64.702 426.134 66.6203 426.02 67.0824C426.016 67.1973 425.981 67.3102 425.918 67.4138C425.918 67.4138 425.918 67.4942 425.829 67.5343C425.944 67.7051 425.167 67.1426 424.556 66.6003C423.82 65.9579 423.164 65.2617 422.596 64.5212C421.178 62.6287 420.289 60.5195 419.986 58.3343C423.079 55.2609 425.74 52.6595 427.344 51.163C428.146 50.3796 429.279 49.3049 430.424 48.1499C431.761 46.8944 433.785 44.8454 436.407 42.686C437.823 41.5062 439.384 40.4397 441.066 39.5022C440.447 40.0683 439.933 40.7006 439.539 41.3804C438.527 43.2432 438.158 45.2843 438.469 47.2962C438.574 48.1577 438.749 49.0132 438.991 49.8573L439.22 50.6005L439.539 51.5447C439.742 52.1372 439.933 52.6696 440.099 53.1316L441.372 52.7499C442.404 52.487 443.357 52.0597 444.172 51.4944C444.851 51.0057 445.423 50.4323 445.865 49.797C446.766 48.5304 447.334 47.1331 447.533 45.6891C447.692 43.841 448.158 42.0175 448.92 40.2655C449.288 39.5855 449.833 38.9739 450.519 38.4705C451.206 37.967 452.018 37.5828 452.905 37.3427H479.497C478.276 40.23 476.725 43.0237 474.863 45.6891C473.454 47.6524 471.542 49.3627 469.25 50.711C468.766 50.9621 468.193 51.2735 467.531 51.5547C466.869 51.8359 466.933 51.8058 466.793 51.8159C466.547 51.1442 466.482 50.4395 466.602 49.7468C466.73 48.4484 467.13 47.1757 467.786 45.9804C468.63 44.4412 469.853 43.0489 471.382 41.8837C472.911 40.7185 474.717 39.8033 476.696 39.1908C477.74 38.8995 477.091 38.8392 475.423 39.0803C472.976 39.5415 470.724 40.5007 468.893 41.8624C466.592 43.5243 464.932 45.6656 464.107 48.0394C463.774 49.022 463.612 50.0355 463.623 51.0525C463.6 51.5393 463.665 52.0262 463.814 52.4988C463.961 52.9707 464.299 53.3919 464.777 53.6983C465.255 54.0047 465.846 54.1796 466.462 54.1962C467.09 54.2092 467.715 54.1167 468.295 53.925C469.193 53.5958 470.046 53.1953 470.841 52.7298C472.529 51.7568 473.982 50.5525 475.131 49.1743C476.746 47.2463 477.95 45.1223 478.695 42.8869C479.313 41.0692 479.772 39.2201 480.07 37.3528H516.998C517.685 37.9052 517.953 38.0558 517.584 37.4633L517.507 37.3528H524.458L524.916 37.4332C525.398 37.5056 525.889 37.5392 526.38 37.5336C525.611 37.7431 524.876 38.0229 524.19 38.3672C520.677 40.0646 518.284 43.7005 519.378 45.7293C519.687 46.2851 520.18 46.7651 520.805 47.1186C521.43 47.4721 522.164 47.6861 522.93 47.7381C525.03 48.0796 529.384 46.4625 531.624 43.9214C532.543 42.9204 533.073 41.7307 533.152 40.4965C533.152 39.6729 532.948 39.3816 532.783 39.8738C531.933 41.7601 530.203 43.3192 527.945 44.2328C527.064 44.6098 526.139 44.9193 525.183 45.1568C524.617 45.3186 524.014 45.3836 523.414 45.3477C523.169 45.3424 522.929 45.2957 522.709 45.2108C522.49 45.1259 522.296 45.0047 522.141 44.8555C521.784 44.5642 522.141 42.8468 523.414 41.3301C524.856 39.4724 527.056 38.056 529.651 37.3126H534.743C534.46 37.5555 534.093 37.7268 533.687 37.8048C532.998 37.9436 532.269 37.8793 531.637 37.624C531.166 37.4231 530.873 37.2725 530.988 37.624C531.188 37.9918 531.483 38.3223 531.855 38.5945C532.227 38.8666 532.667 39.0742 533.147 39.2039C533.626 39.3335 534.135 39.3824 534.641 39.3473C535.146 39.3121 535.636 39.1938 536.08 39C536.937 38.649 537.586 38.0468 537.887 37.3226H557.223C557.491 36.6296 557.975 36.0069 558.28 35.3139L543.883 35.1431ZM466.971 30.9951C463.772 29.4723 460.785 27.6881 458.06 25.6719C456.787 24.7478 455.718 23.8238 454.827 23.0605L453.681 22.0561C453.453 21.8473 453.245 21.6258 453.058 21.3932C452.752 21.0015 452.714 20.7002 452.777 20.65C452.841 20.5998 453.478 20.2984 454.152 20.5797C454.916 20.7906 457.144 22.6487 459.753 24.4968L468.295 30.6134L471.834 33.0741C470.37 32.4916 468.689 31.8287 466.971 30.9951ZM428.311 29.6392C426.598 28.1805 425.13 26.5533 423.945 24.7981C422.608 22.7718 421.774 20.5628 421.488 18.2897C421.379 17.3677 421.379 16.4396 421.488 15.5176C421.542 15.0247 421.636 14.5349 421.768 14.0512C421.768 14.0512 421.768 13.9909 421.87 14.0512C422.029 14.0668 422.176 14.1233 422.29 14.2119C422.5 14.3974 422.664 14.612 422.774 14.8447C423.461 16.8535 426.516 24.9588 428.553 29.82L428.311 29.6392ZM447.838 38.5681C446.583 39.7746 445.71 41.2001 445.292 42.7262C444.847 44.062 444.567 45.2271 444.21 46.1612C443.939 46.9049 443.555 47.6199 443.065 48.2905C442.799 48.6492 442.488 48.9858 442.136 49.2949C441.855 49.5359 441.983 49.4455 441.945 49.4957C441.924 49.5397 441.894 49.5805 441.855 49.6163C441.855 49.6163 441.856 49.6163 441.792 49.6163L441.665 49.5158L441.537 49.1944C441.448 48.9634 441.372 48.7324 441.283 48.4914C440.889 47.4187 440.624 46.319 440.493 45.207C440.3 43.9128 440.483 42.6008 441.028 41.3705C441.572 40.1402 442.465 39.0239 443.638 38.1061C444.647 37.7343 445.7 37.4417 446.782 37.2323H450.244C449.344 37.555 448.528 38.0082 447.838 38.5681ZM511.69 35.1431C510.531 34.5405 509.08 33.7571 507.591 32.823C505.566 31.5538 503.684 30.1491 501.964 28.6247C501.162 27.9217 500.475 27.2588 499.915 26.6863C499.775 26.5457 499.915 26.6863 499.813 26.6059C499.711 26.5256 499.304 26.2042 501.188 27.0178C505.021 28.7681 508.613 30.8281 511.906 33.1646C512.836 33.8375 513.701 34.5104 514.452 35.1231L511.69 35.1431ZM530.962 35.1431H523.796L523.197 34.8418C522.613 34.5777 522.107 34.2178 521.714 33.7864C521.321 33.355 521.05 32.8621 520.919 32.341C520.838 31.9285 520.951 31.5069 521.237 31.1558C521.349 31.025 521.498 30.9168 521.673 30.84C521.848 30.7632 522.043 30.72 522.243 30.7139C523.17 30.7325 524.088 30.8612 524.967 31.0955C527.357 31.7756 529.673 32.6086 531.892 33.5864H532.032C531.445 33.9839 531.064 34.5381 530.962 35.1431ZM542.139 35.1431H537.798C537.547 34.5987 537.106 34.1216 536.525 33.7672C536.204 33.5653 535.848 33.3997 535.469 33.275C536.21 32.6697 537.034 32.1307 537.925 31.668C538.899 31.1675 539.958 30.7786 541.07 30.513C542.19 30.2619 542.992 30.3623 543.514 31.1056C543.75 31.4996 543.861 31.9329 543.839 32.3684C543.817 32.8038 543.662 33.2286 543.386 33.6065C543.025 34.145 542.608 34.6589 542.139 35.1431Z" fill="#589A43" fill-opacity="0.34"/>
<path d="M541.044 48.1499C541.641 48.0558 542.207 47.8642 542.704 47.5874C543.202 47.3107 543.621 46.9549 543.934 46.5429C544.445 45.8924 544.652 45.1215 544.519 44.3634C544.351 43.5053 543.858 42.7073 543.106 42.0734C541.553 40.7075 539.415 40.3358 537.391 39.221C536.92 38.9397 536.958 39.2209 537.391 39.8336C538.101 40.5891 538.903 41.2888 539.784 41.9227C540.613 42.5035 541.221 43.2546 541.541 44.0922C541.606 44.2748 541.624 44.4658 541.593 44.6539C541.563 44.8421 541.484 45.0234 541.362 45.187C541.145 45.4769 540.794 45.6892 540.382 45.7796C539.706 45.9257 538.996 45.9463 538.307 45.8398C537.168 45.5672 536.172 45.0103 535.469 44.2529C533.852 42.6057 532.923 40.8682 532.923 41.752C532.989 43.6383 533.89 45.4468 535.469 46.8643C536.183 47.4345 537.07 47.8519 538.045 48.0768C539.021 48.3017 540.053 48.3269 541.044 48.1499Z" fill="#589A43" fill-opacity="0.34"/>
<path d="M397.671 51.9163C398.47 52.177 399.302 52.369 400.153 52.4888C402.084 52.6858 404.04 52.6858 405.971 52.4888C409.981 52.1574 414.576 51.6853 419.133 51.0325C420.47 51.846 420.953 52.308 420.406 51.5045C420.228 51.2936 420.011 51.1028 419.82 50.9019C419.884 50.9019 419.82 50.8417 419.731 50.8115C416.929 48.1229 412.976 46.3366 408.619 45.7896C405.188 45.3404 401.666 45.6391 398.435 46.6534C398.058 46.7662 397.692 46.9004 397.34 47.0551C396.71 47.2806 396.117 47.5638 395.571 47.8988C394.934 48.2805 394.298 48.6621 393.61 49.0639C394.196 49.6062 394.756 50.1385 395.367 50.6307C395.763 50.9223 396.189 51.1877 396.64 51.4242C396.965 51.6113 397.31 51.7759 397.671 51.9163ZM398.308 49.4255C398.511 49.3451 399.008 49.1141 399.364 48.9835C401.086 48.4044 402.903 48.019 404.761 47.8385C407.543 47.587 410.36 47.8097 413.023 48.4914C415.016 48.9989 416.888 49.7661 418.56 50.7613C417.007 50.6709 414.118 50.6207 410.833 50.6207C407.931 50.6207 404.685 50.7312 402.254 50.4901C401.2 50.4059 400.167 50.2029 399.186 49.8875C398.887 49.7866 398.598 49.6691 398.32 49.5359C398.32 49.5359 398.206 49.5359 398.244 49.5359C398.282 49.5359 398.257 49.4857 398.308 49.4556V49.4255Z" fill="#589A43" fill-opacity="0.34"/>
<path d="M391.561 77.8794C392.195 78.0367 392.875 78.0367 393.509 77.8794C394.085 77.7316 394.636 77.5292 395.151 77.2768C396.093 76.8249 397.238 76.2725 398.46 75.6598C401.159 74.3354 403.68 72.7975 405.983 71.0698C407.869 69.6615 409.413 67.9937 410.541 66.1483C411.228 64.8627 411.33 64.3404 410.706 65.1439C407.982 68.4283 403.959 70.6078 400.408 72.3052C398.613 73.1589 396.895 73.8921 395.392 74.5249L393.343 75.3987C393.14 75.4855 392.927 75.5562 392.707 75.6096C392.707 75.6096 392.707 75.6095 392.707 75.489C392.796 74.9126 393.077 74.3652 393.521 73.9021C395.424 71.7461 397.666 69.7887 400.192 68.0768C403.78 65.6414 407.841 63.6777 412.221 62.2614C414.474 61.6286 409.204 62.0002 403.438 64.2701C400.539 65.4277 397.85 66.887 395.443 68.6091C393.776 69.7948 392.27 71.1143 390.95 72.5462C390.389 73.1479 389.983 73.8303 389.753 74.555C389.575 75.1222 389.575 75.7152 389.753 76.2825C389.871 76.64 390.099 76.969 390.417 77.2405C390.734 77.512 391.132 77.7177 391.574 77.8393L391.561 77.8794Z" fill="#589A43" fill-opacity="0.34"/>
<path d="M701.067 40.7777C702.252 39.6443 703.32 38.4387 704.262 37.172H719.029C719.029 36.5694 719.029 35.9668 718.965 35.3742H672.108C671.724 32.8732 670.866 30.432 669.562 28.1326C668.357 26.0207 666.496 24.1828 664.152 22.7893C663.552 22.4482 662.912 22.1523 662.242 21.9054C661.726 21.6883 661.158 21.5583 660.575 21.5238C660.188 21.4881 659.796 21.525 659.431 21.6315C659.066 21.738 658.738 21.911 658.474 22.1364C657.953 22.6639 657.707 23.3287 657.787 23.9946C657.78 24.5535 657.84 25.1117 657.965 25.6618C658.257 26.9766 658.875 28.2328 659.785 29.3579C660.789 30.6545 662.163 31.7472 663.8 32.548C665.436 33.3487 667.287 33.8351 669.205 33.968C671.038 33.968 666.965 33.6667 663.846 31.0051C662.299 29.7215 661.21 28.138 660.689 26.4151C660.488 25.7202 660.394 25.0086 660.409 24.2959C660.409 23.4723 660.409 23.7937 660.409 23.7133C660.409 23.7133 660.409 23.7133 660.677 23.7133C661.29 23.9131 661.878 24.1587 662.433 24.4466C663.737 25.1485 664.908 25.994 665.908 26.9575C667.408 28.4332 668.634 30.07 669.549 31.8187C670.224 33.1143 670.822 34.3396 671.255 35.3139H646.585C646.057 34.9741 645.605 34.5667 645.248 34.1087C644.563 33.1238 644.13 32.0418 643.975 30.9247C643.759 29.83 643.606 28.7352 643.301 27.7509C643.035 26.8819 642.606 26.0491 642.028 25.2801C641.677 24.8124 641.249 24.3835 640.755 24.0046C640.342 23.6916 639.88 23.4215 639.38 23.2011C638.844 22.9722 638.276 22.7936 637.687 22.6688C637.496 22.6688 637.241 22.5482 636.821 22.4578C636.643 23.0303 636.439 23.6832 636.21 24.3963L636.058 24.9286L635.981 25.2601C635.981 25.471 635.905 25.702 635.854 25.9431C635.65 27.017 635.616 28.1066 635.752 29.1872C635.899 30.4461 636.418 31.6604 637.267 32.7327C637.627 33.165 638.055 33.5597 638.54 33.9078C637.961 33.6674 637.404 33.3956 636.872 33.0942C633.053 31.0855 629.438 27.4496 628.165 26.4553C627.516 25.9129 626.536 25.0692 625.467 24.105C624.321 23.0304 620.54 19.6054 617.574 16.5521C614.608 13.4988 612.291 10.9176 613.017 12.2634C615.687 16.979 619.146 21.3907 623.302 25.3806C624.028 26.0837 625.085 27.0177 626.281 27.9719C628.177 29.5648 630.219 31.0453 632.391 32.4012C634.76 33.9044 637.571 34.913 640.564 35.334H578.405C574.928 32.2615 571.092 29.4537 566.949 26.9474L566.261 26.5356C565.569 26.1424 564.78 25.8686 563.945 25.7321C563.277 25.6238 562.584 25.68 561.959 25.8929C561.584 26.0324 561.261 26.2464 561.022 26.514C560.783 26.7817 560.637 27.0937 560.597 27.4195C560.568 27.7884 560.638 28.158 560.803 28.5041C560.967 28.8502 561.222 29.1651 561.551 29.4282C562.594 30.2214 563.709 30.9532 564.887 31.6178C567.602 33.1849 570.607 34.4114 573.797 35.2536C575.363 35.6152 572.295 34.2492 568.986 32.2405C567.324 31.1942 565.742 30.0707 564.25 28.8758C563.867 28.6155 563.537 28.3107 563.27 27.9719C563.987 28.0309 564.657 28.2827 565.167 28.685L574.141 33.7772L577.056 35.4444L552.132 35.1633C552.221 35.7659 553.163 36.5694 553.214 37.172H581.613C579.665 37.7582 577.775 38.4599 575.961 39.2711C573.514 40.3548 571.189 41.6015 569.011 42.9974C567.025 44.2428 565.192 45.659 565.192 47.6376C565.241 48.1028 565.321 48.5655 565.434 49.0237C566.506 49.1443 567.595 49.1443 568.667 49.0237C569.331 48.9245 569.98 48.7696 570.602 48.5616C572.396 47.896 574.06 47.03 575.541 45.9904L581.906 41.9126C586.094 39.1807 589.416 36.8908 587.647 37.6843C583.828 39.4118 580.098 41.2598 576.954 42.907C573.81 44.5542 571.277 46.0909 569.698 46.5529C569.288 46.6939 568.862 46.8049 568.425 46.8843C568.069 46.9345 568.234 46.8843 568.184 46.9345H568.12C568.12 46.9345 568.12 46.9345 568.031 46.9345C568.024 46.9114 568.024 46.8874 568.031 46.8642C568.094 46.7111 568.184 46.5657 568.298 46.4323C568.625 46.0184 569.014 45.6373 569.456 45.2974C570.488 44.4838 571.773 43.5397 573.186 42.5956C576.242 40.5777 579.498 38.7573 582.924 37.1519H634.797C633.97 37.413 633.066 37.7144 632.111 38.0559C630.838 38.5279 629.375 39.0602 628.051 39.6126C628.051 39.2812 627.987 39.231 627.783 39.683C625.39 40.6873 623.328 41.6917 622.513 42.1035C621.699 42.5153 620.744 43.0476 619.585 43.7105C616.614 45.377 613.802 47.2132 611.171 49.2044C610.382 49.8071 609.644 50.3896 609.007 50.9119C607.416 51.5447 605.825 52.1473 604.285 52.6897C602.692 53.2844 601.045 53.7846 599.358 54.1862C598.784 54.3136 598.176 54.3136 597.602 54.1862C597.216 54.0999 596.881 53.9075 596.66 53.6438C596.392 53.3023 596.66 52.6997 597.029 52.1975C597.791 51.3114 598.643 50.4751 599.575 49.6966C601.435 48.2146 603.584 46.977 605.939 46.0306C609.343 44.6731 613.076 43.906 616.887 43.7808C618.86 43.7808 614.672 42.7764 609.44 43.5197C606.825 43.8991 604.309 44.6186 601.993 45.649C600.395 46.3614 598.919 47.2322 597.602 48.2403C596.539 49.0629 595.596 49.9757 594.788 50.9621C594.308 51.5446 594.011 52.2092 593.923 52.9005C593.859 53.4736 594.019 54.0484 594.381 54.5477C594.783 55.081 595.389 55.4996 596.112 55.7429C596.809 55.9666 597.557 56.0732 598.309 56.0559C599.06 56.0386 599.799 55.8978 600.478 55.6425C601.675 55.2162 602.836 54.7298 603.954 54.1862C605.15 53.6237 606.232 53.0411 607.149 52.5189C606.69 52.9809 606.614 53.1718 607.149 52.8805L620.871 45.6087C620.718 45.7795 620.578 45.9603 620.438 46.1511C618.929 48.1132 617.958 50.3029 617.587 52.5791C617.434 53.5354 617.413 54.5019 617.523 55.4618C617.563 56.2012 617.77 56.9291 618.134 57.6111C618.446 58.0431 618.935 58.3782 619.52 58.5609C620.106 58.7436 620.753 58.7628 621.355 58.6155C622.005 58.4773 622.586 58.1866 623.022 57.7819C623.398 57.4173 623.687 57.0022 623.875 56.5565C624.639 54.3971 626.701 46.2014 627.554 41.9629L636.63 37.1921H668.454L668.072 37.4432C664.969 38.0329 661.974 38.9341 659.162 40.1249C656.083 41.4171 653.211 42.9952 650.607 44.8254C649.334 45.6791 648.367 46.5228 647.527 47.2359L646.432 48.2403C646.128 48.5307 645.859 48.8435 645.63 49.1743C645.371 49.5391 645.194 49.9368 645.108 50.3494C644.978 50.9809 645.171 51.6273 645.643 52.1473C646.184 52.65 646.93 52.9876 647.753 53.1014C648.576 53.2151 649.424 53.0978 650.149 52.77C651.064 52.3495 651.882 51.8095 652.568 51.173L655.47 48.7826L662.624 42.8769C665.17 40.6974 667.423 38.7188 668.569 37.624H668.671C669.396 37.4131 669.384 37.3227 668.874 37.3729L669.027 37.2122H672.171C672.311 37.4532 672.388 37.4633 672.388 37.2122H698.394C697.161 37.6982 695.97 38.2485 694.83 38.8594C692.805 39.9374 690.931 41.1833 689.242 42.5756C688.452 43.2284 687.778 43.8511 687.243 44.3834C686.771 44.7771 686.449 45.268 686.314 45.7996C686.249 46.1863 686.338 46.5793 686.568 46.9245C686.822 47.2797 687.192 47.5744 687.64 47.7776C688.088 47.9809 688.598 48.0852 689.114 48.0795C690.126 48.0114 691.091 47.7111 691.889 47.2158C695.352 45.4574 698.449 43.2855 701.067 40.7777ZM621.469 55.7329C621.126 56.5766 620.629 56.6268 620.578 56.5565C620.419 56.2094 620.312 55.8486 620.26 55.4818C620.153 54.9736 620.089 54.4602 620.069 53.9451C620.01 52.6593 620.164 51.3728 620.527 50.1185C621.178 47.9258 622.316 45.8414 623.888 43.9616L623.977 43.9114C624.626 43.5498 625.454 43.0979 626.434 42.5856C624.028 48.0695 622.284 53.2923 621.469 55.7329ZM644.765 35.3742H643.25C643.53 35.2838 642.511 35.1934 640.92 34.7715C639.75 34.044 638.867 33.0685 638.374 31.9593C637.812 30.5921 637.68 29.1371 637.992 27.7208C638.12 27.0177 638.311 26.3448 638.489 25.712L638.565 25.4911C638.956 25.7539 639.299 26.0581 639.584 26.3951C640.271 27.2983 640.773 28.2812 641.073 29.3077C641.469 31.0306 642.212 32.6922 643.275 34.2292C643.696 34.6675 644.198 35.0535 644.765 35.3742ZM657.112 45.0664L652.466 48.4914C651.468 49.3143 650.395 50.0796 649.258 50.7813C649.069 50.8674 648.862 50.9253 648.647 50.952C648.465 50.9679 648.281 50.9472 648.112 50.8918C648.023 50.8918 648.011 50.8918 647.972 50.7612C647.972 50.5144 648.066 50.2732 648.24 50.0682C648.587 49.6375 648.974 49.2279 649.398 48.8429C649.895 48.3708 650.455 47.8385 651.078 47.3162C652.495 46.1057 654.008 44.9684 655.61 43.9114C659.104 41.6305 662.954 39.7132 667.067 38.2065C663.439 40.5668 660.04 42.9371 657.112 45.0664ZM689.42 45.8398C689.42 45.8398 689.356 45.9001 689.254 45.8398C689.152 45.7795 689.254 45.7594 689.254 45.6992C689.254 45.6389 689.865 45.0162 690.209 44.6948C690.986 43.8913 691.928 42.9974 693.01 42.0633C695.138 40.2684 697.478 38.6373 699.998 37.1921H703.384C699.598 40.3156 695.32 43.043 690.655 45.3074C690.262 45.526 689.849 45.7208 689.42 45.89V45.8398Z" fill="#589A43" fill-opacity="0.34"/>
<path d="M619.191 23.1408C616.361 25.1201 612.78 26.3035 609.007 26.5055C606.405 26.6747 603.788 26.3582 601.369 25.5815C600.924 25.4509 600.096 25.0793 600.249 25.1898C600.249 25.1898 600.097 25.1898 600.135 25.1195V25.0592C600.211 25.0592 600.491 24.8784 600.682 24.788C601.196 24.5752 601.738 24.4068 602.299 24.2858C603.807 23.9908 605.353 23.8291 606.907 23.8037C610.471 23.6832 614.545 23.4723 618.694 23.0906C620.604 22.9199 616.441 22.5985 611.337 22.3273C608.701 22.1256 606.052 22.0652 603.406 22.1465C602.2 22.2145 601.014 22.4315 599.893 22.7893C599.401 22.9511 598.931 23.153 598.493 23.3919C598.034 23.6583 597.608 23.9576 597.22 24.2858L596.278 25.2199L596.01 25.481C595.908 25.5714 596.201 25.6217 596.278 25.702L597.054 26.1339C597.608 26.4638 598.191 26.7625 598.798 27.0278C599.345 27.2286 599.638 27.3492 600.071 27.4998C601.852 28.0557 603.745 28.3551 605.659 28.3837C608.38 28.4344 611.078 27.9839 613.539 27.068C615.512 26.3504 617.253 25.2892 618.631 23.9644C619.662 23.0303 619.891 22.6487 619.191 23.1408Z" fill="#589A43" fill-opacity="0.34"/>
<path d="M603.699 3.56552C602.133 2.67162 600.631 1.93844 599.307 1.31572L597.462 0.472078C597.105 0.318839 596.73 0.194281 596.341 0.100402C595.831 0.000447972 595.298 0.000447972 594.788 0.100402C594.458 0.155775 594.145 0.262469 593.868 0.414209C593.59 0.565948 593.353 0.759708 593.172 0.984259C592.969 1.23156 592.831 1.50806 592.764 1.7978C592.739 1.9545 592.739 2.11319 592.764 2.26989C592.764 2.40046 592.764 2.51094 592.764 2.64151C592.938 3.5289 593.439 4.35652 594.203 5.02188C596.17 6.94249 598.512 8.6038 601.14 9.94335C604.672 11.7744 608.694 12.9331 612.89 13.3281C614.914 13.4386 610.611 12.6953 606.092 10.5861C603.831 9.52974 601.733 8.26913 599.842 6.82975C598.554 5.83524 597.354 4.77141 596.252 3.64589C595.934 3.35273 595.695 3.01079 595.552 2.64151C595.425 2.13932 595.438 2.26986 595.552 2.16942C595.598 2.15717 595.647 2.15717 595.692 2.16942C596.015 2.24735 596.326 2.35176 596.621 2.48083L599.613 3.70615C602.01 4.67162 604.301 5.79377 606.461 7.06079C610.789 9.55165 612.661 12.9364 612.024 11.3394C610.369 7.89438 606.869 5.32318 603.699 3.56552Z" fill="#589A43" fill-opacity="0.34"/>
<path d="M623.723 7.58302H623.544C623.037 7.77569 622.6 8.06582 622.271 8.42672C621.983 8.7127 621.716 9.01114 621.469 9.32063C620.878 10.0574 620.407 10.8505 620.069 11.6809C619.276 13.6078 619.312 15.6875 620.171 17.5967C620.655 18.4504 620.286 16.5923 621.062 14.3525C621.441 13.2397 622.042 12.1818 622.844 11.2189C623.181 10.8095 623.556 10.4202 623.965 10.0538L624.41 9.66208C624.41 9.66208 624.499 9.50138 624.677 9.91318C624.718 10.1599 624.718 10.4097 624.677 10.6564C624.576 11.0983 624.448 11.6608 624.321 12.2032C624.041 13.3884 623.748 14.7844 623.506 16.06C623.023 18.6111 622.755 20.7102 623.277 19.8264C624.334 18.0108 625.26 16.1498 626.052 14.2521C626.409 13.3984 626.714 12.615 626.969 11.9219C627.278 11.2391 627.429 10.5178 627.414 9.79266C627.37 9.19411 627.064 8.6262 626.549 8.18568C626.206 7.87603 625.754 7.6535 625.251 7.54623C624.748 7.43897 624.216 7.45176 623.723 7.58302Z" fill="#589A43" fill-opacity="0.34"/>
<path d="M896.237 35.1431C896.524 34.916 896.792 34.6745 897.039 34.42C898.541 33.0038 898.936 30.0911 896.084 28.8156C894.927 28.4043 893.619 28.34 892.405 28.6348C891.502 28.8073 890.623 29.0529 889.783 29.368L889.21 29.599C889.21 29.599 888.956 29.6994 888.917 29.6693C888.879 29.6391 888.917 29.6693 888.917 29.4483C888.917 28.7051 888.917 27.9016 888.917 27.078C888.917 26.616 888.917 26.0736 888.803 25.5212C888.776 24.8038 888.618 24.0933 888.332 23.412C888.107 22.9265 887.723 22.4964 887.221 22.1649C886.718 21.8334 886.113 21.6123 885.468 21.5238C884.834 21.4499 884.188 21.4805 883.57 21.6136C882.952 21.7468 882.376 21.9795 881.878 22.2972C879.765 23.7334 879.892 26.0334 880.694 27.7308C881.499 29.4906 882.975 31.0101 884.92 32.0798C885.837 32.5318 885.391 32.1501 884.462 31.1758C883.143 29.7818 882.337 28.1275 882.133 26.395C882.067 25.9644 882.115 25.5276 882.275 25.1125C882.435 24.6975 882.703 24.3134 883.062 23.9845C883.353 23.7793 883.714 23.6447 884.1 23.5966C884.486 23.5485 884.881 23.589 885.239 23.7133C885.582 23.8338 885.786 24.5068 885.799 25.3304C885.811 26.154 885.799 26.7967 885.799 27.2186C885.876 28.9796 885.778 30.7426 885.506 32.4916V32.5518C885.506 32.7226 885.506 32.9335 885.417 33.1545C885.1 33.2344 884.803 33.3567 884.538 33.5161C883.535 32.4217 882.319 31.4591 880.936 30.6637C879.487 29.7556 877.833 29.0738 876.061 28.6549C875.101 28.4013 874.067 28.3837 873.095 28.6046C872.396 28.8061 871.78 29.1532 871.312 29.609C870.866 30.0196 870.536 30.5011 870.345 31.0209C870.154 31.5406 870.106 32.0866 870.205 32.6221C870.384 33.6159 870.97 34.5364 871.873 35.2436H868.359C866.673 33.1496 864.677 31.221 862.414 29.4985C860.244 27.8488 857.859 26.3844 855.299 25.1295C854.551 24.7267 853.725 24.4215 852.855 24.2256C852.083 24.054 851.257 24.114 850.538 24.3941C849.819 24.6741 849.256 25.1543 848.959 25.7422C848.811 26.1213 848.793 26.5248 848.907 26.9113C849.021 27.2978 849.263 27.6534 849.609 27.9418C850.232 28.5344 850.563 28.8156 851.149 29.2977C852.335 30.287 853.612 31.2067 854.968 32.0496C857.037 33.3132 859.284 34.3849 861.663 35.2436H828.261C828.121 35.103 827.981 34.9724 827.828 34.8418C828.185 34.9021 828.528 34.9925 828.898 35.0427C830.4 35.2135 829.369 34.9323 827.103 34.179C823.793 31.1658 820.458 28.2732 817.466 25.7723L812.451 21.6745C811.177 20.5328 809.752 19.5024 808.199 18.6011C807.506 18.2716 806.711 18.0975 805.902 18.0975C805.092 18.0975 804.298 18.2716 803.604 18.6011C803.128 18.8381 802.736 19.1655 802.462 19.5533C802.189 19.9411 802.043 20.3769 802.038 20.8207C802.086 21.5282 802.386 22.2106 802.904 22.7893C803.418 23.3683 803.997 23.9095 804.635 24.4063C805.271 24.9487 806.01 25.5212 806.812 26.1138C808.626 27.4493 810.576 28.6653 812.642 29.7496C816.802 31.9259 821.399 33.5321 826.237 34.5003L827.268 35.1933H792.898C791.727 34.661 790.06 33.9479 788.227 33.1846C786.394 32.4213 784.153 31.3667 782.32 30.4929C781.047 23.643 779.214 17.436 778.145 14.2119C777.807 13.263 777.018 12.4535 775.943 11.9521C775.589 11.8026 775.206 11.7007 774.81 11.6507C774.34 11.5709 773.854 11.5709 773.384 11.6507C772.907 11.752 772.47 11.9457 772.112 12.214C771.754 12.4824 771.487 12.817 771.335 13.1875C771.11 13.7785 770.977 14.389 770.94 15.0054C770.89 15.6744 770.89 16.3451 770.94 17.0141C771.064 18.6288 771.493 20.2199 772.213 21.7347C773.383 24.1692 775.212 26.3731 777.572 28.1929C776.77 27.8212 775.612 27.2789 774.301 26.6361C772.989 25.9933 768.012 23.5426 764.117 21.3631L762.258 20.3587C762.171 20.2409 762.054 20.1384 761.915 20.0574C760.186 18.8577 758.348 17.76 756.415 16.7731C754.594 15.7985 752.643 14.9835 750.598 14.3425C749.454 13.9806 748.189 13.9282 747.003 14.1935C745.817 14.4589 744.776 15.0269 744.042 15.8089C743.441 16.5801 743.244 17.5063 743.495 18.3901C743.666 18.9874 743.963 19.5577 744.373 20.0775C745.381 21.2958 746.622 22.3835 748.052 23.3015C750.555 24.9999 753.451 26.2994 756.581 27.1282C760.776 28.2433 765.29 28.3758 769.578 27.5099C771.576 26.9876 767.032 27.6103 761.838 26.5055C759.222 25.9785 756.721 25.1457 754.417 24.0347C752.852 23.2669 751.378 22.3896 750.013 21.4133C748.924 20.6558 747.939 19.8109 747.072 18.8923C746.748 18.5262 746.519 18.1132 746.397 17.677C746.34 17.4198 746.392 17.1549 746.547 16.9239C746.701 16.6929 746.949 16.5091 747.25 16.4015C748.803 15.5076 751.884 16.6324 754.404 17.4862C756.097 18.0587 757.663 18.6513 758.936 19.1535C762.942 22.7327 767.506 25.8982 772.518 28.5745C773.728 29.2181 774.981 29.8082 776.274 30.3422C777.648 30.965 779.762 31.8488 782.32 32.7628C782.74 33.5964 782.957 33.8173 782.829 33.054C782.835 33.014 782.835 32.9735 782.829 32.9335C785.237 33.7797 787.702 34.5207 790.212 35.1532H736.621C735.193 35.2898 733.745 35.2286 732.344 34.9724C732.031 34.8745 731.725 34.7638 731.427 34.641C727.651 33.0753 724.034 31.2823 720.607 29.2776C718.191 27.9788 716.044 26.3933 714.242 24.5771C716.245 24.8307 718.13 25.488 719.716 26.4854C724.592 29.0466 729.48 31.5776 734.47 33.9781C735.335 34.4332 736.267 34.8042 737.245 35.0829C733.057 31.8488 728.411 29.0064 723.853 26.1138C722.084 24.8886 720.141 23.8302 718.061 22.96C715.959 22.0845 713.523 21.8452 711.213 22.2871C710.917 23.2523 710.961 24.263 711.34 25.2098C711.902 26.219 712.778 27.1 713.886 27.771C715.995 29.1973 718.281 30.4524 720.709 31.5174C723.593 32.8569 726.67 33.9191 729.874 34.6812C730.927 34.8074 731.89 35.2194 732.599 35.8462C731.789 35.9413 730.973 36.0016 730.154 36.027C729.309 35.9533 728.459 35.9232 727.608 35.9366C726.764 36.0806 725.98 36.3916 725.33 36.8405L723.484 37.9152L711.136 45.1066C710.427 45.5439 709.678 45.94 708.896 46.2918C708.827 46.3338 708.741 46.3551 708.654 46.352C708.58 46.3355 708.516 46.2973 708.476 46.2451C708.436 46.1929 708.422 46.1306 708.438 46.0708C708.476 45.9521 708.555 45.8442 708.667 45.7594C710.475 44.105 712.392 42.526 714.408 41.0288C716.432 39.5323 718.723 38.2467 720.773 36.7903L718.851 37.1921H719.118C717.213 37.8747 715.386 38.6844 713.657 39.6126C711.525 40.7449 709.515 42.0148 707.649 43.4092C707.19 43.7416 706.765 44.1008 706.376 44.4838C705.837 45.0129 705.509 45.656 705.434 46.3319C705.396 46.8426 705.576 47.3485 705.945 47.769C706.314 48.1895 706.851 48.5003 707.47 48.652C708.423 48.7777 709.399 48.716 710.314 48.4725C711.229 48.229 712.054 47.8111 712.715 47.2559C716.003 45.1558 719.147 42.9196 722.135 40.5568C723.815 39.2511 725.266 38.0358 726.183 37.1921H796.195C794.403 37.5317 792.686 38.0836 791.103 38.8292C785.935 41.2096 781.607 45.3276 780.245 46.5328C779.558 47.2057 778.463 48.2302 777.317 49.4053C774.367 52.3733 771.691 55.505 769.311 58.7762C766.497 62.6129 764.677 65.8972 765.937 64.5815C767.898 62.5727 769.845 60.564 771.666 58.7862C771.419 59.9735 771.419 61.1845 771.666 62.3718C771.975 63.9371 772.652 65.4429 773.664 66.8112C774.099 67.4051 774.602 67.9665 775.166 68.4885C775.402 68.716 775.653 68.9339 775.917 69.1414C776.259 69.4078 776.666 69.6163 777.114 69.754L777.559 69.8444C777.989 69.8942 778.428 69.8726 778.846 69.7809C779.265 69.6893 779.655 69.5296 779.991 69.3121C780.383 69.0638 780.705 68.7521 780.933 68.3981C781.153 68.0532 781.287 67.6781 781.327 67.2933C781.381 66.7689 781.312 66.2411 781.124 65.7365C780.933 65.164 780.678 64.6116 780.398 63.9487C779.851 62.653 779.125 61.1465 778.527 59.7705C777.254 57.0185 776.044 54.7988 776.146 55.9137C776.35 58.1784 776.72 60.4321 777.254 62.6631C777.661 64.6116 778.399 66.53 778.285 66.992C778.275 67.1062 778.241 67.2184 778.183 67.3235C778.188 67.3486 778.182 67.3743 778.166 67.3962C778.149 67.4182 778.124 67.435 778.094 67.444C778.208 67.6147 777.419 67.0523 776.821 66.5099C776.085 65.8675 775.429 65.1714 774.861 64.4308C773.465 62.5343 772.597 60.4253 772.315 58.2438C775.395 55.1704 778.068 52.5691 779.66 51.0726C780.474 50.2891 781.607 49.2145 782.753 48.0594C784.09 46.804 786.114 44.755 788.736 42.5956C790.151 41.4184 791.707 40.3521 793.382 39.4117C792.768 39.9784 792.258 40.6107 791.867 41.2899C790.855 43.1528 790.486 45.1939 790.798 47.2057C790.903 48.0673 791.077 48.9227 791.32 49.7669L791.549 50.5101C791.651 50.8416 791.765 51.1529 791.867 51.4542C792.071 52.0468 792.262 52.5792 792.427 53.0412L793.7 52.6595C794.73 52.3982 795.679 51.9707 796.488 51.404C797.174 50.9183 797.751 50.3444 798.194 49.7066C799.095 48.44 799.662 47.0427 799.861 45.5988C800.02 43.7506 800.487 41.9271 801.249 40.1751C801.617 39.495 802.162 38.8835 802.848 38.38C803.534 37.8766 804.347 37.4924 805.233 37.2524H831.825C830.605 40.1397 829.054 42.9333 827.192 45.5988C825.783 47.562 823.871 49.2723 821.578 50.6206C821.094 50.8717 820.522 51.1831 819.86 51.4643C819.198 51.7455 819.261 51.7154 819.121 51.7254C818.867 51.055 818.802 50.3488 818.93 49.6564C819.059 48.358 819.459 47.0853 820.114 45.89C820.959 44.3508 822.181 42.9585 823.71 41.7933C825.24 40.6281 827.046 39.7129 829.025 39.1004C830.069 38.8091 829.419 38.7489 827.752 38.9899C825.302 39.453 823.046 40.4119 821.209 41.7721C818.908 43.4327 817.253 45.5748 816.435 47.949C816.103 48.9316 815.94 49.9451 815.952 50.9621C815.929 51.4489 815.993 51.9358 816.143 52.4084C816.289 52.8803 816.627 53.3015 817.105 53.6079C817.583 53.9143 818.175 54.0891 818.79 54.1058C819.419 54.1188 820.044 54.0263 820.623 53.8346C821.521 53.5053 822.374 53.1049 823.169 52.6394C824.854 51.6636 826.307 50.4598 827.459 49.0839C829.07 47.1537 830.273 45.0304 831.023 42.7965C831.642 40.9788 832.101 39.1297 832.398 37.2624H869.543C870.23 37.8148 870.498 37.9655 870.129 37.3729L870.052 37.2624H877.003L877.461 37.3427C877.943 37.4151 878.434 37.4488 878.925 37.4432C878.156 37.6528 877.421 37.9325 876.735 38.2768C873.222 39.9742 870.829 43.6101 871.911 45.6389C872.224 46.1942 872.719 46.6734 873.346 47.0266C873.973 47.3798 874.708 47.5943 875.475 47.6477C877.588 47.9892 881.942 46.3721 884.182 43.831C885.1 42.83 885.631 41.6403 885.71 40.4061C885.71 39.5825 885.506 39.2912 885.34 39.7834C884.491 41.6696 882.761 43.2289 880.503 44.1424C879.619 44.5214 878.689 44.8309 877.728 45.0664C877.167 45.2285 876.568 45.2936 875.971 45.2572C875.738 45.2451 875.51 45.1951 875.302 45.1104C875.094 45.0257 874.91 44.9082 874.762 44.7651C874.406 44.4738 874.762 42.7563 875.971 41.2397C877.414 39.382 879.613 37.9656 882.209 37.2222H887.301C887.018 37.4651 886.65 37.6364 886.244 37.7143C885.556 37.8531 884.827 37.7888 884.195 37.5336C883.724 37.3327 883.431 37.182 883.545 37.5336C883.745 37.9013 884.041 38.232 884.413 38.5041C884.784 38.7762 885.224 38.9838 885.704 39.1135C886.184 39.2431 886.693 39.292 887.198 39.2568C887.703 39.2217 888.194 39.1034 888.637 38.9096C889.495 38.5586 890.144 37.9564 890.445 37.2323H909.768C910.036 36.5392 910.519 35.9165 910.825 35.2235L896.237 35.1431ZM819.338 30.9951C816.134 29.4774 813.147 27.6928 810.427 25.6719C809.154 24.7478 808.085 23.8238 807.194 23.0605L806.035 22.0561C805.815 21.8451 805.611 21.6237 805.424 21.3932C805.119 21.0015 805.081 20.7002 805.144 20.65C805.208 20.5998 805.844 20.2984 806.519 20.5797C807.283 20.7906 809.51 22.6487 812.12 24.4968L820.662 30.6134L824.2 33.0741C822.736 32.4916 821.056 31.8287 819.338 30.9951ZM780.678 29.6392C778.962 28.1712 777.494 26.5337 776.312 24.7679C774.975 22.7417 774.141 20.5326 773.855 18.2596C773.746 17.3375 773.746 16.4095 773.855 15.4875C773.909 14.9945 774.003 14.5048 774.135 14.0211C774.135 14.0211 774.135 13.9608 774.237 14.0211C774.395 14.0367 774.543 14.0932 774.657 14.1818C774.866 14.3673 775.03 14.5818 775.141 14.8145C775.828 16.8233 778.883 24.9286 780.92 29.7898L780.678 29.6392ZM800.205 38.5681C798.949 39.7746 798.077 41.2001 797.659 42.7262C797.214 44.062 796.934 45.2271 796.577 46.1612C796.306 46.9049 795.921 47.6199 795.432 48.2905C795.166 48.6492 794.854 48.9858 794.502 49.2949C794.222 49.5359 794.35 49.4455 794.311 49.4957C794.291 49.5397 794.261 49.5805 794.222 49.6163L794.095 49.5158L793.968 49.1944C793.879 48.9634 793.789 48.7324 793.713 48.4914C793.319 47.4187 793.055 46.319 792.924 45.207C792.731 43.9128 792.913 42.6008 793.458 41.3705C794.003 40.1402 794.895 39.0239 796.068 38.1061C797.077 37.7343 798.13 37.4417 799.212 37.2323H802.675C801.751 37.5496 800.913 38.003 800.205 38.5681ZM864.006 35.1431C862.847 34.5405 861.46 33.7571 859.907 32.823C857.882 31.5538 855.999 30.1491 854.28 28.6247C853.478 27.9217 852.791 27.2588 852.231 26.6863C852.091 26.5457 852.231 26.6863 852.129 26.6059C852.027 26.5256 851.62 26.2042 853.504 27.0178C857.343 28.7649 860.94 30.8251 864.235 33.1645C865.164 33.8375 866.03 34.5104 866.781 35.1231L864.006 35.1431ZM883.278 35.1431H876.111L875.513 34.8418C874.929 34.5777 874.423 34.2178 874.03 33.7864C873.637 33.355 873.366 32.8621 873.235 32.341C873.154 31.9285 873.267 31.5069 873.553 31.1558C873.665 31.025 873.814 30.9168 873.989 30.84C874.163 30.7632 874.359 30.72 874.558 30.7139C875.486 30.7325 876.404 30.8612 877.283 31.0955C879.673 31.7756 881.989 32.6086 884.207 33.5864H884.347C883.779 33.9903 883.417 34.5438 883.329 35.1431H883.278ZM894.455 35.1431H890.114C889.861 34.5995 889.42 34.1228 888.841 33.7672C888.526 33.5631 888.174 33.3972 887.797 33.275C888.539 32.6697 889.363 32.1307 890.254 31.668C891.227 31.1675 892.286 30.7786 893.398 30.513C894.518 30.2619 895.32 30.3623 895.842 31.1056C896.078 31.4996 896.19 31.9329 896.168 32.3684C896.146 32.8038 895.99 33.2286 895.715 33.6065C895.382 34.1426 894.995 34.6564 894.557 35.1431H894.455Z" fill="#589A43" fill-opacity="0.34"/>
<path d="M893.411 48.1499C894.008 48.0558 894.573 47.8642 895.071 47.5874C895.569 47.3107 895.987 46.9549 896.3 46.5429C896.806 45.8906 897.012 45.1213 896.886 44.3634C896.717 43.5053 896.225 42.7073 895.473 42.0734C893.92 40.7075 891.781 40.3358 889.757 39.221C889.286 38.9397 889.325 39.2209 889.757 39.8336C890.468 40.5891 891.269 41.2888 892.151 41.9227C892.98 42.5035 893.588 43.2546 893.907 44.0922C893.973 44.2748 893.991 44.4658 893.96 44.6539C893.929 44.8421 893.851 45.0234 893.729 45.187C893.511 45.4769 893.16 45.6892 892.749 45.7796C892.097 45.9348 891.41 45.9725 890.738 45.89C889.599 45.6174 888.603 45.0605 887.899 44.3031C886.282 42.6559 885.353 40.9184 885.353 41.8022C885.42 43.6885 886.32 45.4971 887.899 46.9145C888.613 47.4678 889.492 47.8709 890.455 48.0867C891.418 48.3025 892.434 48.3243 893.411 48.1499Z" fill="#589A43" fill-opacity="0.34"/>
<path d="M750.038 51.9163C750.837 52.177 751.669 52.369 752.52 52.4888C754.451 52.6858 756.407 52.6858 758.338 52.4888C762.347 52.1574 766.943 51.6853 771.5 51.0325C772.773 51.846 773.32 52.308 772.773 51.5045C772.595 51.2936 772.378 51.1028 772.187 50.9019C772.187 50.9019 772.187 50.8417 772.098 50.8115C769.296 48.1229 765.343 46.3366 760.985 45.7896C757.555 45.3404 754.033 45.6391 750.802 46.6534C750.425 46.7662 750.059 46.9004 749.707 47.0551C749.077 47.2806 748.483 47.5638 747.938 47.8988C747.301 48.2805 746.665 48.6621 745.977 49.0639C746.563 49.6062 747.123 50.1385 747.734 50.6307C748.13 50.9223 748.556 51.1877 749.007 51.4242C749.332 51.6113 749.677 51.7759 750.038 51.9163ZM750.674 49.4255C750.878 49.3451 751.375 49.1141 751.731 48.9835C753.449 48.4056 755.262 48.0202 757.116 47.8385C759.901 47.5865 762.723 47.8091 765.39 48.4914C767.383 48.9989 769.255 49.7661 770.927 50.7613C769.374 50.6709 766.485 50.6207 763.2 50.6207C760.298 50.6207 757.052 50.7312 754.621 50.4901C753.567 50.4059 752.534 50.2029 751.553 49.8875C751.254 49.7866 750.965 49.6691 750.687 49.5359C750.687 49.5359 750.573 49.5359 750.611 49.5359C750.649 49.5359 750.624 49.4857 750.713 49.4556L750.674 49.4255Z" fill="#589A43" fill-opacity="0.34"/>
<path d="M743.915 77.8794C744.553 78.0369 745.237 78.0369 745.875 77.8794C746.451 77.7316 747.003 77.5292 747.517 77.2768C748.459 76.8249 749.605 76.2725 750.827 75.6598C753.526 74.3354 756.047 72.7975 758.35 71.0698C760.236 69.6615 761.78 67.9937 762.907 66.1483C763.595 64.8627 763.697 64.3404 763.073 65.1439C760.363 68.1129 756.838 70.5608 752.762 72.3052C750.98 73.1589 749.261 73.8921 747.759 74.5249L745.71 75.3987C745.507 75.4855 745.294 75.5562 745.073 75.6096C745.073 75.6096 745.073 75.6095 745.073 75.489C745.163 74.9126 745.444 74.3652 745.888 73.9022C747.791 71.7461 750.032 69.7887 752.558 68.0768C756.146 65.6414 760.208 63.6777 764.588 62.2614C766.841 61.6286 761.571 62.0002 755.804 64.2701C752.906 65.4277 750.217 66.887 747.81 68.6091C746.143 69.7948 744.637 71.1143 743.317 72.5462C742.756 73.1479 742.349 73.8303 742.12 74.555C741.942 75.1222 741.942 75.7152 742.12 76.2825C742.238 76.64 742.466 76.969 742.783 77.2405C743.101 77.512 743.498 77.7177 743.94 77.8393L743.915 77.8794Z" fill="#589A43" fill-opacity="0.34"/>
<path d="M1053.38 40.7777C1054.57 39.6443 1055.64 38.4387 1056.58 37.172H1071.34C1071.34 36.5694 1071.34 35.9668 1071.34 35.3742H1024.47C1024.09 32.8732 1023.23 30.432 1021.93 28.1326C1020.71 26.0319 1018.83 24.208 1016.48 22.8295C1015.88 22.4884 1015.24 22.1925 1014.57 21.9456C1014.05 21.7298 1013.49 21.5999 1012.9 21.564C1012.52 21.5283 1012.12 21.5652 1011.76 21.6716C1011.39 21.7781 1011.07 21.9512 1010.8 22.1767C1010.28 22.7042 1010.04 23.3689 1010.12 24.0347C1010.11 24.5937 1010.17 25.1519 1010.29 25.702C1010.58 27.0168 1011.2 28.2731 1012.11 29.3981C1013.12 30.6948 1014.49 31.7874 1016.13 32.5881C1017.76 33.3889 1019.62 33.8753 1021.53 34.0082C1023.37 34.0082 1019.29 33.7069 1016.17 31.0453C1014.63 29.7617 1013.54 28.1782 1013.02 26.4553C1012.81 25.7612 1012.72 25.049 1012.74 24.336C1012.74 23.5124 1012.74 23.8339 1012.74 23.7535C1012.74 23.7535 1012.74 23.7535 1013 23.7535C1013.62 23.9534 1014.21 24.1988 1014.76 24.4867C1016.07 25.1886 1017.24 26.0342 1018.24 26.9977C1019.73 28.4758 1020.96 30.1121 1021.88 31.8589C1022.55 33.1545 1023.15 34.3798 1023.58 35.3541H998.939C998.433 35.0103 998.003 34.603 997.666 34.1488C996.974 33.1659 996.541 32.083 996.393 30.965C996.176 29.8702 996.024 28.7754 995.718 27.7911C995.452 26.9221 995.023 26.0894 994.445 25.3204C994.094 24.8526 993.666 24.4237 993.172 24.0448C992.759 23.7317 992.297 23.4617 991.798 23.2413C991.258 23.0104 990.685 22.8317 990.092 22.7089C989.914 22.7089 989.659 22.5885 989.239 22.4981C989.061 23.0706 988.857 23.7234 988.628 24.4365L988.475 24.9688L988.399 25.3003C988.399 25.5112 988.322 25.7422 988.271 25.9832C988.068 27.0571 988.034 28.1468 988.17 29.2273C988.317 30.4863 988.835 31.7006 989.684 32.7728C990.045 33.2051 990.472 33.5999 990.957 33.9479C990.378 33.7075 989.821 33.4357 989.29 33.1344C985.471 31.1256 981.856 27.4898 980.583 26.4955C979.934 25.9531 978.953 25.1094 977.884 24.1452C976.738 23.0705 972.958 19.6456 969.992 16.5923C967.026 13.539 964.709 10.9577 965.435 12.3036C968.104 17.0191 971.564 21.4309 975.72 25.4208C976.446 26.1238 977.502 27.0579 978.699 28.0121C980.595 29.6051 982.637 31.0855 984.809 32.4414C987.178 33.9446 989.989 34.9532 992.981 35.3742H930.772C927.295 32.3017 923.459 29.4938 919.315 26.9876L918.628 26.5758C917.936 26.1826 917.147 25.9088 916.311 25.7723C915.644 25.664 914.951 25.7201 914.326 25.933C913.95 26.0725 913.627 26.2866 913.389 26.5543C913.15 26.8219 913.003 27.1339 912.963 27.4597C912.935 27.8286 913.005 28.1982 913.17 28.5443C913.334 28.8904 913.589 29.2053 913.918 29.4684C914.961 30.2616 916.075 30.9934 917.253 31.658C919.968 33.2251 922.974 34.4516 926.164 35.2938C927.73 35.6554 924.662 34.2894 921.352 32.2807C919.69 31.2344 918.109 30.1108 916.617 28.916C916.234 28.6557 915.903 28.3509 915.637 28.0121C916.354 28.0712 917.023 28.3229 917.533 28.7252L926.444 33.8174L929.359 35.4847L904.333 35.2737C904.422 35.8763 905.364 36.6799 905.415 37.2825H933.802C931.859 37.871 929.974 38.5727 928.163 39.3817C925.716 40.4654 923.39 41.7119 921.212 43.1079C919.226 44.3533 917.393 45.7695 917.393 47.7481C917.442 48.2132 917.523 48.6759 917.635 49.1341C918.703 49.255 919.788 49.255 920.856 49.1341C921.524 49.0349 922.177 48.8801 922.803 48.6722C924.598 48.0065 926.261 47.1406 927.742 46.1009L934.107 42.0232C938.295 39.2913 941.618 37.0013 939.848 37.7947C936.029 39.5223 932.3 41.3703 929.155 43.0175C926.011 44.6647 923.478 46.2014 921.9 46.6634C921.489 46.8044 921.063 46.9153 920.627 46.9948C920.27 47.045 920.436 46.9948 920.385 47.0451C920.385 47.0451 920.321 47.0451 920.296 47.0451C920.289 47.022 920.289 46.9979 920.296 46.9748C920.37 46.8254 920.459 46.681 920.563 46.5429C920.898 46.1313 921.291 45.7506 921.734 45.4079C922.765 44.5944 924.038 43.6503 925.464 42.7061C928.519 40.6882 931.776 38.8677 935.202 37.2624H987.075C986.247 37.5235 985.344 37.8248 984.389 38.1663C983.052 38.6384 981.652 39.1707 980.328 39.7231C980.328 39.3917 980.328 39.3415 980.048 39.7934C977.655 40.7978 975.593 41.8022 974.778 42.214C973.963 42.6258 973.009 43.1581 971.85 43.821C968.879 45.4874 966.067 47.3236 963.436 49.3149C962.647 49.9175 961.909 50.5001 961.272 51.0224C959.681 51.6551 958.09 52.2578 956.549 52.8001C954.957 53.3948 953.31 53.8951 951.623 54.2966C951.049 54.4246 950.441 54.4246 949.866 54.2966C949.48 54.2104 949.146 54.018 948.924 53.7543C948.657 53.4128 948.924 52.8102 949.294 52.308C950.056 51.4219 950.907 50.5856 951.839 49.8071C953.7 48.3251 955.848 47.0875 958.204 46.1411C961.608 44.7836 965.341 44.0164 969.152 43.8913C971.125 43.8913 966.937 42.8869 961.705 43.6302C959.09 44.0095 956.574 44.7291 954.258 45.7594C952.66 46.4718 951.184 47.3427 949.866 48.3507C948.804 49.1733 947.861 50.0861 947.053 51.0726C946.573 51.655 946.276 52.3197 946.188 53.0111C946.124 53.5842 946.284 54.1588 946.646 54.6582C947.047 55.1915 947.654 55.6101 948.377 55.8534C949.074 56.0771 949.822 56.1837 950.574 56.1664C951.325 56.1491 952.064 56.0083 952.743 55.753C953.94 55.3267 955.101 54.8402 956.218 54.2966C957.415 53.7342 958.497 53.1517 959.414 52.6294C958.955 53.0914 958.879 53.2822 959.414 52.991L973.238 45.6188C973.085 45.7895 972.945 45.9704 972.805 46.1612C971.296 48.1232 970.325 50.3129 969.954 52.5892C969.822 53.5472 969.822 54.5137 969.954 55.4717C969.993 56.2112 970.2 56.9392 970.565 57.6211C970.874 58.0545 971.363 58.3908 971.949 58.5737C972.536 58.7565 973.184 58.7748 973.785 58.6255C974.435 58.4874 975.017 58.1966 975.453 57.7919C975.828 57.4273 976.117 57.0122 976.306 56.5665C977.069 54.4071 979.132 46.2114 979.984 41.9729L989.061 37.2021H1020.88L1020.5 37.4532C1017.4 38.0429 1014.4 38.9442 1011.59 40.1349C1008.51 41.4272 1005.64 43.0052 1003.04 44.8354C1001.76 45.6891 1000.8 46.5328 999.957 47.2459L998.862 48.2503C998.558 48.5407 998.289 48.8536 998.06 49.1844C997.801 49.5492 997.625 49.9468 997.539 50.3595C997.409 50.991 997.601 51.6373 998.073 52.1573C998.614 52.6601 999.36 52.9977 1000.18 53.1114C1001.01 53.2252 1001.85 53.1079 1002.58 52.78C1003.49 52.3595 1004.31 51.8196 1005 51.1831L1007.9 48.7927L1014.83 42.9371C1017.37 40.7576 1019.62 38.779 1020.77 37.6843H1020.87C1021.6 37.4733 1021.58 37.3829 1021.08 37.4332L1021.23 37.2724H1024.37C1024.51 37.5135 1024.59 37.5235 1024.59 37.2724H1050.6C1049.36 37.7584 1048.17 38.3087 1047.03 38.9196C1045.01 39.9977 1043.13 41.2435 1041.44 42.6358C1040.65 43.2887 1039.98 43.9114 1039.44 44.4437C1038.97 44.8374 1038.65 45.3282 1038.52 45.8598C1038.45 46.2466 1038.54 46.6396 1038.77 46.9848C1039.02 47.34 1039.39 47.6347 1039.84 47.8379C1040.29 48.0412 1040.8 48.1454 1041.32 48.1398C1042.33 48.0716 1043.29 47.7714 1044.09 47.2761C1047.6 45.5041 1050.73 43.3116 1053.38 40.7777ZM973.836 55.7329C973.492 56.5766 972.996 56.6268 972.945 56.5565C972.786 56.2094 972.679 55.8486 972.627 55.4818C972.519 54.9736 972.455 54.4602 972.436 53.9451C972.376 52.6593 972.53 51.3728 972.894 50.1185C973.539 47.9242 974.677 45.8389 976.255 43.9616L976.344 43.9114C976.993 43.5498 977.82 43.0979 978.801 42.5856C976.395 48.0695 974.651 53.2923 973.836 55.7329ZM997.131 35.3742H995.616C995.896 35.2838 994.865 35.1934 993.287 34.7715C992.14 34.0372 991.28 33.0624 990.805 31.9593C990.242 30.5921 990.111 29.1371 990.423 27.7208C990.55 27.0177 990.741 26.3448 990.919 25.712L990.996 25.4911C991.383 25.7566 991.725 26.0605 992.014 26.3951C992.701 27.2983 993.203 28.2812 993.503 29.3077C993.899 31.0306 994.643 32.6922 995.706 34.2292C996.107 34.6639 996.588 35.0497 997.131 35.3742ZM1009.48 45.0664L1004.83 48.4914C1003.83 49.3143 1002.76 50.0796 1001.62 50.7813C1001.44 50.8674 1001.23 50.9253 1001.01 50.952C1000.83 50.9688 1000.65 50.9481 1000.48 50.8918C1000.39 50.8918 1000.38 50.8918 1000.34 50.7612C1000.34 50.5144 1000.43 50.2732 1000.61 50.0682C1000.95 49.6351 1001.34 49.2253 1001.76 48.8429C1002.26 48.3708 1002.82 47.8385 1003.45 47.3162C1004.86 46.0954 1006.37 44.948 1007.98 43.8812C1011.45 41.604 1015.28 39.6868 1019.37 38.1764C1015.81 40.5668 1012.41 42.9371 1009.48 45.0664ZM1041.79 45.8398C1041.79 45.8398 1041.79 45.9001 1041.62 45.8398C1041.46 45.7795 1041.62 45.7594 1041.62 45.6992C1041.62 45.6389 1042.23 45.0162 1042.58 44.6948C1043.35 43.8913 1044.29 42.9974 1045.38 42.0633C1047.5 40.2658 1049.84 38.6345 1052.36 37.1921H1055.75C1051.96 40.3156 1047.69 43.043 1043.02 45.3074C1042.63 45.526 1042.22 45.7208 1041.79 45.89V45.8398Z" fill="#589A43" fill-opacity="0.34"/>
<path d="M971.557 23.1408C968.728 25.1201 965.147 26.3035 961.374 26.5055C958.771 26.6747 956.155 26.3582 953.736 25.5815C953.291 25.4509 952.463 25.0793 952.616 25.1898C952.616 25.1898 952.463 25.1898 952.501 25.1195C952.494 25.0998 952.494 25.0789 952.501 25.0592C952.578 25.0592 952.858 24.8784 953.049 24.788C953.563 24.5752 954.105 24.4068 954.665 24.2858C956.174 23.9908 957.72 23.8291 959.273 23.8037C962.838 23.6832 966.911 23.4723 971.048 23.0906C972.97 22.9199 968.808 22.5985 963.703 22.3273C961.068 22.1256 958.418 22.0652 955.773 22.1465C954.566 22.2145 953.381 22.4315 952.259 22.7893C951.767 22.9511 951.298 23.153 950.859 23.3919C950.401 23.6583 949.975 23.9576 949.586 24.2858L948.644 25.2199L948.377 25.481C948.275 25.5714 948.568 25.6217 948.644 25.702L949.421 26.1339C949.975 26.4638 950.557 26.7625 951.165 27.0278C951.712 27.2286 952.005 27.3492 952.438 27.4998C954.218 28.0557 956.111 28.3551 958.026 28.3837C960.746 28.4344 963.444 27.9839 965.906 27.068C967.878 26.3504 969.619 25.2892 970.997 23.9644C972.028 23.0303 972.207 22.6487 971.557 23.1408Z" fill="#589A43" fill-opacity="0.34"/>
<path d="M956.066 3.5655C954.5 2.6716 952.998 1.93841 951.674 1.3157L949.815 0.472056C949.461 0.315229 949.085 0.190506 948.695 0.10038C948.19 0.000455178 947.661 0.000455178 947.155 0.10038C946.825 0.155754 946.512 0.262447 946.234 0.414187C945.957 0.565927 945.72 0.759686 945.538 0.984238C945.331 1.22942 945.192 1.50679 945.131 1.79778C945.084 1.9523 945.063 2.11101 945.067 2.26987C945.067 2.40044 945.067 2.51092 945.067 2.64149C945.241 3.52888 945.741 4.3565 946.506 5.02186C948.473 6.94247 950.814 8.60377 953.443 9.94333C956.975 11.7744 960.997 12.9331 965.193 13.3281C967.217 13.4386 962.914 12.6953 958.395 10.5861C956.132 9.52723 954.031 8.26686 952.132 6.82972C950.85 5.83311 949.655 4.76942 948.555 3.64586C948.237 3.35271 947.998 3.01077 947.855 2.64149C947.728 2.1393 947.741 2.26983 947.855 2.1694C947.9 2.15541 947.95 2.15541 947.995 2.1694C948.317 2.24913 948.628 2.35346 948.924 2.48081L951.916 3.70612C954.313 4.6716 956.604 5.79375 958.764 7.06077C963.092 9.55163 964.964 12.9363 964.327 11.3394C962.736 7.89436 959.172 5.32316 956.066 3.5655Z" fill="#589A43" fill-opacity="0.34"/>
<path d="M976.089 7.58302H975.911C975.404 7.77569 974.966 8.06582 974.638 8.42673C974.35 8.71271 974.082 9.01115 973.836 9.32064C973.245 10.0574 972.774 10.8505 972.436 11.6809C971.643 13.6078 971.678 15.6875 972.538 17.5967C973.022 18.4504 972.652 16.5923 973.429 14.3525C973.807 13.2397 974.409 12.1818 975.211 11.2189C975.548 10.8095 975.922 10.4202 976.331 10.0538L976.777 9.66209C976.777 9.66209 976.866 9.50139 977.044 9.91319C977.085 10.1599 977.085 10.4097 977.044 10.6564C976.942 11.0983 976.815 11.6608 976.688 12.2032C976.408 13.3884 976.115 14.7844 975.873 16.06C975.389 18.6111 975.109 20.7102 975.644 19.8264C976.7 18.0108 977.627 16.1498 978.419 14.2521C978.775 13.3984 979.081 12.615 979.335 11.9219C979.645 11.2391 979.796 10.5178 979.781 9.79267C979.737 9.19412 979.431 8.62621 978.915 8.18569C978.572 7.87713 978.12 7.65539 977.618 7.5482C977.115 7.44102 976.583 7.45311 976.089 7.58302Z" fill="#589A43" fill-opacity="0.34"/>
<path d="M1211.05 40.7777C1212.24 39.6443 1213.3 38.4387 1214.25 37.172H1229.01C1229.01 36.5694 1229.01 35.9668 1229.01 35.3742H1182.21C1181.82 32.8732 1180.96 30.432 1179.66 28.1326C1178.44 26.0319 1176.56 24.208 1174.21 22.8295C1173.61 22.4884 1172.97 22.1925 1172.3 21.9456C1171.79 21.7298 1171.22 21.5999 1170.64 21.564C1170.25 21.5283 1169.86 21.5652 1169.49 21.6716C1169.13 21.7781 1168.8 21.9512 1168.53 22.1767C1168.01 22.7041 1167.77 23.3688 1167.85 24.0347C1167.84 24.5936 1167.9 25.1519 1168.03 25.702C1168.32 27.0168 1168.94 28.2731 1169.85 29.3981C1170.85 30.6948 1172.22 31.7874 1173.86 32.5881C1175.5 33.3889 1177.35 33.8753 1179.27 34.0082C1181.1 34.0082 1177.03 33.7069 1173.91 31.0453C1172.36 29.7617 1171.27 28.1782 1170.75 26.4553C1170.54 25.7612 1170.45 25.049 1170.47 24.336C1170.47 23.5124 1170.47 23.8339 1170.47 23.7535C1170.47 23.7535 1170.47 23.7535 1170.74 23.7535C1171.35 23.9533 1171.94 24.1988 1172.49 24.4867C1173.8 25.1886 1174.97 26.0342 1175.97 26.9977C1177.47 28.4733 1178.69 30.1102 1179.61 31.8589C1180.28 33.1545 1180.88 34.3798 1181.32 35.3541H1156.62C1156.11 35.0103 1155.68 34.603 1155.35 34.1488C1154.66 33.1659 1154.22 32.083 1154.07 30.965C1153.86 29.8702 1153.7 28.7754 1153.4 27.7911C1153.13 26.9221 1152.7 26.0894 1152.13 25.3204C1151.78 24.8526 1151.35 24.4237 1150.85 24.0448C1150.44 23.7317 1149.98 23.4617 1149.48 23.2413C1148.94 23.0104 1148.37 22.8317 1147.77 22.7089C1147.59 22.7089 1147.34 22.5885 1146.92 22.4981C1146.74 23.0706 1146.54 23.7234 1146.31 24.4365L1146.16 24.9688L1146.08 25.3003C1146.08 25.5112 1146 25.7422 1145.95 25.9832C1145.75 27.0571 1145.71 28.1468 1145.85 29.2273C1146 30.4863 1146.52 31.7006 1147.37 32.7728C1147.73 33.2051 1148.15 33.5999 1148.64 33.9479C1148.06 33.7075 1147.5 33.4357 1146.97 33.1344C1143.15 31.1256 1139.54 27.4898 1138.26 26.4955C1137.61 25.9531 1136.63 25.1094 1135.57 24.1452C1134.42 23.0705 1130.64 19.6456 1127.67 16.5923C1124.71 13.539 1122.39 10.9577 1123.12 12.3036C1125.79 17.0191 1129.24 21.4309 1133.4 25.4208C1134.13 26.1238 1135.18 27.0579 1136.38 28.0121C1138.28 29.6051 1140.32 31.0855 1142.49 32.4414C1144.86 33.9446 1147.67 34.9532 1150.66 35.3742H1088.44C1084.96 32.3017 1081.13 29.4938 1076.98 26.9876L1076.3 26.5758C1075.62 26.1996 1074.85 25.9364 1074.04 25.8024C1073.38 25.6941 1072.68 25.7502 1072.06 25.9631C1071.68 26.1026 1071.36 26.3167 1071.12 26.5844C1070.88 26.852 1070.74 27.164 1070.7 27.4898C1070.67 27.8587 1070.74 28.2283 1070.9 28.5744C1071.07 28.9205 1071.32 29.2354 1071.65 29.4985C1072.69 30.2917 1073.81 31.0235 1074.99 31.6881C1077.7 33.2552 1080.71 34.4817 1083.9 35.3239C1085.46 35.6855 1082.39 34.3195 1079.08 32.3108C1077.42 31.2645 1075.84 30.141 1074.35 28.9461C1073.97 28.6859 1073.64 28.381 1073.37 28.0422C1074.09 28.1013 1074.76 28.353 1075.27 28.7553L1084.18 33.8475L1087.09 35.5148L1062.06 35.3039C1062.15 35.9065 1063.1 36.71 1063.15 37.3126H1091.61C1089.66 37.8989 1087.77 38.6005 1085.96 39.4118C1083.51 40.4955 1081.19 41.7421 1079.01 43.138C1077.02 44.3834 1075.19 45.7996 1075.19 47.7782C1075.24 48.2434 1075.32 48.7061 1075.43 49.1643C1076.5 49.2852 1077.58 49.2852 1078.65 49.1643C1079.32 49.0651 1079.97 48.9102 1080.6 48.7022C1082.39 48.0366 1084.06 47.1707 1085.54 46.131L1091.9 42.0533C1096.09 39.3214 1099.41 37.0314 1097.64 37.8248C1093.82 39.5523 1090.1 41.4004 1086.95 43.0476C1083.81 44.6948 1081.27 46.2315 1079.7 46.6935C1079.28 46.8345 1078.86 46.9455 1078.42 47.025C1078.07 47.0752 1078.23 47.0249 1078.18 47.0752C1078.18 47.0752 1078.12 47.0752 1078.09 47.0752C1078.08 47.0642 1078.08 47.0522 1078.08 47.04C1078.08 47.0279 1078.08 47.0158 1078.09 47.0048C1078.15 46.8517 1078.24 46.7063 1078.36 46.573C1078.69 46.1591 1079.07 45.778 1079.52 45.438C1080.55 44.6245 1081.83 43.6804 1083.25 42.7362C1086.3 40.7183 1089.56 38.8979 1092.98 37.2925H1144.86C1144.03 37.5537 1143.13 37.855 1142.17 38.1965C1140.84 38.6686 1139.43 39.2009 1138.11 39.7533C1138.11 39.4218 1138.11 39.3716 1137.84 39.8236C1135.45 40.828 1133.39 41.8323 1132.57 42.2441C1131.76 42.6559 1130.8 43.1882 1129.65 43.8511C1126.67 45.5175 1123.86 47.3538 1121.23 49.3451C1120.44 49.9477 1119.7 50.5302 1119.07 51.0525C1117.48 51.6853 1115.89 52.2879 1114.34 52.8302C1112.75 53.4249 1111.11 53.9252 1109.42 54.3268C1108.84 54.4542 1108.24 54.4542 1107.66 54.3268C1107.28 54.2405 1106.94 54.0481 1106.72 53.7844C1106.45 53.4429 1106.72 52.8403 1107.09 52.3381C1107.85 51.452 1108.7 50.6157 1109.64 49.8372C1111.5 48.3552 1113.64 47.1176 1116 46.1713C1119.4 44.8137 1123.14 44.0465 1126.95 43.9214C1128.92 43.9214 1124.73 42.9171 1119.5 43.6603C1116.89 44.0397 1114.37 44.7592 1112.05 45.7896C1110.46 46.502 1108.98 47.3728 1107.66 48.3808C1106.6 49.2034 1105.66 50.1163 1104.85 51.1027C1104.37 51.6852 1104.07 52.3498 1103.98 53.0412C1103.92 53.6142 1104.08 54.189 1104.44 54.6884C1104.84 55.2216 1105.45 55.6402 1106.17 55.8836C1106.87 56.1072 1107.62 56.2138 1108.37 56.1965C1109.12 56.1792 1109.86 56.0384 1110.54 55.7831C1111.74 55.3568 1112.9 54.8704 1114.01 54.3268C1115.21 53.7643 1116.29 53.1818 1117.21 52.6595C1116.75 53.1215 1116.67 53.3123 1117.21 53.0211L1131.03 45.649C1130.88 45.8197 1130.74 46.0005 1130.6 46.1913C1129.09 48.1533 1128.12 50.3431 1127.75 52.6193C1127.62 53.5774 1127.62 54.5438 1127.75 55.5019C1127.79 56.2414 1128 56.9693 1128.36 57.6513C1128.67 58.0847 1129.16 58.4209 1129.74 58.6037C1130.33 58.7866 1130.98 58.805 1131.58 58.6557C1132.23 58.5175 1132.81 58.2268 1133.25 57.822C1133.62 57.4575 1133.91 57.0423 1134.1 56.5966C1134.86 54.4372 1136.93 46.2415 1137.78 42.0031L1146.86 37.2323H1178.68L1178.3 37.4834C1175.19 38.073 1172.2 38.9743 1169.39 40.165C1166.31 41.4573 1163.44 43.0353 1160.83 44.8655C1159.56 45.7192 1158.59 46.5629 1157.75 47.276L1156.66 48.2804C1156.35 48.5709 1156.08 48.8837 1155.86 49.2145C1155.6 49.5793 1155.42 49.9769 1155.33 50.3896C1155.2 51.0211 1155.4 51.6675 1155.87 52.1875C1156.41 52.6902 1157.16 53.0278 1157.98 53.1415C1158.8 53.2553 1159.65 53.1381 1160.37 52.8102C1161.29 52.3897 1162.11 51.8497 1162.79 51.2132L1165.7 48.8228L1172.62 42.9673C1175.17 40.7878 1177.42 38.8091 1178.57 37.7143H1178.67C1179.39 37.5034 1179.38 37.413 1178.87 37.4633L1179.02 37.3026H1182.24C1182.38 37.5436 1182.46 37.5537 1182.46 37.3026H1208.47C1207.23 37.7886 1206.04 38.3389 1204.9 38.9498C1202.88 40.0279 1201 41.2736 1199.31 42.6659C1198.53 43.3188 1197.85 43.9415 1197.32 44.4739C1196.84 44.8676 1196.52 45.3584 1196.39 45.89C1196.32 46.2767 1196.41 46.6697 1196.64 47.0149C1196.9 47.3701 1197.27 47.6648 1197.71 47.868C1198.16 48.0713 1198.67 48.1756 1199.19 48.17C1200.2 48.1018 1201.16 47.8015 1201.96 47.3061C1205.4 45.5145 1208.47 43.3121 1211.05 40.7777ZM1131.5 55.7329C1131.16 56.5766 1130.66 56.6268 1130.61 56.5565C1130.45 56.2094 1130.35 55.8486 1130.3 55.4818C1130.17 54.9679 1130.09 54.4477 1130.05 53.925C1129.99 52.6391 1130.15 51.3526 1130.51 50.0983C1131.16 47.9057 1132.3 45.8213 1133.87 43.9415L1133.96 43.8913C1134.61 43.5297 1135.44 43.0777 1136.42 42.5655C1134.06 48.0695 1132.32 53.2923 1131.5 55.7329ZM1154.8 35.3742H1153.28C1153.56 35.2838 1152.53 35.1934 1150.96 34.7715C1149.81 34.0372 1148.95 33.0624 1148.47 31.9593C1147.91 30.5921 1147.78 29.1371 1148.09 27.7208C1148.22 27.0177 1148.41 26.3448 1148.59 25.712L1148.66 25.4911C1149.05 25.7539 1149.4 26.0581 1149.68 26.3951C1150.37 27.2983 1150.87 28.2812 1151.17 29.3077C1151.57 31.0306 1152.31 32.6922 1153.37 34.2292C1153.78 34.6639 1154.26 35.0497 1154.8 35.3742ZM1167.15 45.0664L1162.5 48.4914C1161.5 49.3143 1160.43 50.0796 1159.29 50.7813C1159.1 50.8674 1158.9 50.9253 1158.68 50.952C1158.5 50.9688 1158.32 50.9481 1158.15 50.8918C1158.06 50.8918 1158.05 50.8918 1158.01 50.7612C1158.01 50.5144 1158.1 50.2732 1158.27 50.0682C1158.62 49.6351 1159 49.2253 1159.43 48.8429C1159.93 48.3708 1160.49 47.8385 1161.11 47.3162C1162.54 46.094 1164.08 44.9467 1165.7 43.8812C1169.19 41.6004 1173.04 39.6831 1177.15 38.1764C1173.47 40.5668 1170.07 42.9371 1167.15 45.0664ZM1199.45 45.8398C1199.45 45.8398 1199.45 45.9001 1199.29 45.8398C1199.12 45.7795 1199.29 45.7594 1199.29 45.6992C1199.29 45.6389 1199.9 45.0162 1200.24 44.6948C1201.02 43.8913 1201.96 42.9974 1203.04 42.0633C1205.17 40.2658 1207.51 38.6345 1210.03 37.1921H1213.42C1209.63 40.3156 1205.36 43.043 1200.69 45.3074C1200.3 45.526 1199.88 45.7208 1199.45 45.89V45.8398Z" fill="#589A43" fill-opacity="0.34"/>
<path d="M1129.23 23.1408C1126.4 25.1201 1122.81 26.3035 1119.04 26.5055C1116.44 26.6747 1113.82 26.3582 1111.4 25.5815C1110.96 25.4509 1110.13 25.0793 1110.28 25.1898C1110.28 25.1898 1110.13 25.1898 1110.17 25.1195C1110.17 25.0994 1110.17 25.0793 1110.17 25.0592C1110.25 25.0592 1110.53 24.8784 1110.72 24.788C1111.23 24.5752 1111.77 24.4068 1112.33 24.2858C1113.84 23.9908 1115.39 23.8291 1116.94 23.8037C1120.51 23.6832 1124.58 23.4723 1128.72 23.0906C1130.64 22.9199 1126.48 22.5985 1121.37 22.3273C1118.74 22.1256 1116.09 22.0652 1113.44 22.1465C1112.23 22.2145 1111.05 22.4315 1109.93 22.7893C1109.44 22.9511 1108.97 23.153 1108.53 23.3919C1108.07 23.6583 1107.64 23.9576 1107.25 24.2858L1106.31 25.2199L1106.05 25.481C1105.94 25.5714 1106.24 25.6217 1106.31 25.702L1107.09 26.1339C1107.64 26.4638 1108.23 26.7625 1108.83 27.0278C1109.38 27.2286 1109.67 27.3492 1110.11 27.4998C1111.89 28.0557 1113.78 28.3551 1115.69 28.3837C1118.41 28.4344 1121.11 27.9839 1123.57 27.068C1125.55 26.3504 1127.29 25.2892 1128.67 23.9644C1129.7 23.0303 1129.93 22.6487 1129.23 23.1408Z" fill="#589A43" fill-opacity="0.34"/>
<path d="M1113.73 3.56552C1112.17 2.67162 1110.67 1.93844 1109.34 1.31572L1107.48 0.472078C1107.13 0.317041 1106.76 0.192385 1106.38 0.100402C1105.87 0.000447972 1105.33 0.000447972 1104.82 0.100402C1104.49 0.155775 1104.18 0.262469 1103.9 0.414209C1103.62 0.565948 1103.39 0.759708 1103.21 0.984259C1103 1.23156 1102.87 1.50806 1102.8 1.7978C1102.75 1.95232 1102.73 2.11103 1102.74 2.26989C1102.74 2.40046 1102.74 2.51094 1102.74 2.64151C1102.91 3.5289 1103.41 4.35652 1104.17 5.02188C1106.14 6.94249 1108.48 8.6038 1111.11 9.94335C1114.64 11.7744 1118.67 12.9331 1122.86 13.3281C1124.88 13.4386 1120.58 12.6953 1116.06 10.5861C1113.8 9.52725 1111.7 8.26688 1109.8 6.82975C1108.52 5.83313 1107.32 4.76944 1106.22 3.64589C1105.9 3.35273 1105.67 3.01079 1105.52 2.64151C1105.4 2.13932 1105.41 2.26986 1105.52 2.16942C1105.57 2.15543 1105.62 2.15543 1105.66 2.16942C1105.99 2.24735 1106.3 2.35176 1106.59 2.48083L1109.58 3.70615C1111.98 4.67162 1114.27 5.79377 1116.43 7.06079C1120.76 9.55165 1122.63 12.9364 1122 11.3394C1120.4 7.89438 1116.84 5.32318 1113.73 3.56552Z" fill="#589A43" fill-opacity="0.34"/>
<path d="M1133.76 7.58303H1133.58C1133.07 7.77571 1132.63 8.06584 1132.31 8.42674C1132.02 8.71272 1131.75 9.01116 1131.5 9.32065C1130.89 10.0742 1130.4 10.8879 1130.05 11.7412C1129.26 13.6681 1129.3 15.7478 1130.16 17.657C1130.64 18.5107 1130.27 16.6526 1131.05 14.4128C1131.42 13.3 1132.03 12.2421 1132.83 11.2791C1133.17 10.8698 1133.54 10.4805 1133.95 10.1141L1134.39 9.72237C1134.39 9.72237 1134.48 9.56166 1134.66 9.97346C1134.7 10.2202 1134.7 10.47 1134.66 10.7167C1134.56 11.1586 1134.43 11.7211 1134.31 12.2635C1134.03 13.4486 1133.73 14.8447 1133.49 16.1202C1133.01 18.6714 1132.74 20.7705 1133.26 19.8867C1134.32 18.0711 1135.24 16.21 1136.04 14.3124C1136.39 13.4587 1136.7 12.6752 1136.95 11.9822C1137.26 11.2994 1137.41 10.5781 1137.4 9.85294C1137.35 9.25439 1137.05 8.68648 1136.53 8.24596C1136.2 7.93451 1135.76 7.70586 1135.27 7.58812C1134.78 7.47038 1134.25 7.46863 1133.76 7.58303Z" fill="#589A43" fill-opacity="0.34"/>
</g>
<defs>
<clipPath id="clip0_49_129">
<rect width="1229" height="78" fill="white"/>
</clipPath>
</defs>
</svg>
